<?xml version="1.0" encoding="utf-8"?>
<!-- Generator: Adobe Illustrator 22.0.1, SVG Export Plug-In . SVG Version: 6.00 Build 0)  -->
<svg version="1.1" id="Layer_1" xmlns="http://www.w3.org/2000/svg" xmlns:xlink="http://www.w3.org/1999/xlink" x="0px" y="0px"
	 viewBox="0 0 1040 231" style="enable-background:new 0 0 1040 231;" xml:space="preserve">
<style type="text/css">
	.st0{clip-path:url(#SVGID_2_);}
	.st1{clip-path:url(#SVGID_4_);fill:#8CC63F;}
	.st2{clip-path:url(#SVGID_4_);fill:#009245;}
	.st3{opacity:0.3;clip-path:url(#SVGID_4_);fill:#39B54A;}
	.st4{opacity:0.2;clip-path:url(#SVGID_4_);fill:url(#SVGID_5_);}
	.st5{clip-path:url(#SVGID_4_);}
	.st6{opacity:0.2;}
	.st7{fill:#E29000;}
	.st8{fill:#E05F38;}
	.st9{fill:#EF6C3E;}
	.st10{fill:#FFFFD2;}
	.st11{fill:#515166;}
	.st12{fill:#FFF6C3;}
	.st13{fill:#889BA5;}
	.st14{fill:#3B3854;}
	.st15{fill:#D17F08;}
	.st16{fill:#483636;}
	.st17{fill:#EE8D2D;}
	.st18{fill:#AEA6B3;}
	.st19{fill:#7E7088;}
	.st20{fill:#625D66;}
	.st21{fill:#4B474F;}
	.st22{fill:#E19149;}
	.st23{fill:#BFEBDF;}
	.st24{fill:#EE4639;}
	.st25{fill:#082424;}
	.st26{fill:#08A1A1;}
	.st27{fill:#088D94;}
	.st28{fill:#83D0EE;}
	.st29{fill:#E3CB89;}
	.st30{fill:#C21C08;}
	.st31{fill:#08A7B8;}
	.st32{fill:#DE3808;}
	.st33{fill:#EEEEEE;}
	.st34{fill:#EEB858;}
	.st35{fill:#EEDC86;}
	.st36{fill:#088282;}
	.st37{fill:#086B68;}
	.st38{fill:#423A4A;}
	.st39{fill:#DCCFBD;}
	.st40{fill:#5C5264;}
	.st41{fill:#8F7E67;}
	.st42{fill:#786753;}
	.st43{fill:#2179B5;}
	.st44{fill:#4290CF;}
	.st45{fill:#231C29;}
	.st46{fill:#3084BD;}
	.st47{fill:#EEAB62;}
	.st48{fill:#80D1CD;}
	.st49{fill:#663408;}
	.st50{fill:#E89D53;}
	.st51{fill:#7B4508;}
	.st52{fill:#401908;}
	.st53{fill:#9E5A11;}
	.st54{fill:#884608;}
	.st55{opacity:0.3;}
	.st56{fill:#FFFDE0;}
	.st57{fill:#F6E9C3;}
	.st58{fill:#FFFFFF;}
	.st59{fill:#F9EDCE;}
	.st60{fill:#817789;}
	.st61{fill:#675F6F;}
	.st62{fill:#AFA6B9;}
	.st63{fill:#A08F78;}
	.st64{fill:#EDE0CE;}
	.st65{fill:#897864;}
	.st66{fill:#A3D8C7;}
	.st67{fill:#DEA414;}
	.st68{fill:#884508;}
	.st69{fill:#752A08;}
	.st70{fill:#73321B;}
	.st71{fill:#EECEB9;}
	.st72{fill:#BB6908;}
	.st73{fill:#9FDCD0;}
	.st74{fill:#B06009;}
	.st75{fill:#1E1824;}
	.st76{fill:#362E3E;}
	.st77{fill:#A68A44;}
	.st78{opacity:0.2;fill:#EEB858;}
	.st79{fill:#C8BBD1;}
	.st80{fill:#5F526B;}
	.st81{fill:#534B5B;}
	.st82{fill:#FFEEBD;}
	.st83{filter:url(#Adobe_OpacityMaskFilter);}
	.st84{filter:url(#Adobe_OpacityMaskFilter_1_);}
	.st85{mask:url(#SVGID_6_);fill:url(#SVGID_7_);}
	.st86{opacity:0.5;fill:url(#SVGID_8_);}
	.st87{filter:url(#Adobe_OpacityMaskFilter_2_);}
	.st88{filter:url(#Adobe_OpacityMaskFilter_3_);}
	.st89{mask:url(#SVGID_9_);fill:url(#SVGID_10_);}
	.st90{opacity:0.5;fill:url(#SVGID_11_);}
	.st91{opacity:0.4;fill:#F2E9CC;}
	.st92{opacity:0.2;fill:#534B5B;}
	.st93{opacity:0.1;fill:#534B5B;}
	.st94{opacity:0.5;fill:#F2E9CC;}
	.st95{opacity:0.3;fill:#39B54A;}
</style>
<g>
	<defs>
		<rect id="SVGID_1_" width="1040" height="231"/>
	</defs>
	<clipPath id="SVGID_2_">
		<use xlink:href="#SVGID_1_"  style="overflow:visible;"/>
	</clipPath>
	<g class="st0">
		<defs>
			<rect id="SVGID_3_" x="0.3" width="1040" height="231"/>
		</defs>
		<clipPath id="SVGID_4_">
			<use xlink:href="#SVGID_3_"  style="overflow:visible;"/>
		</clipPath>
		<rect x="0.3" class="st1" width="1040" height="231.4"/>
		<rect x="0.3" y="184.1" class="st2" width="1040" height="1.1"/>
		<rect x="0.3" y="185.5" class="st3" width="1040" height="45.9"/>
		<linearGradient id="SVGID_5_" gradientUnits="userSpaceOnUse" x1="6.190000e-02" y1="106.7546" x2="263.8456" y2="106.7546">
			<stop  offset="0" style="stop-color:#D9E021"/>
			<stop  offset="1" style="stop-color:#D9E021;stop-opacity:0"/>
		</linearGradient>
		<polygon class="st4" points="263.8,227.5 216.5,264.3 0.1,-14 47.4,-50.8 		"/>
		<g class="st5">
			<g class="st6">
				<rect x="967.7" y="47.9" class="st7" width="71.8" height="148"/>
			</g>
			<g>
				<polygon class="st8" points="1014.3,153.2 1014.2,156.8 1019.3,154.7 1018.1,153.3 				"/>
				<path class="st9" d="M1033.8,151.2c0-1.6-1.2-2.8-2.6-2.8l-7.6,0c-1.6,0-2.9,1.2-3.1,2.8l-0.3,3.2l-5.6,1.7
					c-1.5,0.6-2.3,1.6-2.6,2.8l0,16.6c0,1.6,1.2,2.8,2.6,2.8l16.5,0c1.4,0,2.6-1.3,2.6-2.8L1033.8,151.2z M1031.5,153.6
					c0,0.4-0.3,0.8-0.8,0.8l-7,0c-0.4,0-0.8-0.3-0.8-0.8l0-2.1c0-0.4,0.3-0.8,0.8-0.8l7,0c0.4,0,0.8,0.3,0.8,0.8L1031.5,153.6z"/>
				
					<rect x="1018" y="161.7" transform="matrix(2.172700e-03 -1 1 2.172700e-03 854.0365 1189.2662)" class="st8" width="9.9" height="9.9"/>
				<path class="st8" d="M1027.3,161.7c0,0,3.7-4.4,4.3-4.1c0.6,0.4-3.7,4.9-3.7,4.9L1027.3,161.7z"/>
				<path class="st8" d="M1018.7,161.7c0,0-3.7-4.4-4.3-4.1c-0.6,0.4,3.6,4.9,3.6,4.9L1018.7,161.7z"/>
				<path class="st8" d="M1027.3,171.6c0,0,3.7,4.4,4.3,4.1c0.6-0.4-3.7-4.9-3.7-4.9L1027.3,171.6z"/>
				<path class="st8" d="M1018.7,171.6c0,0-3.7,4.4-4.3,4.1c-0.6-0.4,3.7-4.9,3.7-4.9L1018.7,171.6z"/>
			</g>
			<g>
				
					<rect x="1030.5" y="107.6" transform="matrix(0.5703 -0.8214 0.8214 0.5703 350.6123 895.6341)" class="st10" width="1.7" height="10.1"/>
				
					<rect x="1031.6" y="110.5" transform="matrix(0.5702 -0.8215 0.8215 0.5702 351.9699 895.8903)" class="st10" width="1.1" height="2.1"/>
				
					<rect x="1023.8" y="113.1" transform="matrix(0.5703 -0.8215 0.8215 0.5703 345.7462 895.0086)" class="st10" width="8.9" height="7.9"/>
				<polygon class="st10" points="1023.4,122.2 1025.1,123.4 1029,123 1022.5,118.5 				"/>
				
					<rect x="1022.8" y="122.6" transform="matrix(0.5698 -0.8218 0.8218 0.5698 338.8172 894.4352)" class="st11" width="1.9" height="1.9"/>
				
					<rect x="1020.7" y="122" transform="matrix(0.5702 -0.8215 0.8215 0.5702 336.1132 893.9804)" class="st11" width="3.6" height="7.6"/>
				
					<rect x="1024.5" y="127.4" transform="matrix(0.5705 -0.8213 0.8213 0.5705 335.4073 897.4323)" class="st11" width="2.6" height="1.2"/>
				
					<rect x="1025.8" y="128.2" transform="matrix(0.5701 -0.8216 0.8216 0.5701 335.476 898.6519)" class="st11" width="1.3" height="1.2"/>
				<polygon class="st11" points="1016.2,119.8 1019.6,123.2 1020.4,122.1 1016.4,119.4 				"/>
				<path class="st11" d="M1019.6,123.2c0,0-5.6,3.9-5.9,5.4c-0.3,1.5,6.3-2.2,7.9-1.3L1019.6,123.2z"/>
				<path class="st11" d="M1023,128.3c0,0-2.8,1.2-4.2,0.7c0,0,3.2-1,3.4-1.6L1023,128.3z"/>
				
					<rect x="1030.6" y="108.2" transform="matrix(0.5702 -0.8215 0.8215 0.5702 350.0721 895.6302)" class="st12" width="0.9" height="10.1"/>
				<polygon class="st12" points="1027.6,111.1 1029.9,112.7 1024.8,120 1025.1,123.4 1023.4,122.2 1022.5,118.5 				"/>
				<path class="st13" d="M1025.9,126.4l-0.6,1c0,0-8.1-6.5-7.9-6.8C1017.6,120.2,1025.9,126.4,1025.9,126.4z"/>
				
					<rect x="1025.6" y="127.2" transform="matrix(0.57 -0.8216 0.8216 0.57 336.4835 898.0369)" class="st13" width="1.3" height="0.6"/>
				
					<rect x="1023.3" y="123.4" transform="matrix(0.5707 -0.8212 0.8212 0.5707 338.0899 894.1595)" class="st13" width="1.6" height="0.6"/>
				
					<rect x="1026.1" y="128.3" transform="matrix(0.57 -0.8216 0.8216 0.57 335.7139 898.7864)" class="st13" width="1" height="0.6"/>
				<path class="st13" d="M1022.4,128.5l-0.3-0.2c0,0-1.7,0.7-2.2,0.8C1020,129.1,1022,128.9,1022.4,128.5z"/>
				<path class="st14" d="M1021.6,127.3l-2-4.1C1019.6,123.2,1019.9,126.4,1021.6,127.3z"/>
			</g>
			<g>
				<ellipse class="st15" cx="775.2" cy="206.6" rx="174.5" ry="1.8"/>
				<g>
					
						<rect x="667.3" y="120.8" transform="matrix(0.9266 -0.3761 0.3761 0.9266 2.1335 260.2246)" class="st16" width="0.5" height="7.7"/>
					<path class="st17" d="M665.4,121.6l1.7-0.7l-2.5-6.2c0,0-0.6-0.5-1.1-0.3c-0.6,0.2-0.6,1-0.6,1L665.4,121.6z"/>
					
						<rect x="664.9" y="120.9" transform="matrix(0.9267 -0.3758 0.3758 0.9267 3.2622 259.2794)" class="st17" width="2.8" height="0.8"/>
				</g>
				<g>
					
						<rect x="667.7" y="115.2" transform="matrix(0.9996 -2.759651e-02 2.759651e-02 0.9996 -3.1339 18.4959)" class="st18" width="1.7" height="15.2"/>
					<path class="st18" d="M666.9,112.6l2.8-0.1l-0.1-2.8c1,0.5,1.7,1.5,1.7,2.7c0,1.7-1.3,3.2-3.1,3.2c-1.7,0-3.2-1.3-3.2-3.1
						c0-1.3,0.7-2.4,1.7-2.9L666.9,112.6z"/>
					<path class="st18" d="M667.4,131.6l2.8-0.1l0.1,2.8c1-0.6,1.6-1.6,1.6-2.8c0-1.7-1.5-3.1-3.2-3.1c-1.7,0-3.1,1.5-3.1,3.2
						c0,1.3,0.8,2.3,1.9,2.8L667.4,131.6z"/>
					<g>
						<path class="st19" d="M670.8,131.6l0.1,2.3c-0.2,0.2-0.4,0.3-0.6,0.4l-0.1-2.8L670.8,131.6z"/>
						<path class="st19" d="M669.7,112.5l-0.1-2.8c0.2,0.1,0.4,0.2,0.6,0.4l0.1,2.3L669.7,112.5z"/>
						<path class="st19" d="M665.7,112.6c0,1.5,1.1,2.6,2.4,3l0.4,13c-1.3,0.4-2.3,1.6-2.2,3.1c0,1,0.6,1.9,1.3,2.4l0,0.4
							c-1.1-0.5-1.9-1.5-1.9-2.8c0-1.5,0.9-2.7,2.2-3.1l-0.4-13c-1.3-0.3-2.4-1.5-2.4-3c0-1.3,0.7-2.4,1.7-2.9l0,0.4
							C666.1,110.7,665.6,111.6,665.7,112.6z"/>
					</g>
				</g>
				<g>
					<path class="st20" d="M615.2,201.8c0,2.7,2.2,4.8,4.8,4.8h24.8c2.7,0,4.8-2.2,4.8-4.8v-17.4c0-2.7-2.2-4.8-4.8-4.8h-24.8
						c-2.7,0-4.8,2.2-4.8,4.8V201.8z"/>
					<path class="st21" d="M618.9,200c0,2.1,1.7,3.8,3.8,3.8h19.5c2.1,0,3.8-1.7,3.8-3.8v-13.6c0-2.1-1.7-3.8-3.8-3.8h-19.5
						c-2.1,0-3.8,1.7-3.8,3.8V200z"/>
					<rect x="623.7" y="173.1" class="st20" width="17.4" height="3.4"/>
					<rect x="637.2" y="174.8" class="st20" width="1.5" height="5.9"/>
					<rect x="626.2" y="174.8" class="st20" width="1.5" height="5.9"/>
					<path class="st20" d="M624.6,190.3l1.1-2.3l-2.3-1c0.8-0.6,1.9-0.8,2.9-0.3c1.2,0.5,1.8,1.8,1.6,3l10.6,4.9
						c0.8-1,2.2-1.3,3.3-0.8c0.8,0.4,1.3,1,1.5,1.8l0,0c0.1,0.2,0.1,0.4,0.1,0.6l-2.3-1l-1.1,2.3l2,0.9h0l0.3,0.1
						c-0.8,0.7-2,0.9-3,0.4c-0.3-0.1-0.5-0.3-0.7-0.5c0,0-0.1-0.1-0.1-0.1c-0.2-0.2-0.4-0.4-0.5-0.7c0,0,0,0,0-0.1
						c-0.3-0.5-0.4-1.1-0.3-1.7l-10.6-4.9v0c-0.4,0.5-0.9,0.8-1.5,0.9c0,0,0,0-0.1,0c-0.3,0.1-0.5,0.1-0.8,0.1c0,0-0.1,0-0.1,0
						c-0.3,0-0.6-0.1-0.8-0.2c-1-0.5-1.6-1.5-1.6-2.6L624.6,190.3z"/>
					<rect x="623.7" y="175.4" class="st21" width="17.4" height="1.1"/>
				</g>
				<path class="st22" d="M701.8,102.3c0,0,2.2,18.5,5.9,23.2c3.3,4.2,17.8,7.9,17.8,7.9l-1.2,1.3c0,0-17.9-1.4-21.7-5.7
					c-4-4.4-6.1-22.9-6.1-22.9L701.8,102.3z"/>
				<polygon class="st23" points="725.5,132.9 722,131.9 720.1,134.4 723.7,135 				"/>
				<path class="st23" d="M725.2,132.9c0,0,7.3-2.1,8.1-0.8c0.4,0.5,0.5,1.7-0.4,2.8c-1.3-0.1-2.9,0.7-2.6,1.3c-1,0.8-1.4,1.5-2,1.4
					c-1.5-0.3-5.3-2.9-5.3-2.9L725.2,132.9z"/>
				<path class="st23" d="M733.3,132.1c0,0,1,1.4,1.5,2.9c0.3,2.1,0.4,3.4,0,3.4c-1,0.1-2.3-4.3-2.3-4.3L733.3,132.1z"/>
				<g>
					
						<rect x="734.6" y="139.8" transform="matrix(0.9583 -0.2856 0.2856 0.9583 -10.4132 215.8831)" class="st16" width="0.5" height="7.7"/>
					<path class="st24" d="M732.9,140.4l1.8-0.5l-1.9-6.5c0,0-0.5-0.5-1.1-0.4c-0.6,0.2-0.7,0.9-0.7,0.9L732.9,140.4z"/>
					
						<rect x="732.4" y="139.8" transform="matrix(0.9584 -0.2856 0.2856 0.9584 -9.4669 215.3855)" class="st24" width="2.8" height="0.8"/>
				</g>
				<path class="st23" d="M731.3,136.9c0,0,2.2,0.7,2.1,1.7c0,0.6-3-0.3-3.1-0.3C730.2,138.3,731.3,136.9,731.3,136.9z"/>
				<path class="st23" d="M731.3,136.9c0.4,0.3,0.7,1.1,0.7,1.1c-0.7,1.2-4.3-0.7-4.1-0.6c-0.3-0.1,1.5-1.1,2.5-1.2
					C730.5,136.4,731.1,136.8,731.3,136.9z"/>
				<g>
					
						<rect x="733.8" y="129.6" transform="matrix(0.5397 -0.8418 0.8418 0.5397 235.5307 690.6411)" class="st25" width="31.1" height="0.7"/>
					<path class="st26" d="M937.5,187.4H694.7c0,0-1.7-28.7-1.7-32.2c0-2.1,2.7-5.7,9.4-7c0,0,67.6-9.9,72.6-13.7
						c5-3.8,35.7-51,35.7-51c-3.5-0.8-6.7-0.2-4.9-2.7c2.8-3.8,54.9,3,62.6,4.3c7.3,1.2,48.1,8.9,44.5,13.5
						c-0.8,1.1-2.7,0.9-2.7,0.9s10.8,27,13.7,30c2.9,3,12.2,6.3,13.6,9.6C938.9,142.3,944.4,172.9,937.5,187.4z"/>
					<g>
						<path class="st27" d="M937.5,187.4H694.7c0,0-0.9-15.6-1.4-25.2h247.5C941.2,171.3,940.6,181,937.5,187.4z"/>
					</g>
					<path class="st28" d="M919.2,127c0.3,0.6,0.2,1.3-0.2,1.9c-0.4,0.6-1,0.9-1.6,0.9l-132,5.8c-0.8,0-1.6-0.4-2.1-1.1
						c-0.4-0.7-0.4-1.6,0.1-2.3l30.5-47.3c0.4-0.7,1.2-1.1,2-1c8.8,0.3,61.3,2.5,91.6,15.3C910,104.9,916.5,120.7,919.2,127z"/>
					<g>
						<path class="st29" d="M705.5,166.9c-1.8,0.9-5.4,1.5-12,0.4c-0.3-5.7-0.6-10.7-0.6-12c0-0.4,0.1-0.8,0.3-1.3
							C702.1,157,712.1,163.8,705.5,166.9z"/>
					</g>
					<g>
						<path class="st30" d="M936.5,137.6L936.5,137.6c2.5,1.6,3.6,15,3.7,16.6C930.3,154.9,933.6,139,936.5,137.6z"/>
					</g>
					<g>
						<g>
							<path class="st31" d="M797.5,123.1c0,0-2.7-7,0-7.8c2.7-0.7,10,16,7.9,16.5c-2.1,0.4-5.8-5-5.8-5c2.2,3.5,3.1,7.2,3.1,7.2
								s-1,0.2-2.5,0.9l-14.9,0.7c-0.8,0-1.6-0.4-2.1-1.1c-0.4-0.7-0.4-1.6,0.1-2.3l6.9-10.7l0,0C795,120.4,797.5,123.1,797.5,123.1
								z"/>
						</g>
						<g>
							<path class="st31" d="M838,119c-9.1-11.8,9.8-13.7,9.8-13.7l-2.2,27.2l-22.8,1C826.7,122.3,838,119,838,119z"/>
							<polygon class="st31" points="900.9,130 900.9,129.9 900.9,130 							"/>
							<path class="st31" d="M886.1,119.4c-2.4-2.9-10.9-9.6,2.4-14.1l4.6,25.1l-20.4,0.7C877,121.1,886.1,119.4,886.1,119.4z"/>
							<path class="st31" d="M915,117c1.7,4,3.2,7.6,4.2,10c0.3,0.6,0.2,1.3-0.2,1.9c-0.1,0.1-0.2,0.2-0.3,0.3l-17.8,0.8
								C903.9,116.4,915,117,915,117z"/>
						</g>
					</g>
					<g>
						<path class="st32" d="M939,144.3c0.8,4.2,1.2,8.9,1.2,9.8c-2.5,0.2-4.2-0.7-5.2-2.1c0-0.3,0-0.6,0-0.9
							C934.9,147.6,936.7,144.6,939,144.3z"/>
					</g>
					<g class="st6">
						<path class="st33" d="M834.3,84.8c17.7,1.6,30,3.4,30,3.4c31.3,8.9,51.2,30.1,51.2,30.1c0.4,0.9,3.2,7.7,3.6,8.8
							c-38.1-27.3-87.7-41-94.6-42.8C827.4,84.3,830.7,84.5,834.3,84.8z"/>
						<path class="st33" d="M794.4,115L808,93.9c35,2.5,90.4,35.2,92.8,36.6l-40.5,1.8l0,0L794.4,115z"/>
					</g>
					<g>
						<path class="st34" d="M705.5,166.9c-1.8,0.9-5.4,1.5-12,0.4c-0.3-5.7-0.6-10.7-0.6-12c0-0.4,0.1-0.8,0.3-1.3
							C702.1,157,712.1,163.8,705.5,166.9z"/>
					</g>
					<g>
						<path class="st35" d="M698.6,161.3c3.4,1.1,6.1,3.1,7.6,5.2c-0.2,0.1-0.4,0.3-0.7,0.4c-1.8,0.9-5.4,1.5-12,0.4
							c-0.1-2.5-0.3-4.9-0.4-6.9C694.9,160.4,696.7,160.6,698.6,161.3z"/>
					</g>
					<path class="st26" d="M891.8,92.3c-3.9,3.4,3.1,34,9.1,40.3l-8.2,0.2c-1.9-11.3-5.2-35-11.8-43.1L891.8,92.3z"/>
					<path class="st26" d="M843.5,83c5,4-5,45-9.5,52.6l9.1-0.6c-0.9-9.8,2.2-41.5,13.5-50.6L843.5,83z"/>
					<g>
						<path class="st36" d="M769.6,181.5h1.7c0-25.8,7.2-45.5,7.3-45.7l-1.6-0.6C777,135.5,769.6,155.4,769.6,181.5z"/>
					</g>
					<g>
						<path class="st27" d="M773,135.4l150-7.2c0.3,0.6,0.6,1,0.9,1.2L767.1,137C769.6,136.4,771.6,135.9,773,135.4z"/>
					</g>
					<g>
						<path class="st27" d="M878.5,142.5c0,1,3,1.8,6.7,1.8s6.7-0.8,6.7-1.8c0-1-3-1.8-6.7-1.8S878.5,141.5,878.5,142.5z"/>
						<g>
							<path class="st37" d="M890.9,143.4c-1.2,0.5-3.3,0.9-5.8,0.9c-2.5,0-4.6-0.4-5.8-0.9c1.2-0.5,3.3-0.9,5.8-0.9
								C887.6,142.5,889.8,142.9,890.9,143.4z"/>
						</g>
					</g>
					<g>
						<path class="st27" d="M816.1,142.5c0,1,3,1.8,6.7,1.8s6.7-0.8,6.7-1.8c0-1-3-1.8-6.7-1.8S816.1,141.5,816.1,142.5z"/>
						<g>
							<path class="st37" d="M828.5,143.4c-1.2,0.5-3.3,0.9-5.8,0.9c-2.5,0-4.6-0.4-5.8-0.9c1.2-0.5,3.3-0.9,5.8-0.9
								C825.2,142.5,827.4,142.9,828.5,143.4z"/>
						</g>
					</g>
					<g>
						<path class="st38" d="M778.3,136.6c1.2,0.7,2.5,0.7,2.9,0c0.4-0.7-0.2-1.8-1.4-2.5c-1.2-0.7-2.5-0.7-2.9,0
							C776.4,134.8,777.1,135.9,778.3,136.6z"/>
						<path class="st38" d="M778.3,133.7l5.3-4.5l0.7,1.4c0,0-3.7,2.5-4.8,5.8L778.3,133.7z"/>
						<path class="st38" d="M798.8,130.5c0.3,4.2-19.1,5.6-15.9-3.3C784.9,121.5,798.5,127.8,798.8,130.5z"/>
					</g>
					<g>
						<path class="st36" d="M871.9,181.8c7.1-22.1,31.1-22.4,31.3-22.4h1.2l-0.5-1.1c-10-25.3-15.6-65.4-15.7-65.8l-1.7,0.2
							c0.1,0.4,5.5,39.5,15.3,65.1c-5.1,0.4-25.2,3.2-31.7,23.5L871.9,181.8z"/>
					</g>
					<g>
						<path class="st36" d="M834.9,180.1c3.6-55.7,15.3-93.3,15.4-93.7l-1.6-0.5c-0.1,0.4-11.9,38.1-15.5,94.1L834.9,180.1z"/>
					</g>
					<g>
						<path class="st37" d="M939.8,180.1c-0.5,2.7-1.3,5.2-2.3,7.4H694.7c0,0-0.2-3.1-0.4-7.4h38.6c6.3-19.6,30.7-17.2,35.6,0h110.7
							c3.8-14.8,26.9-21.5,35.3,0H939.8z"/>
					</g>
					<path class="st39" d="M924.2,187.8c0,0,11.4,0,18.3,0c3.9-10.7,3.1-15.6,3.1-15.6h-18.3L924.2,187.8z"/>
					<g>
						<path class="st18" d="M942.5,187.8c-6.9,0-18.3,0-18.3,0l1.5-7.8h19.1C944.4,182.2,943.6,184.8,942.5,187.8z"/>
					</g>
					<g>
						<path class="st40" d="M912.7,188c-0.2,10.3-7.6,18.5-16.5,18.5c-8.9-0.1-16-8.4-15.8-18.7c0.2-10.3,7.6-18.5,16.5-18.5
							C905.8,169.3,912.9,177.7,912.7,188z"/>
						<g>
							<path class="st38" d="M896.9,169.2c7.9,0.1,14.4,6.7,15.6,15.4h-31.8C882.1,175.9,888.9,169.2,896.9,169.2z"/>
						</g>
						<path class="st38" d="M906,187.9c-0.2,6.2-4.5,11.2-9.7,11.2c-5.2,0-9.3-5.1-9.2-11.3c0.2-6.2,4.5-11.2,9.7-11.2
							C902.1,176.6,906.2,181.7,906,187.9z"/>
						<path class="st41" d="M905.6,187.9c-0.1,5.9-4.3,10.7-9.3,10.7c-5,0-8.9-4.9-8.7-10.8c0.1-5.9,4.3-10.7,9.3-10.7
							C901.8,177.1,905.7,182,905.6,187.9z"/>
						<path class="st38" d="M895.4,203.7c8.9,0.1,16.3-8.2,16.5-18.5c0-1.7-0.1-3.3-0.5-4.8c0.9,2.3,1.3,4.9,1.3,7.6
							c-0.2,10.3-7.6,18.5-16.5,18.5c-7.5-0.1-13.6-5.9-15.3-13.9C883.3,199.1,888.8,203.6,895.4,203.7z"/>
						<path class="st42" d="M895.7,196.9c5,0,9.1-4.8,9.3-10.7c0-1.3-0.1-2.6-0.5-3.7c0.8,1.6,1.2,3.5,1.1,5.4
							c-0.1,5.9-4.3,10.7-9.3,10.7c-3.9,0-7.1-3-8.3-7.1C889.5,194.7,892.4,196.8,895.7,196.9z"/>
						<path class="st29" d="M896.9,184.5c0.4,2.3,2,4,3.5,3.7c1.5-0.3,2.4-2.4,2-4.7c-0.4-2.3-2-4-3.5-3.7
							C897.4,180,896.5,182.1,896.9,184.5z"/>
					</g>
					<g>
						<path class="st40" d="M767.1,188c-0.2,10.3-7.6,18.5-16.5,18.5c-8.9-0.1-16-8.4-15.8-18.7c0.2-10.3,7.6-18.5,16.5-18.5
							C760.3,169.3,767.3,177.7,767.1,188z"/>
						<g>
							<path class="st38" d="M751.3,169.2c7.9,0.1,14.4,6.7,15.6,15.4h-31.8C736.6,175.9,743.3,169.2,751.3,169.2z"/>
						</g>
						<path class="st38" d="M760.4,187.9c-0.2,6.2-4.5,11.2-9.7,11.2c-5.2,0-9.3-5.1-9.2-11.3c0.2-6.2,4.5-11.2,9.7-11.2
							C756.5,176.6,760.6,181.7,760.4,187.9z"/>
						<path class="st41" d="M760,187.9c-0.1,5.9-4.3,10.7-9.3,10.7c-5,0-8.9-4.9-8.7-10.8c0.1-5.9,4.3-10.7,9.3-10.7
							C756.2,177.1,760.1,182,760,187.9z"/>
						<path class="st38" d="M749.8,203.7c8.9,0.1,16.3-8.2,16.5-18.5c0-1.7-0.1-3.3-0.5-4.8c0.9,2.3,1.3,4.9,1.3,7.6
							c-0.2,10.3-7.6,18.5-16.5,18.5c-7.5-0.1-13.6-5.9-15.3-13.9C737.7,199.1,743.3,203.6,749.8,203.7z"/>
						<path class="st42" d="M750.1,196.9c5,0,9.1-4.8,9.3-10.7c0-1.3-0.1-2.6-0.5-3.7c0.8,1.6,1.2,3.5,1.1,5.4
							c-0.1,5.9-4.3,10.7-9.3,10.7c-3.9,0-7.1-3-8.3-7.1C743.9,194.7,746.8,196.8,750.1,196.9z"/>
						<path class="st29" d="M751.3,184.5c0.4,2.3,2,4,3.5,3.7c1.5-0.3,2.4-2.4,2-4.7c-0.4-2.3-2-4-3.5-3.7
							C751.8,180,750.9,182.1,751.3,184.5z"/>
					</g>
					<g>
						<path class="st19" d="M942.5,187.8c-6.9,0-18.3,0-18.3,0l0.4-1.8h18.6C943,186.6,942.7,187.2,942.5,187.8z"/>
					</g>
					<g>
						<path class="st39" d="M727.9,187.5c0,0-29.3,0-36.2,0c-3.9-10.7-3.1-15.6-3.1-15.6h8.7c0,0,2,8.2,10.9,8.2c9,0,18.5,0,18.5,0
							L727.9,187.5z"/>
						<g>
							<path class="st18" d="M708.2,180.1c9,0,18.5,0,18.5,0l1.2,7.3c0,0-29.3,0-36.2,0c-1.1-2.9-1.8-5.3-2.2-7.4h17.6
								C707.4,180.1,707.8,180.1,708.2,180.1z"/>
						</g>
						<g>
							<path class="st19" d="M727.9,187.5c0,0-29.3,0-36.2,0c-0.2-0.5-0.3-1-0.5-1.5h36.5L727.9,187.5z"/>
						</g>
					</g>
					<g>
						<path class="st27" d="M805.4,82.3c-0.1-0.1-0.2-0.3-0.1-0.5c56.5,1,96.3,13.4,107.4,16.9c-0.6,0.6-1.6,0.7-2.1,0.7l-0.4,0
							c0,0-18.8-6.4-49-11.2c-30.1-4.8-50.6-4.8-50.6-4.8L805.4,82.3z"/>
					</g>
					<path class="st26" d="M767.1,137c0,0-18.9-42.2-43.3-65c0,0,11.5,2.4,20.9,13.2c9.4,10.7,25.7,51,25.7,51L767.1,137z"/>
					<path class="st27" d="M726.3,72.7c22.7,21.7,40.5,59.8,42.4,63.9l-1.5,0.4c0,0-18.9-42.2-43.3-65
						C723.8,72,724.8,72.2,726.3,72.7z"/>
				</g>
				<g>
					<path class="st27" d="M702.7,148.9c-0.1,0-0.3-0.1-0.4-0.1c0.7,0.4,1.2,0.9,1.5,1.3l0,0c0,0,2.8,4.2,2.2,4.8
						c-0.6,0.6-2.4-2.9-2.6-3.4c-0.1,0-0.2,0.1-0.2,0.1c0.5,0.9,2,3.9,1.4,4.4c-0.6,0.5-2.2-3.1-2.6-4.1c-0.1,0-0.1,0-0.2,0
						c0.5,1.2,1.5,3.6,0.9,4c-0.6,0.4-1.8-2.7-2.3-4c-0.1,0-0.1,0-0.1,0c0.4,1.2,1,3.1,0.5,3.4c-0.6,0.4-1.5-2.6-1.9-3.7
						c0,0-0.1,0-0.1-0.1c-0.9-0.5-1.4-1-1.7-1.5c1.4-0.8,3.2-1.5,5.5-2c0,0,0.3,0,0.9-0.1c0.6,0.1,1.1,0.2,1.3,0.2
						C704.5,148.3,705.5,149.4,702.7,148.9z"/>
				</g>
				<path class="st43" d="M663.9,129.9c0,0-1.6,29.5-3.1,39.9c-1.2,8.4-7.1,35.1-7.1,35.1h4.3c0,0,8.4-26.3,10.5-34.7
					c1.8-7.6,5.1-28.9,5.1-28.9L663.9,129.9z"/>
				<path class="st44" d="M701.3,97.4c0,0,4,5.1,0.1,14.5l-1.5-0.3c0,0,2.3-12.3-1.3-15.9L701.3,97.4z"/>
				<path class="st23" d="M699.8,113.3c0,0,5-9.4,1.1-15.4c0,0-1.9-3.1-5.9-4.4l-1,21.7L699.8,113.3z"/>
				<path class="st22" d="M695.9,95.3l5.2,4.6c0,0,0.5-2.3,4.5-6.1c0.9-0.9-1.6-5.5-1.6-5.5L695.9,95.3z"/>
				<path class="st22" d="M700.9,97.9c0,0,1.4,4-0.1,4c-1.5,0.1-4.4-7.3-4.4-7.3L700.9,97.9z"/>
				<path class="st44" d="M696.4,94.6c0,0,4.5,3.2,0.5,15.3l4.8,2.1c0,0-13.2,12.9-23.2,27.8c0,0-15.8-5.4-14.7-10
					c1.1-4.6,9.9-13.6,17.6-25.6C681.5,104.2,690.4,88.7,696.4,94.6z"/>
				<path class="st44" d="M678.6,139.9c0,0,1,23,0.6,30.3c-0.5,8.3-5,34.6-5,34.6h-4c0,0,0.4-26.5-0.1-34.6
					c-0.4-6.2-3.4-16.7-5-26.6c-2.6-9.7-1.2-13.8-1.2-13.8S671.9,125.1,678.6,139.9z"/>
				<path class="st45" d="M653.9,204.2c0,0-1.5,2.1,4.6,2.2c8,0.1,9.5-1.7-0.2-2.2L653.9,204.2z"/>
				<g>
					<path class="st46" d="M693.3,111.3l6.6,3c-4,4.9-13.6,14-21.3,25.5v-6.7C678.6,133.1,689.5,118.9,693.3,111.3z"/>
				</g>
				<path class="st47" d="M686,104.4c0,0-3.3,16.9-2.4,21.8c1.3,6.7,12.9,22,12.9,22l1.8-1c0,0-7.7-14.8-8.3-20.8
					c-0.5-5,3.3-21.8,3.3-21.8L686,104.4z"/>
				<path class="st23" d="M693.4,110l-9.8-3.3c0,0,4.1-14.4,10-12C699.6,97.1,693.4,110,693.4,110z"/>
				<g>
					<g>
						<path class="st23" d="M697.3,144.4c0.8,1.4,1.4,2.3,1.4,2.3l-2.4,1.6c0,0-0.6-0.8-1.7-2L697.3,144.4z"/>
					</g>
					<path class="st23" d="M698.7,146.7c0,0,4.5,1.5,5.2,3.2c0.7,1.7-3.7,2.2-5.2,1.3c-1.6-0.9-1.8-1.5-2.4-3
						C695.6,146.8,698.7,146.7,698.7,146.7z"/>
					<path class="st23" d="M703.7,149.7c0,0,2.8,4.2,2.2,4.8c-0.7,0.6-2.7-3.4-2.7-3.4L703.7,149.7z"/>
					<path class="st23" d="M702.9,151c0,0,2.2,4.1,1.5,4.7c-0.7,0.6-2.7-4.3-2.7-4.3L702.9,151z"/>
					<path class="st23" d="M701.3,150.9c0,0,2,4.2,1.3,4.8c-0.7,0.5-2.5-4.5-2.5-4.5L701.3,150.9z"/>
					<path class="st23" d="M699.7,150.7c0,0,1.6,4,0.9,4.4c-0.7,0.5-2-4.2-2-4.2L699.7,150.7z"/>
					<path class="st23" d="M698.4,146.6c0,0,5.1,1.1,6.1,1.2c0,0,1,1-1.9,0.6C701.5,148.3,698.4,146.6,698.4,146.6z"/>
				</g>
				<path class="st48" d="M690.5,95c-3.5,3.2-5.7,10.9-5.7,10.9l9,3c-0.3,0.7-0.5,1.1-0.5,1.1l-9.8-3.3
					C683.6,106.8,686.3,97.2,690.5,95z"/>
				<g>
					<path class="st47" d="M718.7,90.8c0,0-4.4,4.5-8.4,7.1c-0.1,0.6-0.7,0.6-0.8,0.5c-0.1,0.1-0.2,0.1-0.3,0.2
						c-0.1,0.4-0.5,0.4-0.7,0.3c-1.6,0.8-3,1-3.8,0.3c-2.1-1.8-2.8-4.8-2.4-7.1c0.2-1.2,1.1-3.1,1.1-3.1s-0.5-5.8,2.4-7.5
						C708.6,79.8,718.7,90.8,718.7,90.8z"/>
					<path class="st49" d="M701.9,90.1c-0.3,0.3-1-0.8-1-0.8s1.3-0.2,1.5-0.8c0.2-0.6,0.2-2,1.4-4.8c2.2-1.7,12.8-5.1,13,1.8
						c0.1,6.9,3.3,7.3,3.3,7.3s-3,2.9-6.5-6c0,0-3.1,1.2-4.3,0.6l1.1-1.3c0,0-2.1-0.8-3.5,0.7l-3.4,2
						C703.5,88.9,702.3,89.8,701.9,90.1z"/>
					<path class="st50" d="M703.6,85.8c-1,1.1-0.8,2.9-0.1,3.6c0.7,0.7,1.7-0.1,2.7-1.2c1-1.1,1.3-2.5,0.5-3.2
						C706.1,84.4,704.7,84.7,703.6,85.8z"/>
					<path class="st22" d="M704.2,86.3c-0.6,0.6-0.5,1.7-0.1,2.1c0.4,0.4,1,0,1.6-0.7c0.6-0.6,0.7-1.5,0.3-1.8
						C705.6,85.5,704.8,85.7,704.2,86.3z"/>
					<g>
						<path class="st51" d="M713.5,81.5c-1.5,0.6-3.4-0.6-4.2-2.6c-0.2-0.5-0.3-1.1-0.4-1.6c1.9-0.9,4-1.1,6.1,0.6
							C715.3,79.5,714.7,81,713.5,81.5z"/>
					</g>
					<path class="st52" d="M711.9,92.6c-0.4,0.5-0.5,1-0.3,1.2c0.3,0.2,0.8,0,1.2-0.5c0.4-0.5,0.5-1,0.3-1.2
						C712.9,91.9,712.3,92.1,711.9,92.6z"/>
					<path class="st49" d="M714.7,93.1c0,0-0.8-1.8-3.3-2.7l0.2-0.4c0,0,2.2,0.3,4,2.3L714.7,93.1z"/>
					<path class="st47" d="M710.5,95.1c-0.5,0.5-0.3,1.5,0.5,2.4c0.8,0.8,2.2,0.8,2.7,0.3c0.5-0.5-1.3-1.2,0.3-2.6
						C713.3,94.3,711,94.6,710.5,95.1z"/>
					<path class="st50" d="M703.3,89l1.5-0.1l2-2c1.3-1.5,3.5-0.7,3.5-0.7l-1.1,1.3c1.3,0.6,4.3-0.6,4.3-0.6
						c0.7,1.8,1.3,3.1,2.1,4.1c0,0-2-2.1-2.5-3.4c0,0-3.5,0.8-4.8-0.2l1-0.9c-4.1,1.9-6.1,5.4-6.4,6.7c-0.5,2.3,0.1,4.2,2.2,6
						c0.4,0.4,1.3,0.5,2,0.4c-1,0.3-1.9,0.2-2.5-0.3c-2.3-2-3.3-5.4-2.3-7.9C702.6,90.5,703.3,89,703.3,89z"/>
					<g>
						<path class="st22" d="M707.6,95.5l-0.7-0.1c-0.1,0-0.2-0.1-0.2-0.2c0-0.1,0.1-0.2,0.2-0.2c0,0,1.8,0.1,1.8,0.1
							c0,0.2-0.8,0.2-0.8,0.3c0.2,1.4,1,2.6,1.5,3c-0.1,0.1-0.2,0.1-0.4,0.2C708.6,98.1,707.8,96.9,707.6,95.5z"/>
					</g>
					<g>
						<path class="st22" d="M707.4,97.9c0.1,0,0.2,0,0.3,0.1c0.2,0.4,0.7,0.8,0.7,0.9c0,0,0,0,0,0.1c-0.1,0.1-0.7,0.3-0.8,0.3
							C707.5,99.2,707.2,98,707.4,97.9z"/>
					</g>
					<path class="st50" d="M711.5,97.1c0.6,0.6,1.6,0.7,2.2,0.5c0,0,0,0,0,0c-0.5,0.5-1.9,0.5-2.7-0.3
						C711.1,97.4,710.6,96.7,711.5,97.1z"/>
				</g>
				<path class="st46" d="M679.1,170.2c-0.5,8.3-5,34.6-5,34.6h-4c0,0,0.4-26.5-0.1-34.6c-0.4-6.2-3.4-16.7-5-26.6
					c-2.6-9.7-1.2-13.8-1.2-13.8S672.1,183.9,679.1,170.2z"/>
				<polygon class="st53" points="663.2,127.7 680.5,138.7 683.1,135.1 665.8,124.1 				"/>
				<polygon class="st54" points="663.2,127.7 680.5,138.7 680.9,138.2 663.7,127.1 				"/>
				
					<rect x="666.4" y="127.7" transform="matrix(0.5711 -0.8209 0.8209 0.5711 181.5414 603.7618)" class="st54" width="4.3" height="0.9"/>
				<path class="st44" d="M703.8,83.7c0,0,7.9,1.8,14.9,7.8c0,0,2.9-9.6,2.4-11.2c-0.5-1.6-9.7-5.3-13-4.2
					C705.2,78.7,703.8,83.7,703.8,83.7z"/>
				<path class="st43" d="M703.8,83.7c0,0,17.9,3.1,20.1,8.3c0,0-0.1,1.9-5.5-0.5C718.3,91.6,714.5,87.1,703.8,83.7z"/>
				<path class="st45" d="M670.1,204.2c0,0-1.5,2.1,4.6,2.2c8,0.1,9.5-1.7-0.2-2.2L670.1,204.2z"/>
			</g>
			<g>
				<g class="st55">
					<path class="st7" d="M1012.4,19.1c-3.4,6.6-1.3,14.6,4.8,17.7c6.1,3.1,13.8,0.3,17.2-6.3c3.4-6.6,1.3-14.6-4.8-17.7
						C1023.5,9.7,1015.8,12.5,1012.4,19.1z"/>
				</g>
				<path class="st56" d="M1015.8,36.8c6.1,3.1,13.8,0.3,17.2-6.3c3.4-6.6,1.3-14.5-4.8-17.7c-6.1-3.1-13.8-0.3-17.2,6.3
					C1007.6,25.7,1009.7,33.6,1015.8,36.8z M1012,19.6c3.1-6,10.1-8.6,15.6-5.7c5.5,2.8,7.5,10,4.3,16c-3.1,6-10.1,8.6-15.6,5.7
					C1010.9,32.8,1008.9,25.6,1012,19.6z"/>
				<path class="st57" d="M1016.4,35.7c5.5,2.8,12.5,0.3,15.6-5.7c3.1-6,1.2-13.2-4.3-16c-5.5-2.8-12.5-0.3-15.6,5.7
					C1008.9,25.6,1010.9,32.8,1016.4,35.7z M1013.4,20.3c2.7-5.2,8.7-7.4,13.5-4.9c4.8,2.5,6.4,8.7,3.8,13.8s-8.7,7.4-13.5,4.9
					C1012.4,31.7,1010.7,25.5,1013.4,20.3z"/>
				<g>
					<path class="st56" d="M1022.8,22.8C1022.7,22.9,1022.7,22.9,1022.8,22.8l0,0.2h-1.9c0,0-1.1-5.2-3.5-7.9
						c2.4-1.4,5.2-1.9,7.9-1.2c0.1,0,0.1,0.1,0.2,0.1C1025.4,14,1023.3,16.8,1022.8,22.8z"/>
					<path class="st56" d="M1020.9,26.4C1021,26.4,1021,26.3,1020.9,26.4l0-0.2h1.9c0,0,1.2,5.6,3.7,8.2c0,0,0,0.1-0.1,0.2
						c-3.4,1.9-7,1.6-8.4,0.8C1018.1,35.4,1020.4,32.4,1020.9,26.4z"/>
					<path class="st56" d="M1020.8,23l-0.9,1.7c0,0,0,0-0.1,0c-0.4-0.1-5.1-1.4-8.5-0.6c0.2-1.4,0.6-2.8,1.3-4.1
						c0.5-1,1.2-1.9,1.9-2.7C1015.4,18.4,1017.2,20.7,1020.8,23z"/>
					<path class="st56" d="M1022.8,26.2l0.9-1.7c0,0,0,0,0.1,0c0.4,0.1,5.5,1.5,8.8,0.6c-0.1,1.5-0.6,3.1-1.3,4.6
						c-0.5,1-1.2,1.9-1.9,2.7C1028.8,31.4,1027,28.8,1022.8,26.2z"/>
					<path class="st56" d="M1019.9,24.7C1020,24.7,1020,24.7,1019.9,24.7l1,1.5l0.1,0.1c0,0,0,0-0.1,0.1c-0.6,0.6-4.2,4.6-5,7.8
						c-0.4-0.2-3.7-1.5-4.5-7C1012.6,27.2,1015.7,26.9,1019.9,24.7C1019.9,24.7,1019.9,24.7,1019.9,24.7z"/>
					<path class="st56" d="M1023.8,24.5C1023.8,24.5,1023.8,24.5,1023.8,24.5C1023.7,24.5,1023.7,24.5,1023.8,24.5l-1.1-1.5
						l-0.1-0.1c0,0,0,0,0.1-0.1c0.6-0.6,4.2-4.5,5-7.8c0.7,0.5,3.8,1.4,4.8,6.9C1031.6,22,1028.4,22.1,1023.8,24.5z"/>
				</g>
				<path class="st57" d="M1019.4,23.5c-0.8,1.5-0.3,3.4,1.1,4.1c1.4,0.7,3.2,0.1,4-1.5c0.8-1.5,0.3-3.4-1.1-4.1
					C1022,21.3,1020.2,21.9,1019.4,23.5z"/>
				<path class="st56" d="M1019.9,23.7c-0.7,1.3-0.2,2.8,0.9,3.4c1.2,0.6,2.7,0.1,3.3-1.2c0.7-1.3,0.2-2.8-0.9-3.4
					C1022,21.9,1020.5,22.4,1019.9,23.7z"/>
				<path class="st58" d="M1021.4,23.6c-0.3,0.6-0.1,1.2,0.4,1.5c0.5,0.3,1.2,0,1.5-0.5c0.3-0.6,0.1-1.2-0.4-1.5
					C1022.4,22.8,1021.7,23.1,1021.4,23.6z"/>
				<g>
					<path class="st58" d="M1032,30.8c3.3-6.4,1.2-14-4.6-17.1c-3.9-2-8.4-1.5-12,0.9c3.7-2.8,8.6-3.5,12.7-1.4
						c5.9,3,7.9,10.7,4.6,17.1c-1.1,2.2-2.7,3.9-4.6,5.1C1029.6,34.2,1031,32.7,1032,30.8z"/>
				</g>
				<g>
					<path class="st59" d="M1021.5,18c-0.8,0.1-1.7-2.7-2-3.9c0.9-0.3,1.9-0.5,2.9-0.5C1022.4,14.7,1022.3,17.9,1021.5,18z"/>
					<path class="st59" d="M1028,27.7c0.3-0.7,2.8-0.2,4.1,0.1c-0.2,0.6-0.4,1.2-0.8,1.8c-0.1,0.2-0.3,0.5-0.4,0.7
						C1029.7,29.6,1027.7,28.3,1028,27.7z"/>
					<path class="st59" d="M1027.3,20.8c-0.5-0.7,2-3.5,2.7-4.2c0.6,0.6,1.2,1.4,1.7,2.5C1030.8,19.6,1027.8,21.5,1027.3,20.8z"/>
				</g>
				<g>
					<path class="st59" d="M1022.1,31.5c0.8-0.1,1.6,3,1.9,4.1c-1,0.3-2,0.4-2.9,0.4C1021.2,35,1021.3,31.6,1022.1,31.5z"/>
				</g>
				<g>
					<path class="st59" d="M1016.4,28.7c0.6,0.7-2.2,3.6-2.6,4.1c-0.6-0.6-1.1-1.4-1.6-2.5C1013.2,29.6,1015.9,28,1016.4,28.7z"/>
				</g>
				<g>
					<path class="st59" d="M1015.8,21.9c-0.3,0.7-2.6,0.3-3.9,0c0.2-0.7,0.5-1.3,0.8-2c0.1-0.2,0.2-0.4,0.3-0.5
						C1014.2,20.1,1016.1,21.3,1015.8,21.9z"/>
				</g>
			</g>
			<g>
				<g class="st55">
					<path class="st7" d="M1011.3,64c-3.4,6.6-1.3,14.6,4.8,17.7c6.1,3.1,13.8,0.3,17.2-6.3c3.4-6.6,1.3-14.6-4.8-17.7
						C1022.4,54.5,1014.7,57.3,1011.3,64z"/>
				</g>
				<path class="st60" d="M1014.7,81.7c6.1,3.1,13.8,0.3,17.2-6.3c3.4-6.6,1.3-14.5-4.8-17.7c-6.1-3.1-13.8-0.3-17.2,6.3
					C1006.5,70.6,1008.6,78.5,1014.7,81.7z M1010.9,64.5c3.1-6,10.1-8.6,15.6-5.7c5.5,2.8,7.5,10,4.3,16s-10.1,8.6-15.6,5.7
					C1009.8,77.7,1007.8,70.5,1010.9,64.5z"/>
				<path class="st61" d="M1015.3,80.5c5.5,2.8,12.5,0.3,15.6-5.7s1.2-13.2-4.3-16c-5.5-2.8-12.5-0.3-15.6,5.7
					C1007.8,70.5,1009.8,77.7,1015.3,80.5z M1012.3,65.2c2.7-5.2,8.7-7.4,13.5-4.9s6.4,8.7,3.8,13.8c-2.7,5.2-8.7,7.4-13.5,4.9
					C1011.3,76.6,1009.6,70.4,1012.3,65.2z"/>
				<g>
					<path class="st60" d="M1021.7,67.7C1021.6,67.7,1021.6,67.8,1021.7,67.7l0,0.2h-1.9c0,0-1.1-5.2-3.5-7.9
						c2.4-1.4,5.2-1.9,7.9-1.2c0.1,0,0.1,0.1,0.2,0.1C1024.2,58.8,1022.2,61.7,1021.7,67.7z"/>
					<path class="st60" d="M1019.8,71.3C1019.9,71.2,1019.9,71.2,1019.8,71.3l0-0.2h1.9c0,0,1.2,5.6,3.7,8.2c0,0,0,0.1-0.1,0.2
						c-3.4,1.9-7,1.6-8.4,0.8C1017,80.3,1019.3,77.3,1019.8,71.3z"/>
					<path class="st60" d="M1019.7,67.9l-0.9,1.7c0,0,0,0-0.1,0c-0.4-0.1-5.1-1.4-8.5-0.6c0.2-1.4,0.6-2.8,1.3-4.1
						c0.5-1,1.2-1.9,1.9-2.7C1014.2,63.3,1016.1,65.6,1019.7,67.9z"/>
					<path class="st60" d="M1021.7,71.1l0.9-1.7c0,0,0,0,0.1,0c0.4,0.1,5.5,1.5,8.8,0.6c-0.1,1.5-0.6,3.1-1.3,4.6
						c-0.5,1-1.2,1.9-1.9,2.7C1027.7,76.3,1025.9,73.7,1021.7,71.1z"/>
					<path class="st60" d="M1018.8,69.6C1018.8,69.6,1018.9,69.6,1018.8,69.6l1,1.5l0.1,0.1c0,0,0,0-0.1,0.1c-0.6,0.6-4.2,4.6-5,7.8
						c-0.4-0.2-3.7-1.5-4.5-7C1011.5,72.1,1014.5,71.8,1018.8,69.6C1018.8,69.6,1018.8,69.6,1018.8,69.6z"/>
					<path class="st60" d="M1022.7,69.4C1022.7,69.4,1022.7,69.4,1022.7,69.4C1022.6,69.4,1022.6,69.4,1022.7,69.4l-1.1-1.5
						l-0.1-0.1c0,0,0,0,0.1-0.1c0.6-0.6,4.2-4.5,5-7.8c0.7,0.5,3.8,1.4,4.8,6.9C1030.5,66.9,1027.3,67,1022.7,69.4z"/>
				</g>
				<path class="st61" d="M1018.3,68.3c-0.8,1.5-0.3,3.4,1.1,4.1c1.4,0.7,3.2,0.1,4-1.5c0.8-1.6,0.3-3.4-1.1-4.1
					C1020.9,66.1,1019.1,66.8,1018.3,68.3z"/>
				<path class="st60" d="M1018.8,68.6c-0.7,1.3-0.2,2.8,0.9,3.4c1.2,0.6,2.7,0.1,3.3-1.2c0.7-1.3,0.2-2.8-0.9-3.4
					C1020.9,66.7,1019.4,67.3,1018.8,68.6z"/>
				<path class="st62" d="M1020.3,68.5c-0.3,0.6-0.1,1.2,0.4,1.5c0.5,0.3,1.2,0,1.5-0.5c0.3-0.6,0.1-1.2-0.4-1.5
					C1021.3,67.7,1020.6,67.9,1020.3,68.5z"/>
				<g>
					<path class="st62" d="M1030.8,75.6c3.3-6.4,1.2-14-4.6-17.1c-3.9-2-8.4-1.5-12,0.9c3.7-2.8,8.6-3.5,12.7-1.4
						c5.9,3,7.9,10.7,4.6,17.1c-1.1,2.2-2.7,3.9-4.6,5.1C1028.5,79.1,1029.9,77.5,1030.8,75.6z"/>
				</g>
				<g>
					<path class="st61" d="M1020.4,62.9c-0.8,0.1-1.7-2.7-2-3.9c0.9-0.3,1.9-0.5,2.9-0.5C1021.3,59.6,1021.2,62.8,1020.4,62.9z"/>
					<path class="st61" d="M1026.9,72.5c0.3-0.7,2.8-0.2,4.1,0.1c-0.2,0.6-0.4,1.2-0.8,1.8c-0.1,0.2-0.3,0.5-0.4,0.7
						C1028.6,74.5,1026.6,73.2,1026.9,72.5z"/>
					<path class="st61" d="M1026.2,65.7c-0.5-0.7,2-3.5,2.7-4.2c0.6,0.6,1.2,1.4,1.7,2.5C1029.7,64.5,1026.7,66.3,1026.2,65.7z"/>
				</g>
				<g>
					<path class="st61" d="M1021,76.4c0.8-0.1,1.6,3,1.9,4.1c-1,0.3-2,0.4-2.9,0.4C1020,79.9,1020.2,76.4,1021,76.4z"/>
				</g>
				<g>
					<path class="st61" d="M1015.3,73.5c0.6,0.7-2.2,3.6-2.6,4.1c-0.6-0.6-1.1-1.4-1.6-2.5C1012.1,74.5,1014.8,72.9,1015.3,73.5z"/>
				</g>
				<g>
					<path class="st61" d="M1014.7,66.8c-0.3,0.7-2.6,0.3-3.9,0c0.2-0.7,0.5-1.3,0.8-2c0.1-0.2,0.2-0.4,0.3-0.5
						C1013.1,65,1015,66.2,1014.7,66.8z"/>
				</g>
			</g>
			<g>
				<g class="st55">
					<path class="st7" d="M976.1,15c-4.1,8-1.5,17.5,5.8,21.3c7.3,3.8,16.6,0.4,20.7-7.6c4.1-8,1.5-17.5-5.8-21.3
						C989.5,3.6,980.2,7,976.1,15z"/>
				</g>
				<path class="st56" d="M980.2,36.4c7.3,3.8,16.6,0.4,20.7-7.6c4.1-8,1.5-17.5-5.8-21.3s-16.6-0.4-20.7,7.6
					C970.3,23.1,972.9,32.6,980.2,36.4z M975.7,15.8c3.7-7.2,12.1-10.3,18.8-6.9c6.6,3.4,9,12.1,5.2,19.3
					c-3.7,7.2-12.1,10.3-18.8,6.9C974.3,31.6,971.9,23,975.7,15.8z"/>
				<path class="st57" d="M980.9,35.1c6.6,3.5,15,0.4,18.8-6.9c3.7-7.3,1.4-16-5.2-19.4c-6.6-3.5-15-0.4-18.8,6.9
					C971.9,22.9,974.3,31.6,980.9,35.1z M977.3,16.5c3.2-6.3,10.5-9,16.2-6c5.7,3,7.8,10.5,4.5,16.8c-3.2,6.3-10.5,9-16.2,6
					C976.1,30.3,974.1,22.8,977.3,16.5z"/>
				<path class="st56" d="M983,23.7c-2.8,2.8-4.8,5.8-5.6,6.9c0.4,0.6,0.9,1.1,1.5,1.6c1.9-1.2,4.9-3.9,6.8-5.7
					c0,3.9,0.6,7.4,0.9,8.8c0.8,0,1.5,0,2.3-0.2c0.5-2.3,0.6-6.1,0.7-8.6c2.3,2.3,4.8,4.1,6.2,5.1c0.6-0.6,1.2-1.2,1.7-1.9
					c-1.4-1.9-3.6-4.3-5.1-5.9c3.3,0,6.3-0.5,8-0.8c0.1-0.8,0.2-1.7,0.2-2.5c-2.3-0.4-5.8-0.5-8.1-0.6c2.8-2.8,4.8-5.8,5.6-6.9
					c-0.4-0.6-0.9-1.1-1.5-1.6c-1.9,1.2-4.9,3.9-6.8,5.7c0-3.9-0.6-7.4-0.9-8.8c-0.8,0-1.5,0-2.3,0.2c-0.5,2.3-0.6,6.1-0.7,8.6
					c-2.3-2.3-4.8-4.1-6.2-5.1c-0.6,0.6-1.2,1.2-1.7,1.9c1.4,1.9,3.6,4.3,5.1,5.9c-3.3,0-6.3,0.5-8,0.8c-0.1,0.8-0.2,1.7-0.2,2.5
					C977.2,23.5,980.7,23.6,983,23.7z M985.4,22.7v-1.9l1.3-1.3h1.9l1.3,1.3v1.9l-1.3,1.3h-1.9L985.4,22.7z"/>
				<g>
					<path class="st59" d="M986.6,23.9l-7.9,8.1c-0.3-0.3-0.6-0.6-0.9-1l7.8-8L986.6,23.9z"/>
					<path class="st59" d="M985.4,22.5l-10.5,0.1c0-0.4,0-0.9,0.1-1.3l10.4-0.1V22.5z"/>
					<path class="st59" d="M988.4,24l0.1,11c-0.4,0.1-0.9,0.1-1.3,0.1L987,24H988.4z"/>
					<path class="st59" d="M988.8,19.7l7.9-8.1c0.3,0.3,0.6,0.6,0.9,1l-7.8,8L988.8,19.7z"/>
					<path class="st59" d="M985.6,20.7l-7.4-7.2c0.3-0.3,0.6-0.7,0.9-1l7.4,7.2L985.6,20.7z"/>
					<path class="st59" d="M987,19.5l-0.1-11c0.4-0.1,0.9-0.1,1.3-0.1l0.1,11.1H987z"/>
					<path class="st59" d="M989.7,22.9l7.4,7.2c-0.3,0.3-0.6,0.7-0.9,1l-7.4-7.2L989.7,22.9z"/>
					<path class="st59" d="M989.9,21.1l10.5-0.1c0,0.4,0,0.9-0.1,1.3l-10.4,0.1V21.1z"/>
				</g>
				<path class="st57" d="M984.6,20.2c-1,1.9-0.4,4.1,1.4,5c1.7,0.9,3.9,0.1,4.8-1.8c1-1.9,0.4-4.1-1.4-5
					C987.7,17.6,985.5,18.4,984.6,20.2z"/>
				<path class="st56" d="M985.1,20.5c-0.8,1.5-0.3,3.4,1.1,4.1c1.4,0.7,3.2,0.1,4-1.5c0.8-1.5,0.3-3.4-1.1-4.1
					C987.7,18.3,985.9,19,985.1,20.5z"/>
				<path class="st58" d="M987,20.4c-0.4,0.7-0.1,1.5,0.5,1.8c0.6,0.3,1.4,0,1.8-0.7c0.4-0.7,0.1-1.5-0.5-1.8
					C988.1,19.5,987.4,19.8,987,20.4z"/>
				<g>
					<path class="st58" d="M999.7,29c4-7.7,1.5-16.9-5.6-20.5c-4.7-2.4-10.1-1.8-14.5,1.1c4.4-3.4,10.3-4.2,15.3-1.7
						c7.1,3.7,9.6,12.8,5.6,20.5c-1.4,2.6-3.3,4.7-5.5,6.2C996.8,33.2,998.5,31.3,999.7,29z"/>
				</g>
			</g>
			<path class="st7" d="M949.4,218.3c0-0.7,14.2-1.3,31.7-1.3c17.5,0,31.7,0.6,31.7,1.3c0,0.7-14.2,1.3-31.7,1.3
				C963.6,219.7,949.4,219.1,949.4,218.3z"/>
			<path class="st7" d="M781.3,223.6c0-0.7,24.8-1.3,55.3-1.3c30.5,0,55.3,0.6,55.3,1.3c0,0.7-24.8,1.3-55.3,1.3
				C806,224.9,781.3,224.3,781.3,223.6z"/>
			<g>
				<rect x="965.5" y="173" class="st63" width="74.3" height="25.8"/>
				<rect x="965.5" y="128.9" class="st63" width="74.3" height="12.9"/>
				<rect x="965.5" y="83.6" class="st63" width="74.3" height="12.9"/>
				<rect x="965.5" y="38.2" class="st63" width="74.3" height="12.9"/>
				<rect x="970" y="38.2" class="st64" width="69.8" height="2.6"/>
				<rect x="970" y="83.4" class="st64" width="69.8" height="2.6"/>
				<rect x="970" y="128.7" class="st64" width="69.8" height="5.2"/>
				<rect x="970" y="173" class="st64" width="69.8" height="5.2"/>
				<rect x="965.5" y="31.6" class="st65" width="4.5" height="167.2"/>
				<rect x="965.5" y="195.9" class="st65" width="74.3" height="2.9"/>
				<rect x="970" y="133.6" class="st65" width="69.8" height="2.3"/>
				<rect x="970" y="86.1" class="st65" width="69.8" height="2.3"/>
				<rect x="970" y="40.8" class="st65" width="69.8" height="2.3"/>
			</g>
			<g>
				<path class="st23" d="M969.2,123.6c0,0,1.3-1.1,1.8-1.2c0.5-0.1,1.6-0.4,1.6-0.4l-0.8,1.5L969.2,123.6z"/>
				<path class="st22" d="M974.6,104.4c0,0-25.4,20.6-21,26.7c2.4,3.2,14.2-4,14.2-4l0.2-2.9c0,0-9,4.6-10.1,2.9
					c-0.6-1,18.1-11.6,18.1-11.6L974.6,104.4z"/>
				<path class="st44" d="M998,216.6c0,0-1.7-25-1.3-32.9c0.4-9.5,1.2-37.1,1.2-37.1l2.8-41.8c0,0-3-3.4-21.2-2.3
					c-1.5,0.1-2.1,0.1-3.5,0.3c-2.4,0.8-1.3,41.2-1.3,41.2s0.3,29.5,0.3,39.7c-0.1,8,2.5,32.9,2.5,32.9h3.6c0,0-0.5-25.1,0.4-33.1
					c0.7-6.4,1.9-24.5,1.9-24.5h5.7c0,0,1.5,18.9,1.7,25.6c0.3,7.8,4.1,32,4.1,32H998z"/>
				<g>
					<path class="st43" d="M996.7,183.6c0.4-9.5,1.2-37.1,1.2-37.1s-1.6,27.5-2,37.1c0,5.7-4.6,4.4-5.1,1.7
						c0.5,8.5,4.1,31.2,4.1,31.2h3.2C998,216.6,996.3,191.6,996.7,183.6z"/>
					<path class="st43" d="M974.9,184.6c0.1,8.8,2.5,32,2.5,32h3.6c0,0-0.5-25.1,0.4-33.1c0.7-6.4,1.9-24.5,1.9-24.5
						s-1.7,17.6-2.3,24.1C980.6,189.2,975.3,188.5,974.9,184.6z"/>
				</g>
				<path class="st23" d="M976,102.8c-1.2,0-5.5,2.3-12.7,9.8l11.3,12.3C974.6,124.9,974.2,104.8,976,102.8z"/>
				<polygon class="st66" points="965.8,125.2 965.5,128.4 967.9,127.2 968.6,123.9 				"/>
				<path class="st46" d="M993.1,146.6c7.5-10.2-2.1-31.1-15.9-22.7C960.5,133.9,980.9,163.2,993.1,146.6z"/>
				<g>
					<polygon class="st53" points="999.8,150.9 973.4,150.3 973.3,146.4 999.7,147 					"/>
					<path class="st67" d="M982.1,145.8l0.1,5.6l7.4,0.1l-0.1-5.6L982.1,145.8z M988.5,150.7l-5.2-0.1l-0.1-3.9l5.2,0.1L988.5,150.7
						z"/>
					<path class="st53" d="M998.7,150.9l-0.1,11.6c0,0,0.5,0,2.7,0c2.3-2.1,0.2-14,0.2-14l-2.6,0l0,2.5L998.7,150.9z"/>
					<path class="st53" d="M999.3,149.1l1.9,0l-0.1,3.9l1.7,0l-0.5-4.5c-0.1-0.6-0.5-1-1.1-1l-2,0L999.3,149.1z"/>
					<path class="st68" d="M1002.2,152.9l-1,0c0,0-0.2-4.2-0.8-4.2l-1.6,0l-0.1,13.7l2.7,0C1001.3,162.5,1003,161.8,1002.2,152.9z"
						/>
					<path class="st68" d="M1002.9,150.8c0.1,0.5,0,1-0.2,1c-0.2,0-0.3-0.4-0.4-0.9c-0.1-0.5,0-1,0.2-1
						C1002.7,149.9,1002.8,150.3,1002.9,150.8z"/>
				</g>
				<path class="st47" d="M1005.6,117c0,0,4.8,17.1,1.9,21.7c-3.2,5.1-20.1,9.4-20.1,9.4v-2.3c0,0,13.5-6.5,15.6-10.3
					c1.4-2.6-2.3-14.2-2.3-14.2L1005.6,117z"/>
				<path class="st48" d="M976,102.8c-2.8,0.5-0.9,11.1-4.9,14.6c-1.6,1.3-5.2-3.1-7.8-4.8l11.3,12.3
					C974.6,124.9,974.2,104.8,976,102.8z"/>
				<path class="st23" d="M981.2,149c0,0-4-1.3-3.7-2.2s4,0.6,4,0.6L981.2,149z"/>
				<path class="st23" d="M1000.7,104.8c0,0,5.7,7.1,7.9,17.3l-9.3,3.5L1000.7,104.8z"/>
				<path class="st66" d="M977.8,146.9c0,0,1.7,1,3,1.1c0,0,0.3-0.4,1.4-0.8L977.8,146.9z"/>
				<g>
					<path class="st40" d="M968.6,132.6c0.2,8.2,6,14.7,13.1,14.7c7.1-0.1,12.7-6.7,12.6-14.9c-0.2-8.2-6-14.7-13.1-14.7
						C974,117.8,968.4,124.5,968.6,132.6z"/>
					<g>
						<path class="st38" d="M981.1,117.8c-6.3,0-11.5,5.3-12.4,12.3H994C992.9,123,987.5,117.7,981.1,117.8z"/>
					</g>
					<path class="st38" d="M973.9,132.6c0.1,4.9,3.6,8.9,7.7,8.9c4.2,0,7.4-4.1,7.3-9c-0.1-4.9-3.6-8.9-7.7-8.9
						C977,123.6,973.8,127.7,973.9,132.6z"/>
					<path class="st41" d="M974.2,132.6c0.1,4.7,3.4,8.5,7.4,8.5c4,0,7.1-3.9,7-8.6c-0.1-4.7-3.4-8.5-7.4-8.5
						C977.2,124,974.1,127.9,974.2,132.6z"/>
					<path class="st38" d="M982.3,145.1c-7.1,0.1-13-6.5-13.1-14.7c0-1.3,0.1-2.6,0.4-3.8c-0.7,1.8-1,3.9-1,6
						c0.2,8.2,6,14.7,13.1,14.7c5.9,0,10.8-4.7,12.2-11C992,141.5,987.5,145.1,982.3,145.1z"/>
					<path class="st42" d="M982.1,139.7c-4,0-7.3-3.8-7.4-8.5c0-1,0.1-2,0.4-3c-0.6,1.3-0.9,2.7-0.9,4.3c0.1,4.7,3.4,8.5,7.4,8.5
						c3.1,0,5.6-2.4,6.6-5.6C987,138,984.7,139.7,982.1,139.7z"/>
					<path class="st29" d="M981.1,129.9c-0.3,1.8-1.6,3.2-2.8,2.9c-1.2-0.2-1.9-1.9-1.6-3.8c0.3-1.8,1.6-3.2,2.8-2.9
						C980.8,126.3,981.5,128,981.1,129.9z"/>
				</g>
				<path class="st23" d="M967.8,127.1c0,0,0.6,2.2,1.8,1.6c1.3-0.6,3.3-5,2.5-5.4c-1.2-0.6-2.3,0-3.3,0.5
					C968,124.2,967.4,125.1,967.8,127.1z"/>
				<g>
					<path class="st23" d="M995.2,116.5l2.2-13.1c-3.1-0.8-7.2-1.6-17.9-0.8c0,0-2.9,2.6-1.7,13.4C979,116,995.2,116.5,995.2,116.5z
						"/>
				</g>
				<rect x="984.2" y="96.1" class="st22" width="6.5" height="8.7"/>
				<g>
					<path class="st22" d="M986.5,108.2c3.5,0,7.2-2.3,7.2-4.2c0-0.5-0.2-1-0.6-1.4c-2.8-0.3-6.5-0.4-11.5-0.2
						c-0.5,0.5-0.7,1-0.7,1.6C980.9,105.9,983,108.2,986.5,108.2z"/>
				</g>
				<path class="st45" d="M980.6,216.3c0,0,1.4,2-4.4,2.1c-7.6,0.1-9.1-1.6,0.1-2.1L980.6,216.3z"/>
				<path class="st45" d="M997.6,216.3c0,0,1.4,2-4.4,2.1c-7.6,0.1-9.1-1.6,0.1-2.1L997.6,216.3z"/>
				<path class="st47" d="M979.5,89.8c0.1,6.3,2.2,11,5.8,11.1c1.4,0.2,4.8-2.6,5.2-3.1c0.4-0.5,0.4-2.7,0.4-2.7
					c0.2-5.8,0.4-15.1-3.6-15.2C983.4,79.7,979.5,83.7,979.5,89.8z"/>
				<path class="st52" d="M987.3,90.8c-0.1,0.6-0.4,1.1-0.8,1c-0.3,0-0.5-0.6-0.5-1.2c0.1-0.6,0.4-1.1,0.8-1
					C987.2,89.6,987.4,90.2,987.3,90.8z"/>
				<path class="st52" d="M980.6,90.8c0.1,0.6,0.5,1,0.8,0.9c0.3-0.1,0.5-0.6,0.4-1.2c-0.1-0.6-0.5-1-0.8-0.9
					C980.6,89.7,980.5,90.2,980.6,90.8z"/>
				<path class="st50" d="M985.3,94.3c0,0-1.7-0.3-2.7-0.9C982.6,93.3,983,95.6,985.3,94.3z"/>
				<path class="st69" d="M985.4,88.2c1.9,0.3,4,1,4,1l0-0.5c0,0-1.7-1.4-4.1-1.5L985.4,88.2z"/>
				<path class="st69" d="M982.1,88.2c-0.8,0.1-2,0.3-2.6,0.5c0,0-0.3-0.8,0-0.9c0.6-0.3,1.9-0.5,2.8-0.5L982.1,88.2z"/>
				<g>
					<path class="st70" d="M981.9,96c0,0,1.9,5.1,4.8,0.3C985.2,96.5,983,96.4,981.9,96z"/>
					<path class="st71" d="M982.4,96.1c0,0,0.2,0.4,0.5,0.5c0.2,0.1,2.2,0.5,3.8-0.4C986.7,96.3,984.7,96.5,982.4,96.1z"/>
				</g>
				<path class="st69" d="M982.4,78.9c0,0-3.9,5.5,1.3,5.5c0,0,5.3-1.6,6.3,1.4c1,3-0.3,6.6-0.3,6.6s0.8,0.3,1.3,1
					c0.3,0.4-0.5,3.7-0.3,3.9c0.1,0.1,2.7-3.2,3.6-6.3c1-3.8,0.4-9.3,0.4-9.3s-3.3-3.9-7.3-3.8C983.4,78.1,983.9,81.2,982.4,78.9z"
					/>
				<path class="st47" d="M990.5,92.7c0,1.4,0,2.5,0.8,2.5c0.8,0,2.1-1,2.2-2.4c0-1.4-0.6-2.5-1.4-2.5
					C991.2,90.3,990.5,91.4,990.5,92.7z"/>
				<path class="st22" d="M991.1,92.8c0,0.8,0,1.4,0.5,1.4c0.5,0,1.2-0.6,1.2-1.4c0-0.8-0.3-1.4-0.8-1.4
					C991.6,91.3,991.1,92,991.1,92.8z"/>
				<g>
					<path class="st72" d="M990.8,84.4c-0.1,1,1.7,1.8,4,2.2c0.1-2-0.1-3.8-0.1-4.5C992.5,82.5,990.9,83.4,990.8,84.4z"/>
				</g>
				<g>
					<path class="st72" d="M994.4,81.4c-0.8-0.9-3.7-3.6-7-3.5c-3.3,0.1-4.6,2-5.8,1.4c0.9,1,3.4,1.9,6.2,2.4
						C990.7,82.4,993.3,82.2,994.4,81.4z"/>
				</g>
				<path class="st44" d="M994.3,90.9c0,0-5.7-7.3-14.6-4.8c0,0,0.7-7.9,3.1-8.6c2.4-0.7,11.2-0.3,12.7,4.5
					C996,87.1,994.3,90.9,994.3,90.9z"/>
				<path class="st43" d="M992,88.7c0,0-3-8.7-12.6-7.1c0,0-5,1.8,0.6,4.5C979.9,86.2,984.3,84.1,992,88.7z"/>
				<path class="st43" d="M994.4,80.5c0,0-2.5-3.2-9.8-3C984.6,77.5,989.7,81.5,994.4,80.5z"/>
				<path class="st69" d="M987.4,86.6c0,0-7.9,0.4-7.4-1.6c0,0,0.5,0.5,1.2,0.3c0,0-0.5-0.9,0.5-1.5c0,0,0.7,1.7,1.9,1.6
					C983.5,85.3,986.1,85.3,987.4,86.6z"/>
				<path class="st48" d="M1001.6,118.6c-1.1-3.3-0.9-13.8-0.9-13.8l-1.4,20.8l9.3-3.5c-0.1-0.5-0.2-1.1-0.4-1.6
					C1008.2,120.5,1002.6,121.9,1001.6,118.6z"/>
				<path class="st46" d="M983.2,159c0,0-2.1-0.4-1.7-0.8c0.4-0.4,8.6-0.8,9,0c0.2,0.4-1.6,0.8-1.6,0.8H983.2L983.2,159z"/>
				<path class="st23" d="M987.5,145.6c0,0-1.1,0.2-2.5,0.5c-1.8,1.2-4.6,1.2-4.7,2.1c0,0.7,1.6,1.3,3.2,1.2c2-0.2,4-1.2,4-1.2
					C987.9,147.2,987.9,146.5,987.5,145.6z"/>
				<polygon class="st23" points="989.8,147.5 989.2,144.8 987.5,145.6 987.5,148.2 				"/>
				<path class="st23" d="M987.8,145.8c0,0-1.3-0.8-2.6-1.1c-0.3,0-1.2,0.3-1.3,0.4c0,0,0.2,0.3,1.1,1L987.8,145.8z"/>
				<path class="st23" d="M985.6,144.8c-0.8-0.3-2.1-1.4-2.4-1.4c-0.3,0-0.9,0.6,0.7,1.7C983.9,145.1,986.4,145.1,985.6,144.8z"/>
				<g>
					<path class="st23" d="M968.8,128.8c0,0,3,1.4,3.8,0.7c0.8-0.7-3.1-1.8-3.1-1.8S968.3,127.8,968.8,128.8z"/>
					<path class="st23" d="M969.7,127.4c0,0,3.4,1.9,4.1,1.1c0.8-0.7-3.4-2.3-3.4-2.3S969.3,126.4,969.7,127.4z"/>
					<path class="st23" d="M970.5,126c0,0,3.4,1.8,4.2,1.1c0.8-0.7-3.4-2.2-3.4-2.2S970,125,970.5,126z"/>
					<path class="st23" d="M971.5,124.5c0,0,2.7,1.7,3.5,1c0.8-0.7-2.9-2.2-2.9-2.2S971,123.5,971.5,124.5z"/>
				</g>
			</g>
			<g>
				<path class="st48" d="M856.7,170.1c0,0,1.9-0.9,3.9-1.5c1.1-0.3,2.3-0.9,3.1-0.3c2.3,1.6-0.3,5.2-2.2,5.1
					c-0.7-0.1-1.8-0.6-2.7-1c-0.7-0.3-1.4-0.5-1.4-0.5L856.7,170.1z"/>
				<g>
					<path class="st38" d="M859.9,177.9c0,0,0.5-5.3,3.3-7.7c1.8-1.5,11.9-1.4,11.9-1.4v-1.4c0,0-11.3-1.7-13.4,0.1
						c-3.1,2.6-3.6,10.4-3.6,10.4H859.9z"/>
					<g>
						<path class="st38" d="M858.6,218.9l0-0.8c-9.4-0.3-13.4-0.9-14.1-2.3c-0.5-1.1,1.3-3.1,3.6-5.7c5.3-6,14.3-16.1,11.4-32.7
							l-0.8,0.1c2.8,16.2-6,26.1-11.2,32.1c-2.6,3-4.4,4.9-3.7,6.5C844.6,217.9,848.5,218.6,858.6,218.9z"/>
					</g>
				</g>
				<path class="st22" d="M835.1,152.8c0,0,0.1,17.6,5.3,19.5c4.5,1.7,16.2-2.2,16.2-2.2l0.7,1.8c0,0-13.5,7.4-19.1,5.9
					c-5.2-1.4-6.4-18.1-6.4-18.1L835.1,152.8z"/>
				<polygon class="st34" points="876.8,165.9 873.1,157.5 875,165.6 867.5,160.2 875,167.2 868.9,171.8 875,170.2 871.2,179.6 
					876.8,171.1 878.1,181 878.1,174.7 				"/>
				<g>
					<path class="st43" d="M819.8,184.6c0,0,25.7-3.5,29.7,1.9c5.7,7.7-17,34.6-17,34.6H830c0,0,14.9-26.5,13.6-28.1
						c-1.3-1.6-13.2,0.9-24.9,3C816.8,192.9,819.8,184.6,819.8,184.6z"/>
					<path class="st45" d="M830.2,221.1c0,0-1.2,1.8,3.9,1.9c6.8,0.1,8.1-1.4-0.1-1.9L830.2,221.1z"/>
					<path class="st44" d="M833,149.1c0,0,4.4,3.3,3.2,11.8l-1.3,0.1c0,0-0.7-10.6-4.5-12.8L833,149.1z"/>
					<path class="st23" d="M835.2,162.4c0,0,2-8.7-2.4-12.9c0,0-2.4-2.3-6.4-2.3l4.4,18L835.2,162.4z"/>
					<path class="st22" d="M828.2,148.5l5.2,2.6c0,0-0.1-2,2.4-6c0.6-0.9-3.4-3-3.4-3L828.2,148.5z"/>
					<path class="st22" d="M832.8,149.5c0,0,2,2.9,0.8,3.3c-1.3,0.4-5.2-5-5.2-5L832.8,149.5z"/>
					<path class="st44" d="M828.4,147.8c0,0,4.4,1.7,3.7,12.4c0,0,1.8,0.5,4.4-0.1c-1.7,7.8-13.4,18.1-12.7,29
						c0,0-10.9,4.8-14.4-5.4c0,0,3.7-14.4,7.4-26C816.8,157.8,822.2,144.3,828.4,147.8z"/>
					<path class="st45" d="M798,214.4c0,0-1.8-1.2-1.9,3.9c-0.1,6.8,1.4,8.1,1.9-0.1L798,214.4z"/>
					<path class="st44" d="M823.8,189.1c0,0,10.9,25.2,5.2,32.3c-4.1,5.2-31-4.3-31-4.3v-3c0,0,21.4,6.1,24.9,2.6
						c3.5-3.5-16.8-22.3-13.6-33C810.8,178.5,823.8,189.1,823.8,189.1z"/>
					<path class="st73" d="M828.5,157.8c-1.6,3.9-4.7,7.2-7.1,6.2c-2.4-1-3.2-5.9-1.7-9.7c1.6-3.9,4.8-6.2,7.2-5.3
						C829.4,149.9,830.1,153.9,828.5,157.8z"/>
					<path class="st47" d="M844.9,138.9c0,0-2.1,5.1-4.4,8.4c0.1,0.6-0.3,0.7-0.5,0.7c-0.1,0.1-0.1,0.2-0.2,0.3
						c0,0.4-0.2,0.5-0.4,0.5c-1,1.1-2.1,1.8-3,1.5c-2.3-0.8-3.8-2.9-4.2-4.9c-0.2-1.1-0.2-2.8-0.2-2.8s-0.3-4,1.5-6.3
						C835.2,133.9,844.9,138.9,844.9,138.9z"/>
					<path class="st52" d="M840.1,142.6c-0.2,0.5-0.1,1,0.2,1.1c0.3,0.1,0.6-0.2,0.8-0.8c0.2-0.5,0.1-1-0.2-1.1
						S840.2,142.1,840.1,142.6z"/>
					<path class="st74" d="M842.5,142.1c0,0-1.2-1.2-3.5-1.1v-0.4c0,0,1.8-0.5,4,0.6L842.5,142.1z"/>
					<path class="st47" d="M839.7,145c-0.2,0.5,0.3,1.3,1.2,1.7c0.9,0.4,2-0.1,2.2-0.6c0.2-0.5-1.5-0.6-0.6-2.2
						C841.7,143.5,840,144.4,839.7,145z"/>
					<g>
						<path class="st22" d="M837.5,146.3l-0.5,0.2c-0.1,0-0.2,0-0.2-0.1c0-0.1,0-0.2,0.1-0.2c0,0,1.5-0.5,1.5-0.5
							c0.1,0.1-0.6,0.4-0.6,0.5c0.6,1,1.6,1.7,2.2,1.9c-0.1,0.1-0.1,0.2-0.2,0.3C839.2,148.1,838.2,147.4,837.5,146.3z"/>
					</g>
					<g>
						<path class="st22" d="M838.2,148.3c0.1-0.1,0.2-0.1,0.2,0c0.3,0.3,0.8,0.5,0.8,0.5c0,0,0,0,0.1,0c-0.1,0.1-0.5,0.5-0.5,0.5
							C838.7,149.3,838,148.5,838.2,148.3z"/>
					</g>
					<path class="st50" d="M841.2,146.3c0.7,0.3,1.5,0.1,2-0.3c0,0,0,0,0,0c-0.2,0.5-1.3,1-2.2,0.6
						C840.9,146.7,840.3,146.3,841.2,146.3z"/>
					<path class="st46" d="M836.1,161.6c-3.1,0.5-6.8,0.2-6.8,0.2l-12.8,20.3c0,0-2-0.2-2.2,0c-0.2,0.2,1.7,0.8,1.7,0.8
						s-3.5-0.2-3.7,0.2c-0.2,0.4,3.3,0.7,3.5,1c1.9,2.8,9,15.1,10.8,21.3c3.3,14.3-0.9,16.4,2.4,15.8c5.3-7.4-5.3-32.1-5.3-32.1
						C823.2,178.9,833.5,169.2,836.1,161.6z"/>
					<path class="st47" d="M829.3,155.4c0,0,0,17,3.6,20c3.8,3.2,19.7,3,19.7,3v2c0,0-18,3.7-23.3-0.2c-4.9-3.7-6.3-24.7-6.3-24.7
						H829.3z"/>
					<path class="st23" d="M830.2,160.6l-8.7,0.1c0,0-0.8-12.6,4.6-12.4C831.6,148.6,830.2,160.6,830.2,160.6z"/>
					<path class="st48" d="M822.6,159.7c0,0-0.5-7.5,1.8-10.9c-3.5,2.3-2.9,11.9-2.9,11.9l8.7-0.1L822.6,159.7z"/>
					<g>
						<path class="st46" d="M798.1,217.1c0,0,13.3,4.3,22.7,5.5c-12.4-2.4-22.7-7.4-22.7-7.4V217.1z"/>
					</g>
					<g>
						<path class="st46" d="M819,153.5c-1.3,2.2-2.1,4.2-2.1,4.2c-3.1,9.7-6.2,21.4-7.1,24.9C817.5,167.2,816.1,160.8,819,153.5z"/>
					</g>
					<path class="st74" d="M839.3,137c0,0,0.6,3.1,6.5,4.6c0,0-0.2-2.8-0.5-3.5l1.2,2.2c0.6-7.1-6-11.3-12.2-9.5
						c-0.1,0,0.1,0.5,0,0.5c-3.8,1.9-4.1,7.1-4,11.9l-0.1,1.1l0.4,0.4l1.7-2.5l1.1-1l1.4,0.3C835.3,138.9,836.4,137,839.3,137z"/>
					<path class="st50" d="M831.2,139.8c-0.5,1.2,0.3,2.6,1.1,2.9c0.8,0.3,1.3-0.6,1.8-1.8c0.5-1.2,0.2-2.4-0.6-2.7
						C832.7,137.9,831.7,138.6,831.2,139.8z"/>
					<path class="st22" d="M831.8,140.1c-0.3,0.7,0.2,1.5,0.6,1.7c0.5,0.2,0.8-0.4,1-1.1c0.3-0.7,0.1-1.4-0.4-1.6
						C832.6,138.9,832.1,139.4,831.8,140.1z"/>
					<g>
						<path class="st72" d="M839,133.9c2.5,1.3,5,1.9,6.6,1.6c-1.8-3.8-6.3-5.8-10.7-4.8C835.9,131.8,837.3,133,839,133.9z"/>
					</g>
					<g>
						<path class="st72" d="M835,133.4c0-0.6,0-1.4-1.1-1.7c-2.3,1.4-3.2,4.2-3.5,7.3C832.7,135.6,835,134.9,835,133.4z"/>
					</g>
					<path class="st50" d="M836.9,150.1c-2.3-0.8-3.4-2.4-3.8-4.4c-0.2-0.9,1-3.5,1.4-4.2l-1-0.2l-1.1,1l-0.3,0.5
						c0,0.5,0,1.8,0.2,2.6c0.4,2,1.9,4.1,4.2,4.9c0.4,0.1,0.9,0.1,1.3-0.1C837.4,150.2,837.1,150.2,836.9,150.1z"/>
					<path class="st50" d="M839.3,137c-2.6,0-3.7,1.5-4.3,3.7c0-0.1,1.5-3.2,3.9-3.2c0,0,1.6,3.2,4.9,3.8l0.2-0.2
						C839.8,139.5,839.3,137,839.3,137z"/>
					<polygon class="st73" points="850.4,178.3 852.6,178.3 852.6,180.3 850.4,180.8 					"/>
					<path class="st73" d="M852.6,178.3c0,0,5.3-3.1,6-1.2c0.5,2.8-0.9,4.1-1.6,4.2c-0.8,0.2-4.4-1.1-4.4-1.1
						C852.1,179.8,852.2,179.2,852.6,178.3z"/>
					<path class="st73" d="M858.3,176.7c0,0,3.2,1.6,3.1,2.3c-0.1,0.7-3.1-1.1-3.1-1.1V176.7z"/>
					<path class="st73" d="M858.2,178c0,0,3.2,1.6,3.1,2.3c-0.1,0.7-3.1-1.1-3.1-1.1V178z"/>
					<path class="st73" d="M857.7,179c0,0,3.2,1.6,3.1,2.3c-0.1,0.7-3.1-1.1-3.1-1.1V179z"/>
					<path class="st73" d="M856.7,179.8c0,0,3.2,1.6,3.1,2.3c-0.1,0.7-3.1-1.1-3.1-1.1V179.8z"/>
				</g>
				<path class="st38" d="M835.7,137.9c-0.2,0.5,2.4-6.7,5.9-8.7c0,0,0.6,0.2,0.8,0.4c12.4,6.6-0.4,23.4-8.1,20.9
					c-2.3-3.4,0.6-10.5,0.6-10.5c-3.1-2.1-4.6-4-4.6-4c0.2-0.7,0.5-1.3,0.7-1.9C832.9,136.3,835.7,137.9,835.7,137.9z"/>
				<g>
					<path class="st38" d="M838.4,137.2c3.7,2,8.4,3.9,8.4,3.9l0.4,0.7c-0.5,1.2-1.5,2.8-2.2,4c-4.3-0.6-8.3-4-8.3-4
						C837.2,140.3,838.4,137.2,838.4,137.2z"/>
				</g>
				<g>
					<path class="st75" d="M839.1,138.4c3.7,2,6.6,3.1,8.1,3.6c-0.5,1.3-1.2,2.5-2,3.6c-4-0.9-7.5-3.8-7.5-3.8
						C838.1,140.4,839.1,138.4,839.1,138.4z"/>
				</g>
				<path class="st76" d="M830.3,135.9c0.2-0.7,0.5-1.3,0.8-1.9c1.8,2.2,4.7,3.8,4.7,3.8c0.2-0.4,2.7-6.8,5.9-8.7
					c0,0,0.6,0.2,0.8,0.4c1.2,0.6,2.2,1.4,2.9,2.2c-3.1,0.3-6.4,3.4-7.9,7.8c-1.5,4.2-1,8.5,1.1,10.7c-1.4,0.5-2.9,0.7-4.2,0.3
					c-2.4-3.4,0.6-10.5,0.6-10.5C831.7,137.9,830.3,135.9,830.3,135.9z"/>
				<path class="st77" d="M846.9,141.1c0,0-2.6-0.7-4.9-2.2c0,0,2.6-2.8,5.3-3.6C847.2,135.3,848.1,137.6,846.9,141.1z"/>
				<g>
					<path class="st77" d="M844,145.6c0.3,0.1,0.7,0,0.9,0c0.7-1.1,1.7-2.7,2.2-4l-0.4-0.7l0,0c1-2.9,1-5.9-0.8-8.5
						c1.9,2.6,2,5.7,1,8.7c0,0,0,0,0,0l0.4,0.7c-0.5,1.2-1.5,2.8-2.2,4c-0.3,0-0.5-0.1-0.8-0.1c-2.8,3.5-6.8,5.8-10,4.8
						c0-0.1-0.1-0.1-0.1-0.2C837.4,151.3,841.2,149.1,844,145.6z"/>
				</g>
				<g>
					<path class="st78" d="M842.7,144.8l1.4-0.1l-3.2-0.8c-0.8-0.5-1.6-0.9-2.1-1.3l5.7,1.2l-3.7-4.5c0.3,0.2,0.7,0.3,1,0.5l3.4,3.5
						l-1.3-2.6c0.7,0.3,1.3,0.5,1.8,0.7l0.2,0.1l0.7,1.2l0.7-0.7c-0.5,1.3-1.2,2.5-2,3.6C844.3,145.4,843.5,145.1,842.7,144.8
						C842.7,144.8,842.7,144.8,842.7,144.8z"/>
				</g>
				<path class="st77" d="M844,145.6c0,0-1.1,0-4.5-1.9c0,0-1,2.5-0.2,6C839.3,149.7,843.5,147.2,844,145.6z"/>
				<path class="st48" d="M864.2,170.8c0,0-2.9-2.1-2.7-2.8c0.2-0.7,2.9,1.6,2.9,1.6L864.2,170.8z"/>
				<path class="st48" d="M863.6,171.8c0,0-3.5-2.3-3.1-3.1c0.4-0.6,3.2,1.9,3.2,1.9L863.6,171.8z"/>
				<path class="st48" d="M862.7,172.7c0,0-3.2-2.2-2.7-2.9c0.4-0.6,2.9,1.7,2.9,1.7L862.7,172.7z"/>
				<path class="st48" d="M861.8,173.2c0,0-2.6-1.3-2-2c0.2-0.3,2.3,1.1,2.3,1.1L861.8,173.2z"/>
				<path class="st48" d="M856.7,170.1c0,0,0,0,0.1-0.1c0.4-0.5,2.6-2.9,3.5-2.7c1,0.1-0.5,2.1-0.5,2.1L856.7,170.1z"/>
				<path class="st48" d="M860,167.2c0,0,2-0.7,2.4-0.2c0.4,0.5-1.1,1-1.9,1.1L860,167.2z"/>
				<polygon class="st34" points="876.7,166.7 876.9,157.5 878.2,165.8 883,157.9 878.8,167.2 886.3,169.1 880,170 887.1,177.2 
					878.7,171.5 880.9,177.9 877.6,171.3 				"/>
			</g>
			<g>
				<rect x="853.2" y="196.6" class="st18" width="23.3" height="25.3"/>
				<rect x="851.5" y="220.9" class="st18" width="26.7" height="2.1"/>
				<rect x="854.8" y="199.1" class="st79" width="20.4" height="6.4"/>
				<g>
					<path class="st19" d="M870.6,202.3c0,1,0.8,1.8,1.8,1.8c1,0,1.8-0.8,1.8-1.8c0-1-0.8-1.8-1.8-1.8
						C871.4,200.6,870.6,201.3,870.6,202.3z"/>
					<path class="st19" d="M863.1,202.3c0,1,0.8,1.8,1.8,1.8c1,0,1.8-0.8,1.8-1.8c0-1-0.8-1.8-1.8-1.8
						C863.9,200.6,863.1,201.3,863.1,202.3z"/>
					<path class="st19" d="M856.1,202.3c0,1,0.8,1.8,1.8,1.8c1,0,1.8-0.8,1.8-1.8c0-1-0.8-1.8-1.8-1.8
						C856.9,200.6,856.1,201.3,856.1,202.3z"/>
					<path class="st80" d="M871,202.3c0,0.7,0.6,1.3,1.3,1.3c0.7,0,1.3-0.6,1.3-1.3c0-0.7-0.6-1.3-1.3-1.3
						C871.6,201,871,201.6,871,202.3z"/>
					<path class="st80" d="M863.6,202.3c0,0.7,0.6,1.3,1.3,1.3c0.7,0,1.3-0.6,1.3-1.3c0-0.7-0.6-1.3-1.3-1.3
						C864.1,201,863.6,201.6,863.6,202.3z"/>
					<path class="st80" d="M856.6,202.3c0,0.7,0.6,1.3,1.3,1.3c0.7,0,1.3-0.6,1.3-1.3c0-0.7-0.6-1.3-1.3-1.3
						C857.1,201,856.6,201.6,856.6,202.3z"/>
				</g>
				<g>
					<rect x="866.3" y="207.7" class="st19" width="7.8" height="11.3"/>
					<rect x="855.7" y="207.7" class="st19" width="7.8" height="11.3"/>
					<rect x="866.6" y="208.6" class="st80" width="7.1" height="1.4"/>
					<rect x="866.6" y="210.6" class="st80" width="7.1" height="1.4"/>
					<rect x="866.6" y="212.6" class="st80" width="7.1" height="1.4"/>
					<rect x="866.6" y="214.8" class="st80" width="7.1" height="1.4"/>
					<rect x="866.6" y="216.9" class="st80" width="7.1" height="1.4"/>
					<rect x="856.1" y="208.6" class="st80" width="7.1" height="1.4"/>
					<rect x="856.1" y="210.6" class="st80" width="7.1" height="1.4"/>
					<rect x="856.1" y="212.6" class="st80" width="7.1" height="1.4"/>
					<rect x="856.1" y="214.8" class="st80" width="7.1" height="1.4"/>
					<rect x="856.1" y="216.9" class="st80" width="7.1" height="1.4"/>
				</g>
				<rect x="851.5" y="220.9" class="st80" width="26.7" height="0.4"/>
				<rect x="853.2" y="190" class="st80" width="1.6" height="6.6"/>
				<path class="st80" d="M853.2,204.3v6.3C853.2,210.6,851.9,207.4,853.2,204.3z"/>
				<path class="st80" d="M871.5,196c0,0-0.1-1.2-0.9-1.2c-0.8,0-1.2,1.2-1.2,1.2H871.5z"/>
				<rect x="855.3" y="195.9" class="st18" width="19" height="0.9"/>
			</g>
			<g>
				<rect x="836.8" y="-1" class="st81" width="2" height="19.8"/>
				<rect x="921.8" y="-1" class="st81" width="2" height="19.8"/>
				<rect x="825.9" y="13.7" class="st81" width="109.4" height="8.8"/>
				<rect x="825.9" y="20.8" class="st82" width="109.4" height="1.8"/>
				<rect x="920.3" y="10.8" class="st81" width="5" height="8.1"/>
				<rect x="835.3" y="10.8" class="st81" width="5" height="8.1"/>
				<defs>
					<filter id="Adobe_OpacityMaskFilter" filterUnits="userSpaceOnUse" x="810.4" y="22.6" width="138" height="41.7">
						<feFlood  style="flood-color:white;flood-opacity:1" result="back"/>
						<feBlend  in="SourceGraphic" in2="back" mode="normal"/>
					</filter>
				</defs>
				<mask maskUnits="userSpaceOnUse" x="810.4" y="22.6" width="138" height="41.7" id="SVGID_6_">
					<g class="st83">
						<defs>
							<filter id="Adobe_OpacityMaskFilter_1_" filterUnits="userSpaceOnUse" x="810.4" y="22.6" width="138" height="41.7">
								<feFlood  style="flood-color:white;flood-opacity:1" result="back"/>
								<feBlend  in="SourceGraphic" in2="back" mode="normal"/>
							</filter>
						</defs>
						<mask maskUnits="userSpaceOnUse" x="810.4" y="22.6" width="138" height="41.7" id="SVGID_6_">
							<g class="st84">
							</g>
						</mask>
						
							<linearGradient id="SVGID_7_" gradientUnits="userSpaceOnUse" x1="886.6271" y1="21.694" x2="886.6271" y2="62.0165" gradientTransform="matrix(-1 0 0 1 1766.0156 0)">
							<stop  offset="0" style="stop-color:#FFFFFF"/>
							<stop  offset="1" style="stop-color:#000000"/>
						</linearGradient>
						<polygon class="st85" points="935.3,22.6 948.4,64.2 810.4,64.2 825.9,22.6 						"/>
					</g>
				</mask>
				
					<linearGradient id="SVGID_8_" gradientUnits="userSpaceOnUse" x1="886.6271" y1="21.694" x2="886.6271" y2="62.0165" gradientTransform="matrix(-1 0 0 1 1766.0156 0)">
					<stop  offset="0" style="stop-color:#FFEEBD"/>
					<stop  offset="1" style="stop-color:#FFEEBD"/>
				</linearGradient>
				<polygon class="st86" points="935.3,22.6 948.4,64.2 810.4,64.2 825.9,22.6 				"/>
			</g>
			<g>
				<rect x="641" y="-1" class="st81" width="2" height="19.8"/>
				<rect x="726" y="-1" class="st81" width="2" height="19.8"/>
				<rect x="630.1" y="13.7" class="st81" width="109.4" height="8.8"/>
				<rect x="630.1" y="20.8" class="st82" width="109.4" height="1.8"/>
				<rect x="724.5" y="10.8" class="st81" width="5" height="8.1"/>
				<rect x="639.5" y="10.8" class="st81" width="5" height="8.1"/>
				<defs>
					<filter id="Adobe_OpacityMaskFilter_2_" filterUnits="userSpaceOnUse" x="614.6" y="22.6" width="138" height="41.7">
						<feFlood  style="flood-color:white;flood-opacity:1" result="back"/>
						<feBlend  in="SourceGraphic" in2="back" mode="normal"/>
					</filter>
				</defs>
				<mask maskUnits="userSpaceOnUse" x="614.6" y="22.6" width="138" height="41.7" id="SVGID_9_">
					<g class="st87">
						<defs>
							<filter id="Adobe_OpacityMaskFilter_3_" filterUnits="userSpaceOnUse" x="614.6" y="22.6" width="138" height="41.7">
								<feFlood  style="flood-color:white;flood-opacity:1" result="back"/>
								<feBlend  in="SourceGraphic" in2="back" mode="normal"/>
							</filter>
						</defs>
						<mask maskUnits="userSpaceOnUse" x="614.6" y="22.6" width="138" height="41.7" id="SVGID_9_">
							<g class="st88">
							</g>
						</mask>
						
							<linearGradient id="SVGID_10_" gradientUnits="userSpaceOnUse" x1="1082.4152" y1="21.694" x2="1082.4152" y2="62.0165" gradientTransform="matrix(-1 0 0 1 1766.0156 0)">
							<stop  offset="0" style="stop-color:#FFFFFF"/>
							<stop  offset="1" style="stop-color:#000000"/>
						</linearGradient>
						<polygon class="st89" points="739.5,22.6 752.6,64.2 614.6,64.2 630.1,22.6 						"/>
					</g>
				</mask>
				
					<linearGradient id="SVGID_11_" gradientUnits="userSpaceOnUse" x1="1082.4152" y1="21.694" x2="1082.4152" y2="62.0165" gradientTransform="matrix(-1 0 0 1 1766.0156 0)">
					<stop  offset="0" style="stop-color:#FFEEBD"/>
					<stop  offset="1" style="stop-color:#FFEEBD"/>
				</linearGradient>
				<polygon class="st90" points="739.5,22.6 752.6,64.2 614.6,64.2 630.1,22.6 				"/>
			</g>
			<g>
				<polygon class="st91" points="651.9,67 627.6,63.8 627.6,94.5 647.4,94.1 				"/>
				<rect x="629.9" y="85.2" class="st92" width="5.7" height="6.4"/>
				<g>
					<polygon class="st92" points="630.9,71.1 647.5,71.1 647.7,69.9 630.9,69.9 					"/>
					<polygon class="st92" points="630.9,74.7 647.1,74.7 647.2,73.5 630.9,73.5 					"/>
					<polygon class="st92" points="630.9,78.5 646.5,78.4 646.7,77.3 630.9,77.3 					"/>
					<polygon class="st92" points="630.9,81.9 646.1,81.8 646.2,80.8 630.9,80.9 					"/>
				</g>
			</g>
			<g>
				<polygon class="st91" points="616.1,88.2 615.7,110.5 598.2,110.5 598.2,90.1 				"/>
				<rect x="608.4" y="91.7" class="st93" width="5.7" height="6.4"/>
				<rect x="599.8" y="91.7" class="st93" width="6.2" height="0.9"/>
				<rect x="599.8" y="94.5" class="st93" width="6.2" height="0.9"/>
				<rect x="599.8" y="97.2" class="st93" width="6.2" height="0.9"/>
				<rect x="599.8" y="99.8" class="st93" width="14.2" height="0.9"/>
				<rect x="599.8" y="102.6" class="st93" width="14.2" height="0.9"/>
				<rect x="599.8" y="105.7" class="st93" width="14.2" height="0.9"/>
			</g>
			<g>
				<polygon class="st94" points="948.7,56 948.4,78.3 930.9,78.3 930.9,57.9 				"/>
				<rect x="941.1" y="59.4" class="st93" width="5.7" height="6.4"/>
				<rect x="932.5" y="59.4" class="st93" width="6.2" height="0.9"/>
				<rect x="932.5" y="62.2" class="st93" width="6.2" height="0.9"/>
				<rect x="932.5" y="65" class="st93" width="6.2" height="0.9"/>
				<rect x="932.5" y="67.5" class="st93" width="14.2" height="0.9"/>
				<rect x="932.5" y="70.4" class="st93" width="14.2" height="0.9"/>
				<rect x="932.5" y="73.5" class="st93" width="14.2" height="0.9"/>
			</g>
		</g>
		<g class="st5">
			<path class="st95" d="M31.5,124.4h15.4l9.9,35.1l9.6-35.1h10.7l9,35.2l9.8-35.2h15.4L95,183.7H81.2l-9.8-34.4l-9.7,34.4H47.8
				L31.5,124.4z"/>
			<path class="st95" d="M117.3,124.4h42.1V137h-27.1v11.1h19.8v11.8h-19.8v11.1h27.1v12.6h-42.1V124.4z"/>
			<path class="st95" d="M165.3,124.4h15v46.7h25.8v12.6h-40.8V124.4z"/>
			<path class="st95" d="M221,181.2c-4.9-2.5-8.7-6.1-11.3-10.7c-2.7-4.7-4-10.1-4-16.4c0-6.3,1.3-11.7,4-16.4
				c2.7-4.7,6.4-8.3,11.3-10.8c4.9-2.5,10.6-3.8,17-3.8c4.2,0,8,0.4,11.4,1.3c3.3,0.8,6.4,2.2,9.2,4v14.3c-2.5-2-5.3-3.4-8.4-4.3
				c-3.1-0.9-6.7-1.4-10.8-1.4c-5.8,0-10.3,1.5-13.5,4.5c-3.2,3-4.8,7.2-4.8,12.6c0,5.4,1.6,9.6,4.8,12.6c3.2,3.1,7.7,4.6,13.4,4.6
				c4.1,0,7.7-0.5,10.9-1.4c3.2-1,6.2-2.5,9-4.6v14.2c-5.4,3.7-12.5,5.5-21.3,5.5C231.6,185,225.9,183.7,221,181.2z"/>
			<path class="st95" d="M277.1,181.1c-4.8-2.6-8.7-6.2-11.5-10.9c-2.8-4.7-4.2-10-4.2-16.1c0-6.1,1.4-11.4,4.2-16.1
				c2.8-4.7,6.6-8.3,11.5-10.9c4.8-2.6,10.3-3.9,16.2-3.9c5.9,0,11.3,1.3,16.2,3.9c4.8,2.6,8.6,6.3,11.4,10.9
				c2.8,4.7,4.2,10.1,4.2,16.1c0,6.1-1.4,11.4-4.2,16.1c-2.8,4.7-6.6,8.3-11.4,10.9c-4.8,2.6-10.2,3.9-16.2,3.9
				C287.4,185,281.9,183.7,277.1,181.1z M301.6,168.9c2.5-1.4,4.5-3.3,5.9-5.9c1.5-2.5,2.2-5.5,2.2-8.9s-0.7-6.3-2.2-8.9
				c-1.4-2.5-3.4-4.5-5.9-5.9c-2.5-1.4-5.3-2.1-8.3-2.1c-3.1,0-5.9,0.7-8.4,2.1c-2.5,1.4-4.5,3.3-5.9,5.9c-1.4,2.5-2.2,5.5-2.2,8.9
				s0.7,6.4,2.2,8.9c1.4,2.5,3.4,4.5,5.9,5.9c2.5,1.4,5.3,2,8.4,2C296.3,170.9,299.1,170.2,301.6,168.9z"/>
			<path class="st95" d="M331,124.4h14.4l17.1,36.7l17.2-36.7h14.3v59.3h-14v-29.8L366,183.7h-6.8l-14.1-29.8v29.8H331V124.4z"/>
			<path class="st95" d="M401.8,124.4h42.1V137h-27.1v11.1h19.8v11.8h-19.8v11.1h27.1v12.6h-42.1V124.4z"/>
		</g>
	</g>
</g>
</svg>
