<?xml version="1.0" encoding="utf-8"?>
<!-- Generator: Adobe Illustrator 22.0.1, SVG Export Plug-In . SVG Version: 6.00 Build 0)  -->
<svg version="1.1" id="Layer_1" xmlns="http://www.w3.org/2000/svg" xmlns:xlink="http://www.w3.org/1999/xlink" x="0px" y="0px"
	 viewBox="0 0 180 105" style="enable-background:new 0 0 180 105;" xml:space="preserve">
<style type="text/css">
	.st0{display:none;}
	.st1{display:inline;fill:#D9D9D9;}
	.st2{display:inline;}
	.st3{fill:#B72200;}
	.st4{fill:#595552;}
	.st5{fill:#F73706;}
	.st6{fill:#FE5C14;}
	.st7{fill:#262529;}
	.st8{fill:#212121;}
	.st9{fill:#FFFFFF;}
	.st10{fill:#FECD0E;}
	.st11{fill:#F4A600;}
	.st12{fill:#D9D9D9;}
	.st13{fill:#BDBDBD;}
	.st14{fill:#4A484B;}
	.st15{fill:#C06C09;}
	.st16{fill:#DB2A24;}
	.st17{fill:#FF6963;}
	.st18{fill:url(#SVGID_1_);}
	.st19{fill:#504E51;}
	.st20{fill:#E3E3E3;}
	.st21{fill:#1C2426;}
	.st22{fill:url(#SVGID_2_);}
	.st23{fill:#A6A6A6;}
	.st24{fill:#E3E0D7;}
	.st25{fill:#A8A291;}
	.st26{fill:#C9C9C9;}
	.st27{fill:#95C740;}
	.st28{fill:#004464;}
	.st29{fill:#086390;}
	.st30{fill:#318EB7;}
	.st31{fill:#FFD630;}
	.st32{fill:url(#SVGID_3_);}
	.st33{fill:url(#SVGID_4_);}
	.st34{fill:#6E6D6A;}
	.st35{fill:#C4C1BA;}
	.st36{fill:#908F8B;}
	.st37{fill:#D9D5CE;}
	.st38{fill:#EBC59B;}
	.st39{fill:#0072B0;}
	.st40{fill:#005787;}
	.st41{fill:#0083CB;}
	.st42{fill:#005887;}
</style>
<g class="st0">
	<path class="st1" d="M621.4,85c0,2.1-24.1,3.9-53.7,3.9C538,88.9,514,87.1,514,85c0-2.1,24.1-3.9,53.7-3.9
		C597.4,81.1,621.4,82.9,621.4,85z"/>
	<g class="st2">
		<g>
			<path class="st3" d="M530.3,43.3c0,0-7.8,0.4-7.5-3.4c0.2-2.3,4.1-3,5.6-2.3c0.8,0.4,2.3,1.2,1.4,2.4c-0.9,1.3,1.2,1.9,1.2,1.9
				L530.3,43.3z"/>
			<path class="st3" d="M578.9,43.3c0,0,7.8,0.4,7.5-3.4c-0.2-2.3-4.1-3-5.6-2.3c-0.8,0.4-2.3,1.2-1.4,2.4c0.9,1.3-1.1,1.9-1.1,1.9
				L578.9,43.3z"/>
			<path class="st4" d="M531.5,84.9h-3.9c-1.5,0-2.6-1.2-2.6-2.7V74h9.2v8.2C534.2,83.7,533,84.9,531.5,84.9z"/>
			<path class="st4" d="M581.5,84.9h-3.9c-1.5,0-2.6-1.2-2.6-2.7V74h9.2v8.2C584.1,83.7,582.9,84.9,581.5,84.9z"/>
			<path class="st5" d="M524.1,63.8v7.1c0,4.4,3.6,5.8,7.9,5.8h45c4.4,0,7.9-1.4,7.9-5.8v-7.1c-9.4,1.2-19.7,1.8-30.5,1.8
				C543.8,65.6,533.6,64.9,524.1,63.8z"/>
			<path class="st6" d="M584.3,53.3c-1-2-2.9-5.5-4-6.8c-1.6-1.9-1.3-5-2.1-6.1c-0.8-1.1-4-13.7-6.4-14c-17.2-2.1-32-0.3-34.4,0
				c-2.4,0.3-5.6,13-6.4,14c-0.8,1.1-0.5,4.2-2.1,6.1c-1.1,1.3-3,4.8-4,6.8c-0.4,0.8-0.7,2.1-0.7,3v7.5c9.4,1.2,19.7,1.8,30.5,1.8
				c10.8,0,21-0.6,30.5-1.8v-7.5C585,55.4,584.7,54.1,584.3,53.3z"/>
			<g>
				<path class="st7" d="M554.6,43.5c-4.9,0-20.1-0.5-20.3-0.5c-0.6,0-1.1-0.2-1.4-0.6c-0.3-0.4-0.4-0.9-0.2-1.5l3-9.6
					c2-0.1,14.6-0.5,18.9-0.5c4.4,0,16.9,0.4,18.9,0.5l3,9.6c0.1,0.5,0.1,1.1-0.2,1.4c-0.3,0.4-0.8,0.6-1.4,0.6
					C574.7,43,559.5,43.5,554.6,43.5z"/>
				<g>
					<path class="st8" d="M554.6,31.1c4.2,0,16,0.4,18.7,0.5l2.9,9.3c0.1,0.4,0.1,0.8-0.2,1.1c-0.2,0.3-0.6,0.5-1.1,0.5
						c-0.2,0-15.3,0.5-20.2,0.5c-4.9,0-20.1-0.5-20.3-0.5c-0.5,0-0.9-0.2-1.1-0.5c-0.2-0.3-0.3-0.7-0.2-1.1l2.9-9.4
						C538.6,31.5,550.4,31.1,554.6,31.1L554.6,31.1z M554.6,30.4c-4.8,0-19.2,0.5-19.2,0.5l-3,9.9c-0.4,1.4,0.5,2.6,2,2.6
						c0,0,15.3,0.5,20.3,0.5c5,0,20.3-0.5,20.3-0.5c1.5,0,2.4-1.1,2-2.6l-3-9.9C573.8,30.9,559.4,30.4,554.6,30.4L554.6,30.4z"/>
				</g>
			</g>
			<path class="st3" d="M554.6,68.2h-25c0,0,0.4,5.8,6.5,5.8c6.1,0,18.5,0,18.5,0s12.4,0,18.5,0c6.1,0,6.5-5.8,6.5-5.8H554.6z"/>
			<path class="st3" d="M529.6,52.1c0,0,9.1,0.5,9.9,3.4c0.8,2.9-2.4,3.4-2.4,3.4s-9.5,2.7-10.3-3.4
				C526.2,51.5,529.6,52.1,529.6,52.1z"/>
			<path class="st9" d="M532.8,58c-4,0-4.3-1.9-4.4-2.7c-0.1-1,0.1-1.4,0.2-1.5c0.2-0.2,0.6-0.2,0.7-0.2l0.1,0l0.2,0
				c4.4,0.3,8.2,1.5,8.5,2.3c0.2,0.6,0,0.8,0,0.8c-0.2,0.4-0.8,0.6-1.1,0.6C536.7,57.4,534.8,58,532.8,58z"/>
			<path class="st3" d="M579.6,52.1c0,0-9.1,0.5-9.9,3.4c-0.8,2.9,2.4,3.4,2.4,3.4s9.5,2.7,10.3-3.4
				C582.9,51.5,579.6,52.1,579.6,52.1z"/>
			<path class="st9" d="M576.4,58c4,0,4.3-1.9,4.4-2.7c0.1-1-0.1-1.4-0.2-1.5c-0.2-0.2-0.6-0.2-0.7-0.2l-0.1,0l-0.2,0
				c-4.4,0.3-8.2,1.5-8.5,2.3c-0.2,0.6,0,0.8,0,0.8c0.2,0.4,0.8,0.6,1.1,0.6C572.5,57.4,574.4,58,576.4,58z"/>
			<g>
				<path class="st9" d="M562.7,69.5h-16.3c-0.9,0-1.6-0.7-1.6-1.6v-2.5c0-0.9,0.7-1.6,1.6-1.6h16.3c0.9,0,1.6,0.7,1.6,1.6v2.5
					C564.3,68.8,563.6,69.5,562.7,69.5z"/>
				<g>
					<path class="st3" d="M562.7,70h-16.3c-1.1,0-2.1-0.9-2.1-2.1v-2.5c0-1.1,0.9-2.1,2.1-2.1h16.3c1.1,0,2.1,0.9,2.1,2.1v2.5
						C564.8,69,563.9,70,562.7,70z M546.5,64.3c-0.6,0-1.1,0.5-1.1,1.1v2.5c0,0.6,0.5,1.1,1.1,1.1h16.3c0.6,0,1.1-0.5,1.1-1.1v-2.5
						c0-0.6-0.5-1.1-1.1-1.1H546.5z"/>
				</g>
			</g>
			<path class="st3" d="M571,58.5c-10.9,1.6-22,1.6-32.9,0c0.1-1,0.3-2,0.4-3c10.6,1.5,21.4,1.5,32.1,0
				C570.8,56.5,570.9,57.5,571,58.5z"/>
		</g>
		<g>
			<g>
				<path class="st10" d="M559.3,19c-0.7,0.3-1.2,1.1-1.2,1.8v28.4c0,0.7,0.5,1.7,1.1,2.1l22.2,16.3c0.3,0.2,0.7,0.3,1.1,0.3V12
					C576.7,12,563.4,17.3,559.3,19z"/>
				<path class="st11" d="M605.6,19c-4.1-1.7-17.4-7-23.1-7v55.9c0.4,0,0.8-0.1,1.1-0.3l22.2-16.3c0.6-0.4,1.1-1.4,1.1-2.1V20.8
					C606.8,20.1,606.3,19.2,605.6,19z"/>
			</g>
			<g>
				<path class="st9" d="M582.4,65.4l-22-16.1V21.1l0.5-0.2c3.7-1.5,16.3-6.5,21.5-6.5c4.1,0,13.8,3.3,21.5,6.5l0.5,0.2v28.3
					L582.4,65.4z M562,48.5l20.4,15l20.4-14.9V22.1c-7.2-2.9-16.6-6.2-20.4-6.2c-3.8,0-12.9,3.1-20.4,6.2V48.5z"/>
			</g>
			<path class="st9" d="M566.5,31.7c1.8,1.1,3.5,2.4,5.1,3.6c1.7,1.2,3.2,2.6,4.7,4c3.1,2.7,6,5.6,8.7,8.6l-5.6,0.6
				c2.8-5.6,6-11.1,9.4-16.4c1.7-2.6,3.5-5.2,5.5-7.8c0.9-1.3,2-2.5,3-3.8c1-1.2,2.1-2.4,3.2-3.6c-0.4,1.6-0.8,3.1-1.3,4.7
				c-0.5,1.5-1,3.1-1.5,4.5c-1.1,3-2.3,5.9-3.6,8.8c-2.6,5.8-5.5,11.3-8.7,16.8l-2.5,4.3l-3-3.7c-2.6-3.2-5-6.4-7.3-9.8
				c-1.1-1.7-2.2-3.4-3.3-5.2C568.3,35.5,567.3,33.7,566.5,31.7z"/>
		</g>
	</g>
</g>
<g>
	<path class="st12" d="M156.1,85c0,2.1-29.2,3.9-65.2,3.9c-36,0-65.2-1.7-65.2-3.9c0-2.1,29.2-3.9,65.2-3.9
		C126.9,81.1,156.1,82.9,156.1,85z"/>
	<g>
		<g>
			<path class="st10" d="M34.7,73.3c0,0-6.8-20.5,10.9-21.5c18.2-1,19.2-2.2,19.2-2.2s14.8-16.5,38.7-15c24.4,1.6,34.2,6.2,33.6,6
				c0,0,0,1.1-0.7,1c-1.3-0.2-2.9-1.1-2,1.3c1.6,3.9,9.9,8.8,10.1,14.8c0.3,6-2.3,15.6-2.3,15.6H34.7z"/>
			<path class="st13" d="M33.6,61.7c2.1,0,7,0,7.5-0.5c3.3-3.6,1.1-4.5,1.1-4.5h-6.7C34.5,58.2,33.9,59.9,33.6,61.7z"/>
			<path class="st14" d="M68.2,51.2c0.8-4.2,13.6-11.7,23.2-12.8c9.9-0.6,15.7-0.2,15.7-0.2l-0.3,13C106.8,51.2,72.7,51.2,68.2,51.2
				z"/>
			<path class="st8" d="M68.2,51.8c-0.2,0-0.3-0.1-0.4-0.2c-0.1-0.1-0.1-0.3-0.1-0.5c0.9-4.7,14.2-12.1,23.7-13.3
				c3.8-0.2,7.5-0.4,10.8-0.4c3.2,0,5,0.1,5,0.1c0.3,0,0.5,0.3,0.5,0.6l-0.3,13c0,0.3-0.3,0.5-0.6,0.6
				C106.8,51.7,72.7,51.8,68.2,51.8z M102.1,38.6c-3.3,0-6.9,0.1-10.7,0.4c-9,1.1-20.5,7.7-22.4,11.7c6.2,0,33.1-0.1,37.3-0.1
				l0.3-11.9C105.8,38.6,104.3,38.6,102.1,38.6z"/>
			<path class="st14" d="M108.8,38.2c0,0,17.1,1.3,20.6,3.9c0,0,0.4,8.4,3.5,9.2h-24.1V38.2z"/>
			<path class="st8" d="M133,51.8C133,51.8,133,51.8,133,51.8h-24.2c-0.3,0-0.6-0.3-0.6-0.6V38.2c0-0.2,0.1-0.3,0.2-0.4
				c0.1-0.1,0.3-0.2,0.4-0.1c0.7,0.1,17.3,1.4,20.9,4c0.1,0.1,0.2,0.3,0.2,0.4c0.2,3,1.1,8.1,3.1,8.7c0.3,0,0.5,0.3,0.5,0.6
				C133.5,51.5,133.3,51.8,133,51.8z M109.4,50.7h21.9c-1.8-2.2-2.3-7-2.3-8.3c-3.4-2.1-16.5-3.3-19.5-3.6V50.7z"/>
			<g>
				<path class="st15" d="M99.5,53.2c-1.3,0-2.4,0.6-2.4,1.2c0,0.7,1.1,1.2,2.4,1.2c1.3,0,2.4-0.6,2.4-1.2
					C101.9,53.8,100.8,53.2,99.5,53.2z"/>
			</g>
			<g>
				<path class="st15" d="M128.4,53.2c-1.3,0-2.4,0.6-2.4,1.2c0,0.7,1.1,1.2,2.4,1.2c1.3,0,2.4-0.6,2.4-1.2
					C130.8,53.8,129.7,53.2,128.4,53.2z"/>
			</g>
			<path class="st8" d="M132.1,54.4c0,0.3-0.2,0.5-0.5,0.5l-6.6,0c-0.3,0-0.5-0.2-0.5-0.5l0,0c0-0.3,0.2-0.5,0.5-0.5l6.6-0.3
				C131.9,53.6,132.4,53.8,132.1,54.4L132.1,54.4z"/>
			<path class="st16" d="M143.6,54.6c0.4,1.1,0.8,2.2,1.1,3.3c-0.3,3.3-0.8,6.5-1.4,9.7c-0.5-0.4-0.9-0.7-1.4-1.1
				c0-4-0.2-7.9-0.6-11.9c0.6-0.3,1.1-0.7,1.7-1C143.2,53.9,143.4,54.2,143.6,54.6z"/>
			<path class="st17" d="M143,55.2c0.3-0.1,0.6,0.3,0.8,0.8c0.2,0.4,0.3,1,0,1.1c0,0,0,0,0,0c-0.3,0.1-0.6-0.4-0.8-0.8
				C142.8,55.9,142.8,55.4,143,55.2C143,55.3,143,55.3,143,55.2z M143.6,56.2c-0.2-0.4-0.4-0.6-0.4-0.6c0,0.1,0,0.3,0.1,0.8
				c0.2,0.4,0.4,0.6,0.4,0.6C143.7,56.9,143.7,56.6,143.6,56.2z"/>
			<path class="st17" d="M143.8,57.5c0.2-0.1,0.4,0.2,0.5,0.5c0.1,0.3,0.1,0.6,0,0.7c0,0,0,0,0,0c-0.2,0.1-0.4-0.2-0.5-0.5
				C143.7,57.9,143.7,57.6,143.8,57.5C143.8,57.5,143.8,57.5,143.8,57.5z M144.2,58c-0.1-0.3-0.2-0.4-0.2-0.4c0,0,0,0.2,0.1,0.5
				c0.1,0.3,0.2,0.4,0.2,0.4C144.2,58.4,144.3,58.3,144.2,58z"/>
			<path class="st17" d="M143.6,63.3c-0.3,0.2-0.5,0.3-0.8,0.5c0,0.1,0.1,0.1,0.1,0.2c0.3-0.2,0.6-0.3,0.8-0.5
				C143.7,63.4,143.7,63.3,143.6,63.3z"/>
			<path class="st17" d="M143.6,62.2c-0.3,0.2-0.5,0.3-0.8,0.5c0,0.1,0.1,0.1,0.1,0.2c0.3-0.2,0.5-0.3,0.8-0.5
				C143.7,62.3,143.6,62.3,143.6,62.2z"/>
			<path class="st17" d="M143.6,61.2c-0.3,0.2-0.5,0.3-0.8,0.5c0,0.1,0.1,0.1,0.1,0.2c0.3-0.2,0.5-0.3,0.8-0.5
				C143.6,61.3,143.6,61.2,143.6,61.2z"/>
			<path class="st17" d="M143.5,60.2c-0.3,0.2-0.5,0.3-0.8,0.5c0,0.1,0.1,0.1,0.1,0.2c0.3-0.2,0.5-0.3,0.8-0.5
				C143.6,60.3,143.6,60.2,143.5,60.2z"/>
			<path class="st17" d="M143.5,59.1c-0.3,0.2-0.5,0.3-0.8,0.5c0,0,0.1,0.1,0.1,0.1c0.3-0.2,0.5-0.3,0.8-0.5
				C143.6,59.2,143.5,59.2,143.5,59.1z"/>
			<path class="st14" d="M134.3,43c0-0.1,0-0.1-0.1-0.1l-0.3,0.6c0,0,5,8.2,8.4,9.1C139.7,48.9,135.4,45.7,134.3,43z"/>
			<path class="st7" d="M66.5,49.1c4.5-4.8,16.2-10.5,18-11.2c0.8-0.3,0.9-0.6,0.8-0.9c-13,4.2-20.6,12.7-20.6,12.7s0,0,0,0
				C65.1,49.9,65.8,50,66.5,49.1z"/>
			<path class="st11" d="M58.2,60.5c0,0,5-2.6,16.8-2.6c11.9,0,49.4,0,49.4,0s13.7,0.1,13.7,11.3c0,2.3,0,4,0,4H58.2L58.2,60.5z"/>
			<polygon class="st8" points="108.8,51.7 105.4,51.7 105.4,37.5 108.8,37.6 			"/>
			<path d="M33.5,67.9c0.4,3.1,1.1,5.4,1.1,5.4h10.8V71h-5.6v-2.2L33.5,67.9z"/>
			<linearGradient id="SVGID_1_" gradientUnits="userSpaceOnUse" x1="90.229" y1="73.3037" x2="90.229" y2="72.2341">
				<stop  offset="0" style="stop-color:#5F5A5E"/>
				<stop  offset="0.2754" style="stop-color:#262529"/>
				<stop  offset="0.4762" style="stop-color:#29282C"/>
				<stop  offset="0.6286" style="stop-color:#333135"/>
				<stop  offset="0.7647" style="stop-color:#434144"/>
				<stop  offset="0.8093" style="stop-color:#4A484B"/>
			</linearGradient>
			<polygon class="st18" points="70.9,73.3 109.6,73.3 109.6,72.2 71.2,72.2 			"/>
			<path d="M121.8,60.5c-5.2,0-9.7,3.1-11.8,7.5c0,0-1.3,2.3-1.2,5.5c1.5,0,2.5,0,2.5,0h23.5C134.8,66.3,129,60.5,121.8,60.5z"/>
			<path class="st19" d="M133,73.5c0,6.2-5,11.1-11.1,11.1c-6.2,0-11.1-5-11.1-11.1c0-6.2,5-11.1,11.1-11.1
				C128,62.3,133,67.3,133,73.5z"/>
			<path class="st20" d="M121.8,80c-3.6,0-6.5-2.9-6.5-6.5c0-3.6,2.9-6.5,6.5-6.5c3.6,0,6.5,2.9,6.5,6.5
				C128.3,77.1,125.4,80,121.8,80z"/>
			<path class="st21" d="M121.8,75.3c-1,0-1.9-0.8-1.9-1.9c0-1,0.8-1.9,1.9-1.9c1,0,1.9,0.8,1.9,1.9
				C123.7,74.5,122.8,75.3,121.8,75.3z"/>
			<path d="M58.2,60.5c-5.2,0-9.7,3.1-11.8,7.5c0,0-1.3,2.3-1.2,5.5c1.5,0,2.5,0,2.5,0h23.5C71.2,66.3,65.4,60.5,58.2,60.5z"/>
			<path class="st19" d="M69.4,73.5c0,6.2-5,11.1-11.1,11.1c-6.2,0-11.1-5-11.1-11.1c0-6.2,5-11.1,11.1-11.1
				C64.4,62.3,69.4,67.3,69.4,73.5z"/>
			<path class="st20" d="M58.2,80c-3.6,0-6.5-2.9-6.5-6.5c0-3.6,2.9-6.5,6.5-6.5c3.6,0,6.5,2.9,6.5,6.5C64.7,77.1,61.8,80,58.2,80z"
				/>
			<path class="st21" d="M58.2,75.3c-1,0-1.9-0.8-1.9-1.9c0-1,0.8-1.9,1.9-1.9c1,0,1.9,0.8,1.9,1.9C60.1,74.5,59.2,75.3,58.2,75.3z"
				/>
			<path d="M142.8,70.2l-4.7-1l-3.2,4h7.1C142,73.3,142.4,72.1,142.8,70.2z"/>
			<linearGradient id="SVGID_2_" gradientUnits="userSpaceOnUse" x1="69.4175" y1="49.3599" x2="69.4175" y2="51.5691">
				<stop  offset="0" style="stop-color:#5F5A5E"/>
				<stop  offset="0.2754" style="stop-color:#000000"/>
				<stop  offset="0.7541" style="stop-color:#000000"/>
				<stop  offset="0.8093" style="stop-color:#000000"/>
			</linearGradient>
			<polygon class="st22" points="69.4,49.4 68.1,50.8 68.9,51.6 70.7,51 			"/>
			<path class="st23" d="M74.3,50.2l-0.6-4.2c-0.1-0.7-1-1.1-2-0.8c-2.1,0.8-2.9,5.1-2.8,5.3c0.5,1.1,2,1,3.6,1
				C73.6,51.6,74.4,51,74.3,50.2z"/>
			<path class="st8" d="M103.2,54.4c0,0.3-0.2,0.5-0.5,0.5l-6.6,0c-0.3,0-0.5-0.2-0.5-0.5l0,0c0-0.3,0.2-0.5,0.5-0.5l6.6-0.3
				C103,53.6,103.5,53.8,103.2,54.4L103.2,54.4z"/>
		</g>
		<path class="st9" d="M60.7,64.9c-7.3-0.2-14.1-3.2-19.2-8.5c-5.1-5.3-7.8-12.3-7.6-19.6C34.2,22,46.6,10,61.3,10l0.7,0
			c7.3,0.2,14.1,3.2,19.2,8.5c5.1,5.3,7.8,12.3,7.6,19.6c-0.3,14.8-12.7,26.8-27.4,26.8L60.7,64.9z"/>
		<g>
			<g>
				<g>
					<path class="st10" d="M36.4,36.9c0.3-13.8,11.8-24.7,25.5-24.4c13.8,0.3,24.7,11.8,24.4,25.5C86,51.8,74.5,62.7,60.8,62.4
						C47,62.1,36.1,50.7,36.4,36.9z"/>
					<g>
						<path class="st3" d="M61.9,11.9C76,12.2,87.2,24,86.9,38.1C86.6,52.2,74.8,63.3,60.7,63c-14.1-0.3-25.3-12.1-24.9-26.2
							C36.1,22.8,47.9,11.6,61.9,11.9z M60.8,61.8C74.2,62.1,85.4,51.5,85.7,38C86,24.6,75.4,13.4,61.9,13.1
							C48.5,12.8,37.3,23.5,37,36.9C36.7,50.3,47.3,61.5,60.8,61.8z"/>
					</g>
					<path class="st6" d="M38.8,36.9c0.3-12.5,10.6-22.3,23.1-22c12.5,0.3,22.3,10.6,22,23.1c-0.3,12.5-10.6,22.3-23.1,22
						C48.3,59.7,38.5,49.4,38.8,36.9z"/>
				</g>
				<path class="st9" d="M71.7,44c-0.1-5.7-4.7-7.7-8.7-9.1l0.1-7.5c1.8,0.5,3.5,1.6,5,2.6l0.7,0.5l2.3-4.4l-0.5-0.4
					c-2.6-1.8-4.9-2.8-7.4-3.1l0-2.6L61,20l0,2.6c-5,0.2-8.7,3.7-8.7,8c0.1,5.3,4.7,7.2,8.4,8.6l-0.1,8.4c-2.4-0.6-4.9-2.3-6.5-4
					l-0.6-0.6l-2.9,4.3l0.5,0.4c2.8,2.5,6.2,4.1,9.5,4.6l0,2.7l2.3,0l0-2.6C67.1,52.4,71.8,49.2,71.7,44z M57.5,30.6
					c0-2,1.7-3.3,3.4-3.5l-0.1,6.9C59.1,33.3,57.6,32.2,57.5,30.6z M62.9,47.8L63,40c2,0.8,3.5,1.8,3.5,4.2
					C66.5,46.7,64.6,47.6,62.9,47.8z"/>
			</g>
		</g>
	</g>
</g>
<g class="st0">
	<g class="st2">
		<g>
			<g>
				<g>
					<polygon class="st24" points="847,88.9 793,88.9 793,19 839.5,19 847,25 					"/>
				</g>
				<g>
					<g>
						<rect x="832.9" y="29.9" class="st25" width="7.6" height="1.6"/>
					</g>
					<g>
						<rect x="832.9" y="36.2" class="st25" width="7.6" height="1.6"/>
					</g>
					<g>
						<rect x="832.9" y="42.5" class="st25" width="7.6" height="1.6"/>
					</g>
					<g>
						<rect x="799.6" y="29.9" class="st25" width="7.6" height="1.6"/>
					</g>
					<g>
						<rect x="799.6" y="36.2" class="st25" width="7.6" height="1.6"/>
					</g>
					<g>
						<rect x="799.6" y="42.5" class="st25" width="7.6" height="1.6"/>
					</g>
					<g>
						<rect x="799.8" y="48.9" class="st25" width="40.7" height="1.6"/>
					</g>
					<g>
						<rect x="799.8" y="55.2" class="st25" width="40.7" height="1.6"/>
					</g>
					<g>
						<rect x="799.8" y="61.5" class="st25" width="40.7" height="1.6"/>
					</g>
					<g>
						<rect x="799.8" y="67.8" class="st25" width="40.7" height="1.6"/>
					</g>
					<g>
						<rect x="799.8" y="74.1" class="st25" width="40.7" height="1.6"/>
					</g>
					<g>
						<rect x="799.8" y="80.4" class="st25" width="40.7" height="1.6"/>
					</g>
				</g>
			</g>
			<g>
				<path class="st26" d="M838.8,19l2.4,6.6L847,25C847,25,846.3,19.4,838.8,19z"/>
			</g>
			<g>
				<g>
					<polygon class="st27" points="799.5,77.9 794,73.5 788.6,77.9 788.6,50.1 799.5,50.1 					"/>
				</g>
				<g>
					<path class="st6" d="M795.4,54.7c-0.7-0.6-2-0.6-2.7,0c-0.7,0.6-1.6,0.3-2-0.5c-0.4-0.9-1.4-1.5-2.3-1.3
						c-0.9,0.1-1.6-0.5-1.5-1.5c0.1-0.9-0.5-2-1.4-2.3c-0.9-0.4-1.1-1.3-0.5-2c0.6-0.7,0.6-2,0-2.7c-0.6-0.7-0.3-1.6,0.5-2
						c0.9-0.4,1.5-1.4,1.3-2.3c-0.1-0.9,0.5-1.6,1.5-1.5c0.9,0.1,2-0.5,2.3-1.4c0.4-0.9,1.3-1.1,2-0.5c0.7,0.6,2,0.6,2.7,0
						c0.7-0.6,1.6-0.3,2,0.5c0.4,0.9,1.4,1.5,2.3,1.3c0.9-0.1,1.6,0.5,1.5,1.5c-0.1,0.9,0.5,2,1.4,2.3c0.9,0.4,1.1,1.3,0.5,2
						c-0.6,0.7-0.6,2,0,2.7c0.6,0.7,0.3,1.6-0.5,2c-0.9,0.4-1.5,1.4-1.3,2.3c0.1,0.9-0.5,1.6-1.5,1.5c-0.9-0.1-2,0.5-2.3,1.4
						C797.1,55,796.2,55.2,795.4,54.7z"/>
				</g>
				<g>
					<path class="st3" d="M792.7,50.8c-0.7-0.6-1.5-1.1-2.4-1.4c-0.3-0.9-0.8-1.7-1.4-2.4c0.2-0.9,0.2-1.9,0-2.8
						c0.6-0.7,1.1-1.5,1.4-2.4c0.9-0.3,1.7-0.8,2.4-1.4c0.4,0.1,0.9,0.2,1.4,0.2c0.5,0,1-0.1,1.4-0.2c0.7,0.6,1.5,1.1,2.4,1.4
						c0.3,0.9,0.8,1.7,1.4,2.4c-0.2,0.9-0.2,1.9,0,2.8c-0.6,0.7-1.1,1.5-1.4,2.4c-0.9,0.3-1.7,0.8-2.4,1.4c-0.4-0.1-0.9-0.2-1.4-0.2
						C793.6,50.7,793.1,50.7,792.7,50.8z"/>
				</g>
			</g>
		</g>
		<g>
			<polygon class="st9" points="794,42.5 795.3,44.2 797.3,44.9 796.2,46.7 796.1,48.8 794,48.2 792,48.8 791.9,46.7 790.7,44.9 
				792.7,44.2 			"/>
		</g>
	</g>
	<g class="st2">
		<path class="st28" d="M811.4,30.9c0,0-2.8,0.2-2.7-1.2c0.1-0.8,1.5-1.1,2-0.8c0.3,0.1,0.8,0.4,0.5,0.9c-0.3,0.5,0.4,0.7,0.4,0.7
			L811.4,30.9z"/>
		<path class="st28" d="M828.9,30.9c0,0,2.8,0.2,2.7-1.2c-0.1-0.8-1.5-1.1-2-0.8c-0.3,0.1-0.8,0.4-0.5,0.9c0.3,0.5-0.4,0.7-0.4,0.7
			L828.9,30.9z"/>
		<path class="st4" d="M811.9,45.8h-1.4c-0.5,0-1-0.4-1-1v-3h3.3v3C812.8,45.4,812.4,45.8,811.9,45.8z"/>
		<path class="st4" d="M829.8,45.8h-1.4c-0.5,0-1-0.4-1-1v-3h3.3v3C830.8,45.4,830.3,45.8,829.8,45.8z"/>
		<path class="st29" d="M809.2,38.2v2.5c0,1.6,1.3,2.1,2.9,2.1h16.2c1.6,0,2.9-0.5,2.9-2.1v-2.5c-3.4,0.4-7.1,0.6-10.9,0.6
			C816.3,38.9,812.6,38.7,809.2,38.2z"/>
		<path class="st30" d="M830.8,34.5c-0.4-0.7-1.1-2-1.5-2.4c-0.6-0.7-0.5-1.8-0.8-2.2c-0.3-0.4-1.4-4.9-2.3-5
			c-6.2-0.8-11.5-0.1-12.4,0c-0.9,0.1-2,4.7-2.3,5c-0.3,0.4-0.2,1.5-0.8,2.2c-0.4,0.5-1.1,1.7-1.5,2.4c-0.1,0.3-0.3,0.8-0.3,1.1v2.7
			c3.4,0.4,7.1,0.6,10.9,0.6c3.9,0,7.6-0.2,10.9-0.6v-2.7C831.1,35.2,831,34.8,830.8,34.5z"/>
		<g>
			<path class="st7" d="M820.2,31c-1.8,0-7.2-0.2-7.3-0.2c-0.2,0-0.4-0.1-0.5-0.2c-0.1-0.1-0.1-0.3-0.1-0.5l1.1-3.5
				c0.7,0,5.2-0.2,6.8-0.2c1.6,0,6.1,0.2,6.8,0.2L828,30c0.1,0.2,0,0.4-0.1,0.5c-0.1,0.1-0.3,0.2-0.5,0.2
				C827.4,30.8,821.9,31,820.2,31z"/>
			<g>
				<path class="st8" d="M820.2,26.5c1.5,0,5.7,0.1,6.7,0.2l1,3.4c0,0.2,0,0.3-0.1,0.4c-0.1,0.1-0.2,0.2-0.4,0.2
					c-0.1,0-5.5,0.2-7.3,0.2c-1.8,0-7.2-0.2-7.3-0.2c-0.2,0-0.3-0.1-0.4-0.2c-0.1-0.1-0.1-0.2-0.1-0.4l1-3.4
					C814.4,26.7,818.7,26.5,820.2,26.5L820.2,26.5z M820.2,26.2c-1.7,0-6.9,0.2-6.9,0.2l-1.1,3.6c-0.1,0.5,0.2,0.9,0.7,0.9
					c0,0,5.5,0.2,7.3,0.2c1.8,0,7.3-0.2,7.3-0.2c0.5,0,0.9-0.4,0.7-0.9l-1.1-3.6C827.1,26.4,821.9,26.2,820.2,26.2L820.2,26.2z"/>
			</g>
		</g>
		<path class="st28" d="M820.2,39.8h-9c0,0,0.1,2.1,2.3,2.1c2.2,0,6.7,0,6.7,0s4.5,0,6.7,0c2.2,0,2.3-2.1,2.3-2.1H820.2z"/>
		<path class="st28" d="M811.2,34c0,0,3.3,0.2,3.6,1.2c0.3,1-0.9,1.2-0.9,1.2s-3.4,1-3.7-1.2C810,33.8,811.2,34,811.2,34z"/>
		<path class="st28" d="M829.1,34c0,0-3.3,0.2-3.6,1.2c-0.3,1,0.9,1.2,0.9,1.2s3.4,1,3.7-1.2C830.3,33.8,829.1,34,829.1,34z"/>
		<g>
			<path class="st9" d="M823.1,40.3h-5.8c-0.3,0-0.6-0.3-0.6-0.6v-0.9c0-0.3,0.3-0.6,0.6-0.6h5.8c0.3,0,0.6,0.3,0.6,0.6v0.9
				C823.7,40,823.4,40.3,823.1,40.3z"/>
			<g>
				<path class="st28" d="M823.1,40.5h-5.8c-0.4,0-0.7-0.3-0.7-0.7v-0.9c0-0.4,0.3-0.7,0.7-0.7h5.8c0.4,0,0.7,0.3,0.7,0.7v0.9
					C823.8,40.1,823.5,40.5,823.1,40.5z M817.2,38.4c-0.2,0-0.4,0.2-0.4,0.4v0.9c0,0.2,0.2,0.4,0.4,0.4h5.8c0.2,0,0.4-0.2,0.4-0.4
					v-0.9c0-0.2-0.2-0.4-0.4-0.4H817.2z"/>
			</g>
		</g>
		<path class="st31" d="M814.3,35.6c0,0.4-0.3,0.8-0.8,0.8c-0.4,0-0.8-0.3-0.8-0.8c0-0.4,0.3-0.8,0.8-0.8
			C813.9,34.9,814.3,35.2,814.3,35.6z"/>
		<path class="st31" d="M812.6,35.3c0,0.6-0.5,1.1-1.1,1.1c-0.6,0-1.1-0.5-1.1-1.1c0-0.6,0.5-1.1,1.1-1.1
			C812.1,34.2,812.6,34.7,812.6,35.3z"/>
		<path class="st31" d="M826.1,35.6c0,0.4,0.3,0.8,0.8,0.8c0.4,0,0.8-0.3,0.8-0.8c0-0.4-0.3-0.8-0.8-0.8
			C826.4,34.9,826.1,35.2,826.1,35.6z"/>
		<path class="st31" d="M827.7,35.3c0,0.6,0.5,1.1,1.1,1.1c0.6,0,1.1-0.5,1.1-1.1c0-0.6-0.5-1.1-1.1-1.1
			C828.2,34.2,827.7,34.7,827.7,35.3z"/>
		<path class="st28" d="M826.1,36.3c-3.9,0.6-7.9,0.6-11.8,0c0.1-0.4,0.1-0.7,0.2-1.1c3.8,0.5,7.7,0.5,11.5,0
			C826,35.6,826,36,826.1,36.3z"/>
	</g>
</g>
<g class="st0">
	<path class="st1" d="M505,85.1c0,2.1-33.5,3.7-74.8,3.7c-41.3,0-74.7-1.7-74.7-3.7c0-2.1,33.5-3.7,74.7-3.7
		C471.5,81.4,505,83.1,505,85.1z"/>
	<g class="st2">
		<g>
			<path class="st30" d="M376.3,73.9c0,0-6.8-20.4,10.8-21.4c18-1,19-2.1,19-2.1s14.7-16.4,38.4-14.9c24.2,1.6,33.9,6.2,33.4,5.9
				c0,0,0,1.1-0.7,1c-1.3-0.2-2.9-1.1-2,1.3c1.5,3.9,9.8,8.8,10.1,14.7c0.3,5.9-2.3,15.5-2.3,15.5H376.3z"/>
			<path class="st13" d="M375.3,62.4c2.1,0,7,0,7.5-0.5c3.3-3.5,1-4.5,1-4.5h-6.7C376.2,58.9,375.6,60.6,375.3,62.4z"/>
			<path class="st14" d="M409.7,52c0.8-4.2,13.5-11.6,23-12.8c9.9-0.6,15.6-0.2,15.6-0.2L448,51.9C448,51.9,414.1,52,409.7,52z"/>
			<path class="st8" d="M409.7,52.5c-0.2,0-0.3-0.1-0.4-0.2c-0.1-0.1-0.1-0.3-0.1-0.5c0.9-4.7,14.1-12.1,23.5-13.2
				c3.8-0.2,7.4-0.4,10.7-0.4c3.2,0,4.9,0.1,5,0.1c0.3,0,0.5,0.3,0.5,0.6l-0.3,12.9c0,0.3-0.3,0.5-0.6,0.5
				C448,52.4,414.1,52.5,409.7,52.5z M443.4,39.4c-3.3,0-6.9,0.1-10.6,0.4c-9,1.1-20.4,7.7-22.3,11.7c6.1,0,32.9-0.1,37.1-0.1
				l0.3-11.9C447,39.4,445.5,39.4,443.4,39.4z"/>
			<path class="st14" d="M450,39c0,0,17,1.3,20.5,3.8c0,0,0.4,8.3,3.5,9.1h-24V39z"/>
			<path class="st8" d="M474,52.5C474,52.5,474,52.5,474,52.5h-24c-0.3,0-0.6-0.2-0.6-0.6V39c0-0.2,0.1-0.3,0.2-0.4
				c0.1-0.1,0.3-0.2,0.4-0.1c0.7,0.1,17.2,1.4,20.8,3.9c0.1,0.1,0.2,0.3,0.2,0.4c0.2,3,1.1,8,3,8.6c0.3,0,0.5,0.3,0.5,0.6
				C474.6,52.3,474.3,52.5,474,52.5z M450.6,51.4h21.7c-1.8-2.2-2.2-6.9-2.3-8.3c-3.4-2-16.4-3.3-19.4-3.5V51.4z"/>
			<g>
				<path class="st29" d="M440.8,53.9c-1.3,0-2.4,0.6-2.4,1.2s1.1,1.2,2.4,1.2c1.3,0,2.4-0.6,2.4-1.2S442.1,53.9,440.8,53.9z"/>
			</g>
			<g>
				<path class="st29" d="M469.5,53.9c-1.3,0-2.4,0.6-2.4,1.2s1.1,1.2,2.4,1.2c1.3,0,2.4-0.6,2.4-1.2S470.8,53.9,469.5,53.9z"/>
			</g>
			<path class="st8" d="M473.2,55.1c0,0.3-0.2,0.5-0.5,0.5l-6.6,0c-0.3,0-0.5-0.2-0.5-0.5l0,0c0-0.3,0.2-0.5,0.5-0.5l6.6-0.3
				C472.9,54.3,473.4,54.5,473.2,55.1L473.2,55.1z"/>
			<path class="st16" d="M484.6,55.3c0.4,1.1,0.8,2.2,1.1,3.3c-0.3,3.2-0.8,6.4-1.4,9.6c-0.5-0.4-0.9-0.7-1.4-1.1
				c0-4-0.2-7.9-0.6-11.8c0.6-0.3,1.1-0.7,1.7-1C484.2,54.6,484.4,54.9,484.6,55.3z"/>
			<path class="st17" d="M484,55.9c0.3-0.1,0.6,0.3,0.8,0.8c0.2,0.4,0.3,1,0,1.1c0,0,0,0,0,0c-0.3,0.1-0.6-0.4-0.8-0.8
				C483.8,56.6,483.7,56.1,484,55.9C484,56,484,55.9,484,55.9z M484.5,56.8c-0.2-0.4-0.4-0.6-0.4-0.6c0,0.1,0,0.3,0.1,0.8
				c0.2,0.4,0.4,0.6,0.4,0.6C484.7,57.6,484.7,57.3,484.5,56.8z"/>
			<path class="st17" d="M484.8,58.1c0.2-0.1,0.4,0.2,0.5,0.5c0.1,0.3,0.1,0.6,0,0.7c0,0,0,0,0,0c-0.2,0.1-0.3-0.2-0.5-0.5
				C484.7,58.5,484.7,58.2,484.8,58.1C484.8,58.1,484.8,58.1,484.8,58.1z M485.1,58.7c-0.1-0.3-0.2-0.4-0.2-0.4c0,0,0,0.2,0.1,0.5
				c0.1,0.3,0.2,0.4,0.2,0.4C485.2,59.1,485.2,58.9,485.1,58.7z"/>
			<path class="st17" d="M484.6,63.9c-0.3,0.2-0.5,0.3-0.8,0.5c0,0.1,0.1,0.1,0.1,0.2c0.3-0.2,0.5-0.3,0.8-0.5
				C484.7,64,484.7,64,484.6,63.9z"/>
			<path class="st17" d="M484.6,62.9c-0.3,0.2-0.5,0.3-0.8,0.5c0,0,0.1,0.1,0.1,0.2c0.3-0.2,0.5-0.3,0.8-0.5
				C484.7,63,484.6,62.9,484.6,62.9z"/>
			<path class="st17" d="M484.6,61.9c-0.3,0.2-0.5,0.3-0.8,0.5c0,0.1,0.1,0.1,0.1,0.2c0.3-0.2,0.5-0.3,0.8-0.5
				C484.6,62,484.6,61.9,484.6,61.9z"/>
			<path class="st17" d="M484.5,60.8c-0.3,0.2-0.5,0.3-0.8,0.5c0,0,0.1,0.1,0.1,0.1c0.3-0.2,0.5-0.3,0.8-0.5
				C484.6,60.9,484.6,60.9,484.5,60.8z"/>
			<path class="st17" d="M484.5,59.8c-0.3,0.2-0.5,0.3-0.8,0.5c0,0,0.1,0.1,0.1,0.1c0.3-0.2,0.5-0.3,0.8-0.5
				C484.5,59.9,484.5,59.9,484.5,59.8z"/>
			<path class="st14" d="M475.3,43.7c0,0,0-0.1,0-0.1l-0.3,0.6c0,0,5,8.2,8.3,9.1C480.7,49.6,476.4,46.4,475.3,43.7z"/>
			<path class="st7" d="M408,49.8c4.5-4.7,16.1-10.5,17.9-11.2c0.8-0.3,0.9-0.6,0.8-0.9c-13,4.2-20.5,12.6-20.5,12.6s0,0,0,0
				C406.6,50.6,407.2,50.7,408,49.8z"/>
			<path class="st29" d="M399.7,61.1c0,0,4.9-2.6,16.7-2.6c11.8,0,49.1,0,49.1,0s13.6,0.1,13.6,11.3c0,2.3,0,4,0,4h-79.4V61.1z"/>
			<polygon class="st8" points="450,52.4 446.7,52.4 446.7,38.3 450,38.4 			"/>
			<path d="M375.2,68.5c0.4,3.1,1.1,5.3,1.1,5.3H387v-2.3h-5.6v-2.2L375.2,68.5z"/>
			<linearGradient id="SVGID_3_" gradientUnits="userSpaceOnUse" x1="431.5511" y1="73.8842" x2="431.5511" y2="72.8219">
				<stop  offset="0" style="stop-color:#5F5A5E"/>
				<stop  offset="0.2754" style="stop-color:#262529"/>
				<stop  offset="0.4762" style="stop-color:#29282C"/>
				<stop  offset="0.6286" style="stop-color:#333135"/>
				<stop  offset="0.7647" style="stop-color:#434144"/>
				<stop  offset="0.8093" style="stop-color:#4A484B"/>
			</linearGradient>
			<polygon class="st32" points="412.3,73.9 450.8,73.9 450.8,72.8 412.6,72.8 			"/>
			<path d="M462.9,61.1c-5.2,0-9.6,3.1-11.7,7.4c0,0-1.2,2.3-1.2,5.5c1.5,0,2.5,0,2.5,0h23.4C475.9,66.9,470.1,61.1,462.9,61.1z"/>
			<path class="st19" d="M474,74.1c0,6.1-5,11.1-11.1,11.1c-6.1,0-11.1-5-11.1-11.1c0-6.1,5-11.1,11.1-11.1
				C469.1,63,474,67.9,474,74.1z"/>
			<path class="st20" d="M462.9,80.5c-3.6,0-6.5-2.9-6.5-6.5c0-3.6,2.9-6.5,6.5-6.5c3.6,0,6.5,2.9,6.5,6.5
				C469.4,77.6,466.5,80.5,462.9,80.5z"/>
			<path class="st21" d="M462.9,75.9c-1,0-1.8-0.8-1.8-1.8c0-1,0.8-1.8,1.8-1.8c1,0,1.8,0.8,1.8,1.8C464.8,75.1,464,75.9,462.9,75.9
				z"/>
			<path d="M399.7,61.1c-5.2,0-9.6,3.1-11.7,7.4c0,0-1.2,2.3-1.2,5.5c1.5,0,2.5,0,2.5,0h23.4C412.7,66.9,406.9,61.1,399.7,61.1z"/>
			<path class="st19" d="M410.8,74.1c0,6.1-5,11.1-11.1,11.1c-6.1,0-11.1-5-11.1-11.1c0-6.1,5-11.1,11.1-11.1
				C405.9,63,410.8,67.9,410.8,74.1z"/>
			<path class="st20" d="M399.7,80.5c-3.6,0-6.5-2.9-6.5-6.5c0-3.6,2.9-6.5,6.5-6.5c3.6,0,6.5,2.9,6.5,6.5
				C406.2,77.6,403.3,80.5,399.7,80.5z"/>
			<path class="st21" d="M399.7,75.9c-1,0-1.8-0.8-1.8-1.8c0-1,0.8-1.8,1.8-1.8c1,0,1.8,0.8,1.8,1.8
				C401.6,75.1,400.8,75.9,399.7,75.9z"/>
			<path d="M483.8,70.8l-4.6-0.9l-3.2,4h7.1C483,73.9,483.4,72.6,483.8,70.8z"/>
			<linearGradient id="SVGID_4_" gradientUnits="userSpaceOnUse" x1="410.8715" y1="50.0918" x2="410.8715" y2="52.2871">
				<stop  offset="0" style="stop-color:#5F5A5E"/>
				<stop  offset="0.2754" style="stop-color:#000000"/>
				<stop  offset="0.7541" style="stop-color:#000000"/>
				<stop  offset="0.8093" style="stop-color:#000000"/>
			</linearGradient>
			<polygon class="st33" points="410.9,50.1 409.6,51.5 410.4,52.3 412.2,51.7 			"/>
			<path class="st23" d="M415.7,51l-0.6-4.1c-0.1-0.7-1-1.1-2-0.8c-2.1,0.8-2.9,5.1-2.8,5.3c0.5,1.1,2,1,3.6,1
				C415.1,52.3,415.8,51.7,415.7,51z"/>
			<path class="st8" d="M444.5,55.1c0,0.3-0.2,0.5-0.5,0.5l-6.6,0c-0.3,0-0.5-0.2-0.5-0.5l0,0c0-0.3,0.2-0.5,0.5-0.5l6.6-0.3
				C444.3,54.3,444.7,54.5,444.5,55.1L444.5,55.1z"/>
		</g>
		<g>
			<path class="st9" d="M413.8,86.7c-0.2,0-0.5,0-0.8-0.1c-0.2,0-0.4,0-0.7,0c-0.2,0-0.5,0-0.7,0c-0.3,0-0.5,0.1-0.8,0.1
				c-1.4,0-2.3-0.9-2.3-2.3l0-0.2c0,0,0-0.3,0-0.3l0.2-1.2c0-0.3,0.1-0.6,0.1-0.9c0-0.2-0.1-0.4-0.1-0.6c-0.1-0.6-0.1-1.3-0.1-1.9
				c0-0.6,0-1.1-0.1-1.6c-0.1-0.8-0.6-4-0.6-4c-0.1-0.3-0.1-1.2-0.2-2c0-0.7-0.1-1.4-0.2-1.7l-0.3-2c-0.1-0.5-0.2-1-0.2-1.5
				c-0.1,0.5-0.1,1-0.2,1.5l-0.3,2c-0.1,0.3-0.1,1-0.2,1.7c-0.1,0.8-0.1,1.7-0.2,2c0,0-0.5,3.2-0.6,4c-0.1,0.5-0.1,1-0.1,1.6
				c0,0.6,0,1.3-0.1,2c-0.1,0.3-0.1,0.5-0.2,0.7c0.1,0.3,0.1,0.5,0.1,0.8l0.2,1.2v0.4c0,1.4-0.9,2.3-2.3,2.3c-0.2,0-0.5,0-0.8-0.1
				c-0.2,0-0.4,0-0.7,0c-0.2,0-0.5,0-0.7,0c-0.3,0-0.5,0.1-0.8,0.1c-1.4,0-2.3-0.9-2.3-2.3l0-0.2c0,0,0-0.3,0-0.3l0.2-1.2
				c0-0.6,0.2-1.1,0.4-1.6c0-0.1,0-0.3,0-0.4c0-0.6,0.1-1.2,0.2-1.8c0.1-0.6,0.2-1.2,0.2-1.7c0-0.8,0-1.7,0-2.6c0,0-0.1-4.9-0.1-5.2
				l0-2c0-1.3-0.1-2.5-0.1-3.5c0-1.1-0.1-2-0.1-2.6c0-0.1,0-0.1,0-0.2c0,0-0.1,0.1-0.1,0.1l-0.2,0.1c-0.1,0.2-0.2,0.5-0.4,0.7
				c-0.3,0.4-0.8,0.6-1.3,0.7l-0.2,0l-0.9-0.1c0,0-0.2,0-0.2,0l-0.4-0.1l-0.1,0c-0.3-0.1-0.5-0.2-0.7-0.4l0,0
				c-0.3-0.1-0.5-0.2-0.7-0.4l-0.1,0l-0.1,0c-0.4-0.2-0.8-0.5-0.9-0.9c-0.2-0.5-0.2-1-0.1-1.4l0-0.1c0-0.4,0-0.9,0.1-1.1
				c0.1-0.7,0.5-2.5,0.5-2.8c0-0.1,0-0.2,0-0.2l1.1-7.1l0.6-4.1c0.2-1.4,0.4-2.7,0.5-4l0-0.5c0-0.4,0.1-0.8,0.1-1.1l0-0.7
				c0-0.6,0.1-1.2,0.2-1.8c0.2-0.8,0.5-1.5,1-2.1c0.5-0.7,1.3-1.3,2.1-1.7c0.6-0.3,1.3-0.4,2-0.5c0.1,0,0.2,0,0.3,0
				c0.3-0.1,0.6-0.1,0.9-0.1h1.2c0.1-0.2,0.1-0.3,0.1-0.5c0,0-0.1-0.3-0.1-0.3c-0.5-0.8-0.9-1.7-1.1-2.5l-0.1-0.6l0,0l-0.5-2.2
				c-0.1-0.5-0.1-0.9-0.2-1.4c0-0.2,0-0.4,0-0.6l0-0.1c0.1-3,2.1-4.7,3.3-5.3l0.2-0.1l1.5-0.3v-0.6l1.5,0.3l1.5-0.3v0.6l1.6,0.3
				l0.2,0.1c1.2,0.5,3.2,2.3,3.3,5.4l-1,0l1,0c0,0.2,0,0.4,0,0.6c0,0.1,0,0.2,0,0.3l0,0l0,0.2c0,0.3-0.1,0.7-0.1,1l-0.5,2.3
				l-0.1-0.1l-0.1,0.5c-0.2,0.9-0.6,1.8-1.1,2.6c0.1,0.2,0.1,0.4,0.2,0.7h1c0.3,0,0.6,0,0.9,0.1c0.1,0,0.1,0,0.2,0
				c0.1,0,0.3,0,0.5,0c0.7,0.1,1.4,0.2,2,0.5c0.8,0.4,1.6,1,2.1,1.7c0.5,0.6,0.8,1.3,1,2.1c0.1,0.6,0.2,1.2,0.2,1.8l0,0.7
				c0,0.3,0,0.7,0.1,1.1l0,0.5c0.1,1.3,0.3,2.6,0.5,4l0.6,4.1l1,6.9c0.2-0.1,0.3-0.2,0.5-0.2c0.4-0.2,0.9-0.2,1.3-0.2
				c0.7,0,1.4,0.2,2,0.6c0,0,0.8,0.4,1.4,1.7c0.5,1.3,0.3,2.3,0.3,2.3l-0.1,0.2c-0.3,1.1-1.2,2.1-2.3,2.5c-0.4,0.2-0.9,0.2-1.3,0.2
				c-0.6,0-1.2-0.1-1.7-0.4c-0.1,0.1-0.3,0.2-0.4,0.3l-0.1,0.1l-0.1,0c-0.2,0.2-0.5,0.3-0.7,0.4l0,0c-0.2,0.2-0.5,0.4-0.8,0.5
				l-0.3,0.1l-0.2,0l-0.8,0.1l-0.2,0c-0.4,0.9-1.1,1.7-2.1,2.1c-0.2,0.1-0.3,0.1-0.5,0.2c0,0.8-0.1,1.6-0.1,2.5l0,2
				c0,0.3-0.1,7-0.1,7.8c0,0.6,0.1,1.2,0.2,1.7c0.1,0.6,0.2,1.2,0.2,1.8c0,0.1,0,0.2,0,0.3c0.3,0.5,0.5,1.1,0.5,1.7l0.2,1.2v0.4
				C416.2,85.8,415.3,86.7,413.8,86.7z"/>
			<g>
				<g>
					<g>
						<path class="st34" d="M421.5,59c-0.2,0.1-0.4,0-0.5-0.2l-5.1,2l0.3,0.8l1.3-0.7l4.4-1.5c0.3-0.1,0.4-0.4,0.3-0.7l-0.1-0.3
							l-0.4,0.2C421.8,58.7,421.7,58.9,421.5,59z"/>
						<path class="st35" d="M415.7,59.9l0.3,0.8l5.1-2c-0.1-0.2,0-0.4,0.2-0.5c0.2-0.1,0.4,0,0.5,0.2l0.4-0.2l-0.1-0.3
							c-0.1-0.3-0.4-0.4-0.7-0.3l-4.3,1.8L415.7,59.9z"/>
						<path class="st35" d="M421.5,59c-0.2,0.1-0.4,0-0.5-0.2l-0.1,0c0.1,0.2,0.4,0.4,0.6,0.3c0.3-0.1,0.4-0.4,0.3-0.6l-0.1,0
							C421.8,58.7,421.7,58.9,421.5,59z"/>
						<path class="st36" d="M421.3,58.3c0.2-0.1,0.4,0,0.5,0.2l0.1,0c-0.1-0.2-0.4-0.4-0.6-0.3c-0.3,0.1-0.4,0.4-0.3,0.6l0.1,0
							C421,58.6,421.1,58.3,421.3,58.3z"/>
						<path class="st36" d="M417.1,59.8l-1.2,0.3l0.4,1.1l1.1-0.6l4-1.4c0,0,0.1-0.2,0.1-0.3c0,0,0,0,0,0c-0.2,0.1-0.4,0-0.5-0.2
							c-0.1-0.2,0-0.4,0.2-0.5c0,0,0,0,0.1,0c0-0.1-0.3-0.1-0.3-0.2L417.1,59.8z"/>
						<path class="st34" d="M421.2,58.2c-0.2,0.1-0.4,0.4-0.3,0.6c0.1,0.2,0.3,0.4,0.6,0.3c0,0,0-0.1,0-0.1c0,0,0,0,0,0
							c-0.2,0.1-0.4,0-0.5-0.2c-0.1-0.2,0-0.4,0.2-0.5c0,0,0,0,0.1,0C421.3,58.2,421.3,58.2,421.2,58.2z"/>
						<path class="st34" d="M416.4,61.2l0.6-0.3c0-0.2-0.1-0.4-0.1-0.5c-0.1-0.2-0.1-0.3-0.2-0.4l-0.6,0.2L416.4,61.2z"/>
						<path class="st37" d="M412.5,60.6l2.3-0.6l0.8,0.8l0,1.1l-2.1,1.1c0.6,0.4,1.3,0.5,2,0.2c1.1-0.4,1.7-1.7,1.3-2.8
							c-0.4-1.1-1.7-1.7-2.8-1.3C413.2,59.4,412.7,60,412.5,60.6z"/>
						<path class="st36" d="M416.3,60.5C416.3,60.5,416.3,60.5,416.3,60.5c0,0.1,0,0.1,0,0.1c0,0,0,0,0,0.1c0,0.1,0,0.2,0,0.3
							c0,0,0,0,0,0.1c0.1,0.4,0,0.7-0.1,1c0,0,0,0,0-0.1c-0.1-0.4-0.2-0.7-0.3-1.1c0,0,0-0.1,0-0.1c-0.2,0.1-0.3,0.1-0.3,0.1l0,1.1
							l-2.1,1.1c0,0,0,0,0,0l0,0c0.6,0.4,1.3,0.5,2,0.2c1.1-0.4,1.7-1.7,1.3-2.8c0,0,0,0,0,0C416.6,60.4,416.5,60.5,416.3,60.5z"/>
						<path class="st35" d="M416.6,60.4c0.4,1.1-0.2,2.2-1.2,2.7c-0.5,0.2-1,0.2-1.5,0l1.9-1l0-1.4l-1-1l-2.1,0.6
							c0.2-0.4,0.6-0.9,1.1-1C415,58.9,416.2,59.4,416.6,60.4z"/>
					</g>
					<g>
						<path class="st34" d="M419.2,60.2l1.8-0.8l1.4-0.4l-0.3-0.8l-3,1.1C419.2,59.7,419.2,60,419.2,60.2z"/>
						<path class="st35" d="M418.8,58.8c0.1,0.2,0.3,0.3,0.3,0.6c0,0,0,0.1,0,0.1l3-1.1l-0.3-0.8l-1.3,0.7L418.8,58.8z"/>
						<path class="st36" d="M418.9,59c0.1,0.1,0.1,0.3,0.1,0.4c0.1,0.2,0.2,0.4,0.2,0.6l1.7-0.7l1.2-0.3l-0.4-1.1l-1.1,0.5L418.9,59
							z"/>
						<path class="st34" d="M422.1,59l-0.6,0.2c-0.1-0.1-0.2-0.3-0.3-0.5c-0.1-0.2-0.1-0.3-0.1-0.5l0.6-0.3L422.1,59z"/>
						<path class="st37" d="M424.7,56l-2.1,1.1l0,1.1l0.8,0.8l2.3-0.6c-0.2,0.7-0.7,1.2-1.3,1.5c-1.1,0.4-2.4-0.1-2.8-1.3
							c-0.4-1.1,0.1-2.4,1.3-2.8C423.4,55.5,424.1,55.6,424.7,56z"/>
						<path class="st36" d="M421.4,58.6C421.4,58.6,421.4,58.6,421.4,58.6c0.4,1.2,1.7,1.7,2.8,1.3c0.7-0.3,1.2-0.8,1.3-1.5l0,0
							c0,0,0,0,0,0l-2.3,0.6l-0.8-0.8c0,0-0.1,0.1-0.3,0.1c0,0,0.1,0.1,0.1,0.1c0.2,0.3,0.4,0.7,0.6,1c0,0,0,0,0,0.1
							c-0.3-0.1-0.6-0.3-0.7-0.6c0,0,0,0,0,0c-0.1-0.1-0.1-0.1-0.2-0.2c0,0,0,0,0,0c0,0-0.1-0.1-0.1-0.1c0,0,0,0,0,0
							C421.6,58.5,421.5,58.5,421.4,58.6z"/>
						<path class="st35" d="M421.5,58.5c0.4,1,1.6,1.6,2.7,1.2c0.5-0.2,0.9-0.5,1.1-1l-2.1,0.6l-1-1l0-1.4l2-0.9
							c-0.5-0.2-1-0.2-1.5,0C421.7,56.3,421.1,57.5,421.5,58.5z"/>
					</g>
				</g>
				<path class="st38" d="M411.5,24.3c-0.9-0.8-1.8-1.2-3-1.2c0,0-0.1,0-0.1,0c-0.5-0.2-1-0.4-1.3-0.3c-0.5,0.1-0.8,0.3-1,0.6
					c0,0,0,0,0-0.1c-0.3-0.6-1-0.4-1.3,0.1c-0.1,0.1-0.2,0.2-0.2,0.3c-0.5,0-1,0-1.5,0.1c-0.3,0.1-0.6,0.4-0.5,0.7
					c0.1,1.2,0.4,2.4,0.8,3.6c0.2,0.7,0.2,1.4,0.8,1.9c0,0.2,0,1.8-0.9,2.9c-0.3,0.4,0.4,1.3,0.6,1.4c0.2,0.2,0.5,0.3,0.7,0.3
					c0.3,0.9,1.4,1.2,2.5,0.8c0.3-0.1,0.5-0.2,0.7-0.3c0,0,0,0,0.1,0.1c0.3,0.3,0.8,0.3,1,0c0.3-0.4,0.5-0.8,1.1-0.8
					c0.4,0,1.1-1,0.9-1.5c-0.5-1.2-0.9-1.8-1-3.1c0.3-0.3,0.5-0.7,0.5-1.1c0,0,0-0.1,0-0.1c0.1-0.1,0.1-0.2,0.2-0.3
					c0.4-0.7,0.7-1.9,0.4-2.7c0.2-0.1,0.4-0.2,0.6-0.3C411.7,25,411.8,24.5,411.5,24.3z"/>
				<g>
					<g>
						<path class="st38" d="M420.2,55.3c0,0,0.5,2,0.5,2.7c0,0.3,0.1,1.4,0.1,1.4s-0.6,0.3-1.3,0.7c0-0.1-0.1-0.1-0.1-0.1
							c0,0-0.1,0-0.1,0.2c-0.2,0.1-0.4,0.2-0.6,0.3c0,0-0.1-0.2-0.1-0.2c-0.1-0.1-0.3,0.2-0.2,0.2c-0.1,0.4-0.6-0.1-0.6-0.2
							c-0.1-0.5-0.1-1.1-0.6-1.6c-0.4-0.6-0.1-1.9,0.3-2.4c0,0,0,0,0,0c0.1-0.1,0.2-0.4,0.3-0.5C418.6,55.4,420.2,55.3,420.2,55.3z"
							/>
						<g>
							<path class="st38" d="M420.7,60C420.7,60,420.7,60,420.7,60c0.2-0.1,0.3-0.3,0.2-0.4l-0.2-0.4c-0.1-0.2-0.3-0.3-0.4-0.2
								c-0.2,0.1-0.3,0.3-0.2,0.4l0.2,0.4C420.3,60,420.5,60.1,420.7,60z"/>
						</g>
						<g>
							<path class="st38" d="M420,60.5c0.2-0.1,0.3-0.2,0.2-0.4l-0.2-0.8c0-0.2-0.2-0.3-0.4-0.3c-0.2,0-0.3,0.2-0.3,0.4l0.2,0.8
								C419.6,60.4,419.8,60.5,420,60.5C420,60.5,420,60.5,420,60.5z"/>
						</g>
						<g>
							<path class="st38" d="M419.2,60.9c0.2-0.1,0.3-0.2,0.2-0.4l-0.2-0.8c0-0.2-0.2-0.3-0.4-0.3c-0.2,0-0.3,0.2-0.3,0.4l0.2,0.8
								C418.8,60.9,419,61,419.2,60.9C419.2,60.9,419.2,60.9,419.2,60.9z"/>
						</g>
						<g>
							<path class="st38" d="M418.1,61c0.1,0,0.2-0.2,0.2-0.3l0.1-0.6c0-0.2-0.1-0.3-0.3-0.4c-0.2,0-0.4,0.1-0.4,0.3l-0.1,0.6
								c0,0.2,0.1,0.4,0.3,0.4C418,61.1,418.1,61.1,418.1,61z"/>
						</g>
						<g>
							<path class="st38" d="M417.7,57c-0.2-0.1-0.5,0-0.6,0.2l-0.7,1.5c0,0.1-0.1,0.2,0,0.3l0.1,0.3l0.1,0.2l0,0.1l0,0.1l0,0v0
								c0.1,0,0.1-0.1,0.2-0.1c0,0,0.1,0,0.1,0c0,0,0,0,0,0c0,0,0,0,0,0c0.1,0,0.1-0.1,0.2-0.1c0,0,0,0,0,0c0,0,0,0,0,0l0,0l0,0
								l0-0.1l0-0.2l0-0.2l0.7-1.4C418,57.4,417.9,57.1,417.7,57z M416.6,59.6L416.6,59.6C416.7,59.6,416.6,59.6,416.6,59.6
								L416.6,59.6C416.6,59.5,416.6,59.5,416.6,59.6L416.6,59.6z"/>
						</g>
					</g>
					<g>
						<path d="M413.4,37.8C413.4,37.8,413.3,37.8,413.4,37.8L413.4,37.8C413.3,37.8,413.4,37.8,413.4,37.8c0.1,0,0.1,0,0.2,0
							C413.5,37.7,413.4,37.7,413.4,37.8c-0.2-0.2-0.4-0.3-0.5-0.4c0-0.1-0.1-0.1-0.1-0.2c0,0,0,0.1,0,0.2l0,0.1l0,0v0v0.1l0,0.1
							c0,0.1,0,0.1,0,0.2c0,0.1,0,0.1,0,0.2C413,37.9,413.2,37.8,413.4,37.8C413.4,37.8,413.4,37.7,413.4,37.8z"/>
						<path class="st15" d="M417.9,38c0-0.1,0-0.2,0-0.3c0-0.2,0-0.3,0-0.5c0-0.4,0-0.9-0.2-1.4c-0.1-0.5-0.4-1.1-0.8-1.6
							c-0.4-0.5-0.9-1-1.5-1.2c-0.5-0.3-1-0.3-1.5-0.4c-0.4,0-0.8,0-1,0c-0.6,0.1-0.9,0.2-1.2,0.3c-0.1,0-0.2,0.1-0.3,0.1
							c-0.1,0-0.1,0.1-0.1,0.1c-1.3,0.6-1.9,2.1-1.3,3.3c0.5,1.1,1.7,1.7,2.8,1.5c0,0,0-0.1,0-0.2c0-0.1,0-0.1,0-0.2l0-0.1v-0.1v0
							l0,0l0-0.1c0-0.1,0-0.1,0-0.2c0,0,0-0.1,0,0c0,0,0,0,0,0c0,0,0,0.1,0.1,0.2c0.1,0.1,0.3,0.3,0.4,0.3c0.1,0,0.2,0.1,0.2,0.1
							c0,0,0,0,0.1,0c0,0,0,0-0.1,0c-0.1,0-0.1,0-0.1,0c0,0,0,0,0,0v0c0,0,0,0,0,0c0,0,0,0,0,0c-0.2,0.1-0.4,0.1-0.5,0.2
							c0,0.1,0,0.3,0,0.4c0.1,0.7,0.2,1.4,0.3,2.1c0.1,0.3,0.1,0.7,0.2,1l4.6-2.2C418,38.7,417.9,38.3,417.9,38z"/>
						<path class="st38" d="M420.2,55L420.2,55c0,0-0.2-1.4-0.5-3.5c-0.2-1.1-0.3-2.3-0.5-3.6c-0.2-1.3-0.4-2.7-0.6-4.1
							c-0.2-1.4-0.4-2.8-0.5-4.1c0-0.2,0-0.4,0-0.5l-4.6,2.2c0.2,1.1,0.4,2.1,0.7,3.2c0.3,1.4,1.3,1.7,1.6,3
							c0.3,1.3,0.6,2.5,0.9,3.6c0.3,1,0.5,1.9,0.7,2.5c0.2,0.6,0.3,1,0.3,1c0.2,0.8,0.4,2.5,1.3,2.3C419.7,56.8,420.3,55.9,420.2,55
							z"/>
					</g>
				</g>
				<g>
					<g>
						<path class="st38" d="M394,55.3c0,0-0.5,2-0.5,2.7c0,0.3-0.1,1.4-0.1,1.4s0.6,0.3,1.3,0.7c0-0.1,0.1-0.1,0.1-0.1
							c0,0,0.1,0,0.1,0.2c0.2,0.1,0.4,0.2,0.6,0.3c0,0,0.1-0.2,0.1-0.2c0.1-0.1,0.3,0.2,0.2,0.2c0.1,0.4,0.6-0.1,0.6-0.2
							c0.1-0.5,0.1-1.1,0.6-1.6c0.4-0.6,0.1-1.9-0.3-2.4c0,0,0,0,0,0c-0.1-0.1-0.2-0.4-0.3-0.5C395.7,55.4,394,55.3,394,55.3z"/>
						<g>
							<path class="st38" d="M393.5,60C393.5,60,393.5,60,393.5,60c-0.2-0.1-0.3-0.3-0.2-0.4l0.2-0.4c0.1-0.2,0.3-0.3,0.4-0.2
								c0.2,0.1,0.3,0.3,0.2,0.4l-0.2,0.4C393.9,60,393.7,60.1,393.5,60z"/>
						</g>
						<g>
							<path class="st38" d="M394.3,60.5c-0.2-0.1-0.3-0.2-0.2-0.4l0.2-0.8c0-0.2,0.2-0.3,0.4-0.3c0.2,0,0.3,0.2,0.3,0.4l-0.2,0.8
								C394.6,60.4,394.5,60.5,394.3,60.5C394.3,60.5,394.3,60.5,394.3,60.5z"/>
						</g>
						<g>
							<path class="st38" d="M395,60.9c-0.2-0.1-0.3-0.2-0.2-0.4l0.2-0.8c0-0.2,0.2-0.3,0.4-0.3c0.2,0,0.3,0.2,0.3,0.4l-0.2,0.8
								C395.4,60.9,395.3,61,395,60.9C395.1,60.9,395.1,60.9,395,60.9z"/>
						</g>
						<g>
							<path class="st38" d="M396.1,61c-0.1,0-0.2-0.2-0.2-0.3l-0.1-0.6c0-0.2,0.1-0.3,0.3-0.4c0.2,0,0.4,0.1,0.4,0.3l0.1,0.6
								c0,0.2-0.1,0.4-0.3,0.4C396.2,61.1,396.1,61.1,396.1,61z"/>
						</g>
						<g>
							<path class="st38" d="M397.1,57.2l0.7,1.5c0,0.1,0,0.2,0,0.3l0,0l-0.1,0.3l-0.1,0.2l0,0.1l0,0.1l0,0l0,0c0,0,0,0,0,0.1
								c0,0-0.1,0.1-0.1,0.1c0,0,0,0-0.1,0c0,0,0,0-0.1,0c0,0-0.1,0-0.2-0.1c-0.1-0.1-0.1-0.1-0.1-0.2c0-0.1,0-0.1,0-0.1v0l0,0
								c0-0.2,0.2-0.3,0.4-0.3c0.2,0,0.3,0.2,0.3,0.4l0,0v0c0,0,0,0,0-0.1c0-0.1,0-0.1-0.1-0.2c-0.1-0.1-0.2-0.1-0.2-0.1
								c-0.1,0-0.1,0-0.1,0c0,0,0,0-0.1,0l-0.1,0.1l0,0l0-0.1l0-0.2l0-0.3l0,0l0,0.3l-0.7-1.5c-0.1-0.2,0-0.5,0.2-0.6
								C396.8,56.9,397,57,397.1,57.2z"/>
						</g>
					</g>
					<g>
						<path d="M400.9,37.8C400.9,37.8,400.9,37.8,400.9,37.8L400.9,37.8C400.9,37.8,400.9,37.8,400.9,37.8c-0.1,0-0.1,0-0.2,0
							C400.8,37.7,400.8,37.7,400.9,37.8c0.2-0.2,0.4-0.3,0.5-0.4c0-0.1,0.1-0.1,0.1-0.2c0,0,0,0.1,0,0.2l0,0.1l0,0v0l0,0.1l0,0.1
							c0,0.1,0,0.1,0,0.2c0,0.1,0,0.1,0,0.2C401.2,37.9,401.1,37.8,400.9,37.8C400.9,37.8,400.9,37.7,400.9,37.8z"/>
						<path class="st15" d="M396.3,38c0-0.1,0-0.2,0-0.3c0-0.2,0-0.3,0-0.5c0-0.4,0.1-0.9,0.2-1.4c0.1-0.5,0.4-1.1,0.8-1.6
							c0.4-0.5,1-1,1.5-1.2c0.5-0.3,1-0.3,1.5-0.4c0.4,0,0.7,0,1,0c0.6,0.1,0.9,0.2,1.2,0.3c0.1,0,0.2,0.1,0.3,0.1
							c0.1,0,0.1,0.1,0.1,0.1c1.3,0.6,1.9,2.1,1.3,3.3c-0.5,1.1-1.7,1.7-2.8,1.5c0,0,0-0.1,0-0.2c0-0.1,0-0.1,0-0.2l0-0.1l0-0.1v0
							l0,0l0-0.1c0-0.1,0-0.1,0-0.2c0,0,0-0.1,0,0c0,0,0,0,0,0c0,0,0,0.1-0.1,0.2c-0.1,0.1-0.3,0.3-0.4,0.3c-0.1,0-0.2,0.1-0.2,0.1
							c0,0,0,0-0.1,0c0,0,0,0,0.1,0c0,0,0.1,0,0.1,0c0,0,0,0,0,0v0c0,0,0,0,0,0c0,0,0,0,0,0c0.2,0.1,0.4,0.1,0.5,0.2
							c0,0.1,0,0.3,0,0.4c-0.1,0.7-0.2,1.4-0.3,2.1c-0.1,0.3-0.1,0.7-0.2,1l-4.6-2.2C396.3,38.7,396.3,38.3,396.3,38z"/>
						<path class="st38" d="M394.1,55L394.1,55c0,0,0.2-1.4,0.5-3.5c0.2-1.1,0.3-2.3,0.5-3.6c0.2-1.3,0.4-2.7,0.6-4.1
							c0.2-1.4,0.4-2.8,0.5-4.1c0-0.2,0-0.4,0-0.5l4.6,2.2c-0.2,1.1-0.4,2.1-0.7,3.2c-0.3,1.4-1.3,1.7-1.6,3
							c-0.3,1.3-0.6,2.5-0.9,3.6c-0.3,1-0.5,1.9-0.7,2.5c-0.2,0.6-0.3,1-0.3,1c-0.2,0.8-0.4,2.5-1.3,2.3
							C394.6,56.8,393.9,55.9,394.1,55z"/>
					</g>
				</g>
				<g>
					<path class="st29" d="M413.9,83.2c-0.1-0.6,0.1-1.5,0.1-2.5c0-1-0.3-2.2-0.3-3.5c0-1.3,0-2.7,0-4.1c0-0.7,0-3.1,0-3.8
						c0-0.7,0-1.3,0-2c0-1.3,0.1-2.5,0.1-3.5c0.1-2.1,0.2-3.5,0.2-3.5c0-0.3,0-1.3,0-1.4c0,0,0-1.6,0-2l-0.2-2.7H400l-0.1,5.3
						c0,0.2,0,0.5,0,0.7c0,0,0,0.1,0,0.2v0c0,0.4,0,0.5,0,0.5c0,0.6,0.1,1.6,0.1,2.8c0,1,0.1,2.2,0.1,3.5c0,0.6,0,1.3,0,2
						c0,0.7,0,3.1,0,3.8c0,1.4,0,2.8,0,4.1c0,1.3-0.4,2.5-0.4,3.5c0,1,0.3,1.9,0.2,2.5c-0.1,0.6-0.3,0.9-0.3,0.9
						c-0.1,0.1-0.1,0.3-0.1,0.4c0.3-0.3,0.8-0.5,1.3-0.5c0.6,0,1.3,0,1.9-0.1c0.1,0,0.3,0,0.4,0c0-0.1,0-0.3,0-0.5
						c0-0.6,0.3-1.5,0.5-2.5c0.2-1,0-2.2,0.2-3.5c0.2-1.3,0.4-2.6,0.6-4c0.1-0.7,0.2-3.1,0.3-3.8c0.1-0.7,0.2-1.3,0.3-2
						c0.2-1.3,0.3-2.5,0.5-3.5c0.4-2,0.8-3.4,0.8-3.4c0.3-0.5,0.3-1,0.3-1.4l0,0c0.1,0.4,0.3,0.9,0.5,1.4c0,0,0.4,1.4,0.8,3.4
						c0.2,1,0.3,2.2,0.5,3.5c0.1,0.6,0.2,1.3,0.3,2c0.1,0.7,0.2,3.1,0.3,3.8c0.2,1.4,0.4,2.7,0.6,4c0.2,1.3,0,2.5,0.2,3.5
						c0.2,1,0.5,1.9,0.5,2.5c0,0.4-0.1,0.7-0.1,0.9c0.2-0.1,0.4-0.1,0.6-0.1c1-0.1,1.9-0.1,2.9-0.1C414.1,84,414,83.7,413.9,83.2z"
						/>
					<path class="st11" d="M415.4,35.1c0-1.4-1.2-2.6-2.7-2.6h-1.8c-0.8,1.4-2.3,2.4-4,2.4c-1.7,0-3.2-1-4-2.4h-1.6
						c-1.5,0-2.7,1.2-2.7,2.6c0,0,1.7,3.6,1.7,15.5c0,1.2-0.1,1.3-0.1,1.3h13.5c0,0,0,0-0.1-1.5C413.1,38.4,415.4,35.1,415.4,35.1z"
						/>
					<polygon class="st39" points="400,54.3 413.9,54.3 413.7,51.9 400.2,51.9 					"/>
				</g>
				<g>
					<path d="M411.2,24.6c-0.3,0.8-0.5,1.7-0.5,2.6c-0.1,0.9-0.4,1.7-0.9,2.5c-0.3,0.1-0.6,0.2-0.9,0.3c-0.1-0.6-0.2-1.1-0.3-1.7
						c-0.4-0.3-0.8-0.6-1.4-0.7v0.6c0.4,0.1,0.7,0.2,1,0.4c0.3,0.5,0.4,1,0.5,1.5c-0.5,0.4-1.3,0.5-1.8,0.6c-0.5,0-1.1-0.2-1.6-0.6
						c0.1-0.5,0.2-1,0.5-1.5c0.3-0.2,0.6-0.3,1-0.4v-0.6c-0.5,0.1-1,0.4-1.4,0.7c-0.2,0.6-0.3,1.2-0.3,1.7c-0.3,0-0.6-0.1-0.9-0.3
						c-0.5-0.8-0.8-1.6-0.9-2.5c0-0.9-0.2-1.7-0.5-2.6l-0.5,0.2l0.6,2.6c0.2,0.9,0.6,1.7,1.2,2.5c0.3,0.2,0.6,0.4,0.8,0.7
						c0.5,0.6,1.3,1,2,1.1c0,0,0.1,0,0.1,0c0,0,0.1,0,0.1,0c0.8-0.2,1.7-0.5,2.2-1.1c0.2-0.3,0.5-0.5,0.8-0.7c0.6-0.8,1-1.6,1.2-2.5
						l0.6-2.6L411.2,24.6z"/>
					<path d="M402.2,24.8l0.7,0.3c0,0-0.3-1-0.2-1.4c0.1-0.4,0.4-2.7,1.9-2.3c1.5,0.4,2.6,0.1,2.6,0.1l0.1-2.2
						C407.3,19.3,400.9,18,402.2,24.8z"/>
					<path d="M411.7,24.8l-0.7,0.3c0,0,0.3-1,0.2-1.4c-0.1-0.4-0.4-2.7-1.9-2.3c-1.5,0.4-2.6,0.1-2.6,0.1l-0.1-2.2
						C406.6,19.3,413.1,18.1,411.7,24.8z"/>
				</g>
				<path class="st40" d="M403.7,83.2c0-1.2-0.9-2.1-2.1-2.1l0,0c-1.2,0-2.1,0.9-2.1,2.1l-0.2,1.2c0,1.2,1.1,0.7,2.3,0.7l0,0
					c1.2,0,2.3,0.5,2.3-0.7L403.7,83.2z"/>
				<path class="st40" d="M414.5,83.2c0-1.2-0.9-2.1-2.1-2.1l0,0c-1.2,0-2.1,0.9-2.1,2.1l-0.2,1.2c0,1.2,1.1,0.7,2.3,0.7l0,0
					c1.2,0,2.3,0.5,2.3-0.7L414.5,83.2z"/>
				<path d="M403.7,82.9c0-1.2-0.9-2.1-2.1-2.1l0,0c-1.2,0-2.1,0.9-2.1,2.1l-0.2,1.2c0,1.2,1.1,0.7,2.3,0.7l0,0
					c1.2,0,2.3,0.5,2.3-0.7L403.7,82.9z"/>
				<path d="M414.5,82.9c0-1.2-0.9-2.1-2.1-2.1l0,0c-1.2,0-2.1,0.9-2.1,2.1l-0.2,1.2c0,1.2,1.1,0.7,2.3,0.7l0,0
					c1.2,0,2.3,0.5,2.3-0.7L414.5,82.9z"/>
				<g>
					<path class="st41" d="M404.4,18.9c0,0-3.1,1.4-2.2,5.7c0,0,1.5-1.7,4.8-1.7l0-4.4L404.4,18.9z"/>
					<path class="st39" d="M409.6,18.9l-2.6-0.5l0,4.4c3.4,0,4.8,1.7,4.8,1.7C412.7,20.3,409.6,18.9,409.6,18.9z"/>
				</g>
				<g>
					<path class="st42" d="M402.1,24.6c-0.1-0.4-0.1-1.3-0.1-1.7C402,23.4,402,24,402.1,24.6c0,0.1,1.5-1.1,4.8-1.1v-0.6
						C403.6,22.8,402.1,24.6,402.1,24.6z"/>
					<path class="st42" d="M411.8,24.6c0,0-1.5-1.7-4.8-1.7l0,0.6C410.3,23.5,411.8,24.6,411.8,24.6c0.1-0.6,0.2-1.2,0.1-1.7
						C411.9,23.2,411.9,24.2,411.8,24.6z"/>
				</g>
				<polygon class="st41" points="412.3,51.9 401.7,51.9 403.2,41.7 410.7,41.7 				"/>
				<g>
					<polygon class="st41" points="410.7,42.3 409.3,42.1 410.7,32.5 412.2,32.5 					"/>
				</g>
				<g>
					<polygon class="st41" points="403.2,42.3 404.7,42.1 403.2,32.5 401.7,32.5 					"/>
				</g>
				<path class="st9" d="M404.1,42.3c0,0.1-0.1,0.3-0.3,0.3c-0.1,0-0.3-0.1-0.3-0.3c0-0.1,0.1-0.3,0.3-0.3
					C404,42,404.1,42.2,404.1,42.3z"/>
				<path class="st9" d="M410.2,42.3c0,0.1-0.1,0.3-0.3,0.3c-0.1,0-0.3-0.1-0.3-0.3c0-0.1,0.1-0.3,0.3-0.3
					C410.1,42,410.2,42.2,410.2,42.3z"/>
			</g>
		</g>
	</g>
</g>
</svg>
