<?xml version="1.0" encoding="utf-8"?>
<!-- Generator: Adobe Illustrator 22.0.1, SVG Export Plug-In . SVG Version: 6.00 Build 0)  -->
<svg version="1.1" id="Layer_1" xmlns="http://www.w3.org/2000/svg" xmlns:xlink="http://www.w3.org/1999/xlink" x="0px" y="0px"
	 viewBox="0 0 180 105" style="enable-background:new 0 0 180 105;" xml:space="preserve">
<style type="text/css">
	.st0{display:none;}
	.st1{display:inline;fill:#D9D9D9;}
	.st2{display:inline;}
	.st3{fill:#B72200;}
	.st4{fill:#595552;}
	.st5{fill:#F73706;}
	.st6{fill:#FE5C14;}
	.st7{fill:#262529;}
	.st8{fill:#212121;}
	.st9{fill:#FFFFFF;}
	.st10{fill:#FECD0E;}
	.st11{fill:#F4A600;}
	.st12{fill:#BDBDBD;}
	.st13{fill:#4A484B;}
	.st14{fill:#C06C09;}
	.st15{fill:#DB2A24;}
	.st16{fill:#FF6963;}
	.st17{fill:url(#SVGID_1_);}
	.st18{fill:#504E51;}
	.st19{fill:#E3E3E3;}
	.st20{fill:#1C2426;}
	.st21{fill:url(#SVGID_2_);}
	.st22{fill:#A6A6A6;}
	.st23{fill:#E3E0D7;}
	.st24{fill:#A8A291;}
	.st25{fill:#C9C9C9;}
	.st26{fill:#95C740;}
	.st27{fill:#004464;}
	.st28{fill:#086390;}
	.st29{fill:#318EB7;}
	.st30{fill:#FFD630;}
	.st31{fill:#D9D9D9;}
	.st32{fill:url(#SVGID_3_);}
	.st33{fill:url(#SVGID_4_);}
	.st34{fill:#6E6D6A;}
	.st35{fill:#C4C1BA;}
	.st36{fill:#908F8B;}
	.st37{fill:#D9D5CE;}
	.st38{fill:#EBC59B;}
	.st39{fill:#0072B0;}
	.st40{fill:#005787;}
	.st41{fill:#0083CB;}
	.st42{fill:#005887;}
</style>
<g class="st0">
	<path class="st1" d="M146.4,85c0,2.1-24.1,3.9-53.7,3.9C63,88.9,39,87.1,39,85c0-2.1,24.1-3.9,53.7-3.9
		C122.4,81.1,146.4,82.9,146.4,85z"/>
	<g class="st2">
		<g>
			<path class="st3" d="M55.3,43.3c0,0-7.8,0.4-7.5-3.4c0.2-2.3,4.1-3,5.6-2.3c0.8,0.4,2.3,1.2,1.4,2.4c-0.9,1.3,1.2,1.9,1.2,1.9
				L55.3,43.3z"/>
			<path class="st3" d="M103.9,43.3c0,0,7.8,0.4,7.5-3.4c-0.2-2.3-4.1-3-5.6-2.3c-0.8,0.4-2.3,1.2-1.4,2.4c0.9,1.3-1.1,1.9-1.1,1.9
				L103.9,43.3z"/>
			<path class="st4" d="M56.5,84.9h-3.9c-1.5,0-2.6-1.2-2.6-2.7V74h9.2v8.2C59.2,83.7,58,84.9,56.5,84.9z"/>
			<path class="st4" d="M106.5,84.9h-3.9c-1.5,0-2.6-1.2-2.6-2.7V74h9.2v8.2C109.1,83.7,107.9,84.9,106.5,84.9z"/>
			<path class="st5" d="M49.1,63.8v7.1c0,4.4,3.6,5.8,7.9,5.8h45c4.4,0,7.9-1.4,7.9-5.8v-7.1c-9.4,1.2-19.7,1.8-30.5,1.8
				C68.8,65.6,58.6,64.9,49.1,63.8z"/>
			<path class="st6" d="M109.3,53.3c-1-2-2.9-5.5-4-6.8c-1.6-1.9-1.3-5-2.1-6.1c-0.8-1.1-4-13.7-6.4-14c-17.2-2.1-32-0.3-34.4,0
				c-2.4,0.3-5.6,13-6.4,14c-0.8,1.1-0.5,4.2-2.1,6.1c-1.1,1.3-3,4.8-4,6.8c-0.4,0.8-0.7,2.1-0.7,3v7.5c9.4,1.2,19.7,1.8,30.5,1.8
				c10.8,0,21-0.6,30.5-1.8v-7.5C110,55.4,109.7,54.1,109.3,53.3z"/>
			<g>
				<path class="st7" d="M79.6,43.5c-4.9,0-20.1-0.5-20.3-0.5c-0.6,0-1.1-0.2-1.4-0.6c-0.3-0.4-0.4-0.9-0.2-1.5l3-9.6
					c2-0.1,14.6-0.5,18.9-0.5c4.4,0,16.9,0.4,18.9,0.5l3,9.6c0.1,0.5,0.1,1.1-0.2,1.4c-0.3,0.4-0.8,0.6-1.4,0.6
					C99.7,43,84.5,43.5,79.6,43.5z"/>
				<g>
					<path class="st8" d="M79.6,31.1c4.2,0,16,0.4,18.7,0.5l2.9,9.3c0.1,0.4,0.1,0.8-0.2,1.1c-0.2,0.3-0.6,0.5-1.1,0.5
						c-0.2,0-15.3,0.5-20.2,0.5c-4.9,0-20.1-0.5-20.3-0.5c-0.5,0-0.9-0.2-1.1-0.5C58,41.8,57.9,41.4,58,41l2.9-9.4
						C63.6,31.5,75.4,31.1,79.6,31.1L79.6,31.1z M79.6,30.4c-4.8,0-19.2,0.5-19.2,0.5l-3,9.9c-0.4,1.4,0.5,2.6,2,2.6
						c0,0,15.3,0.5,20.3,0.5c5,0,20.3-0.5,20.3-0.5c1.5,0,2.4-1.1,2-2.6l-3-9.9C98.8,30.9,84.4,30.4,79.6,30.4L79.6,30.4z"/>
				</g>
			</g>
			<path class="st3" d="M79.6,68.2h-25c0,0,0.4,5.8,6.5,5.8c6.1,0,18.5,0,18.5,0s12.4,0,18.5,0c6.1,0,6.5-5.8,6.5-5.8H79.6z"/>
			<path class="st3" d="M54.6,52.1c0,0,9.1,0.5,9.9,3.4c0.8,2.9-2.4,3.4-2.4,3.4s-9.5,2.7-10.3-3.4C51.2,51.5,54.6,52.1,54.6,52.1z"
				/>
			<path class="st9" d="M57.8,58c-4,0-4.3-1.9-4.4-2.7c-0.1-1,0.1-1.4,0.2-1.5c0.2-0.2,0.6-0.2,0.7-0.2l0.1,0l0.2,0
				c4.4,0.3,8.2,1.5,8.5,2.3c0.2,0.6,0,0.8,0,0.8c-0.2,0.4-0.8,0.6-1.1,0.6C61.7,57.4,59.8,58,57.8,58z"/>
			<path class="st3" d="M104.6,52.1c0,0-9.1,0.5-9.9,3.4c-0.8,2.9,2.4,3.4,2.4,3.4s9.5,2.7,10.3-3.4
				C107.9,51.5,104.6,52.1,104.6,52.1z"/>
			<path class="st9" d="M101.4,58c4,0,4.3-1.9,4.4-2.7c0.1-1-0.1-1.4-0.2-1.5c-0.2-0.2-0.6-0.2-0.7-0.2l-0.1,0l-0.2,0
				c-4.4,0.3-8.2,1.5-8.5,2.3c-0.2,0.6,0,0.8,0,0.8c0.2,0.4,0.8,0.6,1.1,0.6C97.5,57.4,99.4,58,101.4,58z"/>
			<g>
				<path class="st9" d="M87.7,69.5H71.5c-0.9,0-1.6-0.7-1.6-1.6v-2.5c0-0.9,0.7-1.6,1.6-1.6h16.3c0.9,0,1.6,0.7,1.6,1.6v2.5
					C89.3,68.8,88.6,69.5,87.7,69.5z"/>
				<g>
					<path class="st3" d="M87.7,70H71.5c-1.1,0-2.1-0.9-2.1-2.1v-2.5c0-1.1,0.9-2.1,2.1-2.1h16.3c1.1,0,2.1,0.9,2.1,2.1v2.5
						C89.8,69,88.9,70,87.7,70z M71.5,64.3c-0.6,0-1.1,0.5-1.1,1.1v2.5c0,0.6,0.5,1.1,1.1,1.1h16.3c0.6,0,1.1-0.5,1.1-1.1v-2.5
						c0-0.6-0.5-1.1-1.1-1.1H71.5z"/>
				</g>
			</g>
			<path class="st3" d="M96,58.5c-10.9,1.6-22,1.6-32.9,0c0.1-1,0.3-2,0.4-3c10.6,1.5,21.4,1.5,32.1,0C95.8,56.5,95.9,57.5,96,58.5z
				"/>
		</g>
		<g>
			<g>
				<path class="st10" d="M84.3,19c-0.7,0.3-1.2,1.1-1.2,1.8v28.4c0,0.7,0.5,1.7,1.1,2.1l22.2,16.3c0.3,0.2,0.7,0.3,1.1,0.3V12
					C101.7,12,88.4,17.3,84.3,19z"/>
				<path class="st11" d="M130.6,19c-4.1-1.7-17.4-7-23.1-7v55.9c0.4,0,0.8-0.1,1.1-0.3l22.2-16.3c0.6-0.4,1.1-1.4,1.1-2.1V20.8
					C131.8,20.1,131.3,19.2,130.6,19z"/>
			</g>
			<g>
				<path class="st9" d="M107.4,65.4l-22-16.1V21.1l0.5-0.2c3.7-1.5,16.3-6.5,21.5-6.5c4.1,0,13.8,3.3,21.5,6.5l0.5,0.2v28.3
					L107.4,65.4z M87,48.5l20.4,15l20.4-14.9V22.1c-7.2-2.9-16.6-6.2-20.4-6.2c-3.8,0-12.9,3.1-20.4,6.2V48.5z"/>
			</g>
			<path class="st9" d="M91.5,31.7c1.8,1.1,3.5,2.4,5.1,3.6c1.7,1.2,3.2,2.6,4.7,4c3.1,2.7,6,5.6,8.7,8.6l-5.6,0.6
				c2.8-5.6,6-11.1,9.4-16.4c1.7-2.6,3.5-5.2,5.5-7.8c0.9-1.3,2-2.5,3-3.8c1-1.2,2.1-2.4,3.2-3.6c-0.4,1.6-0.8,3.1-1.3,4.7
				c-0.5,1.5-1,3.1-1.5,4.5c-1.1,3-2.3,5.9-3.6,8.8c-2.6,5.8-5.5,11.3-8.7,16.8l-2.5,4.3l-3-3.7c-2.6-3.2-5-6.4-7.3-9.8
				c-1.1-1.7-2.2-3.4-3.3-5.2C93.3,35.5,92.3,33.7,91.5,31.7z"/>
		</g>
	</g>
</g>
<g class="st0">
	<path class="st1" d="M156.1,85c0,2.1-29.2,3.9-65.2,3.9c-36,0-65.2-1.7-65.2-3.9c0-2.1,29.2-3.9,65.2-3.9
		C126.9,81.1,156.1,82.9,156.1,85z"/>
	<g class="st2">
		<g>
			<path class="st10" d="M34.7,73.3c0,0-6.8-20.5,10.9-21.5c18.2-1,19.2-2.2,19.2-2.2s14.8-16.5,38.7-15c24.4,1.6,34.2,6.2,33.6,6
				c0,0,0,1.1-0.7,1c-1.3-0.2-2.9-1.1-2,1.3c1.6,3.9,9.9,8.8,10.1,14.8c0.3,6-2.3,15.6-2.3,15.6H34.7z"/>
			<path class="st12" d="M33.6,61.7c2.1,0,7,0,7.5-0.5c3.3-3.6,1.1-4.5,1.1-4.5h-6.7C34.5,58.2,33.9,59.9,33.6,61.7z"/>
			<path class="st13" d="M68.2,51.2c0.8-4.2,13.6-11.7,23.2-12.8c9.9-0.6,15.7-0.2,15.7-0.2l-0.3,13C106.8,51.2,72.7,51.2,68.2,51.2
				z"/>
			<path class="st8" d="M68.2,51.8c-0.2,0-0.3-0.1-0.4-0.2c-0.1-0.1-0.1-0.3-0.1-0.5c0.9-4.7,14.2-12.1,23.7-13.3
				c3.8-0.2,7.5-0.4,10.8-0.4c3.2,0,5,0.1,5,0.1c0.3,0,0.5,0.3,0.5,0.6l-0.3,13c0,0.3-0.3,0.5-0.6,0.6
				C106.8,51.7,72.7,51.8,68.2,51.8z M102.1,38.6c-3.3,0-6.9,0.1-10.7,0.4c-9,1.1-20.5,7.7-22.4,11.7c6.2,0,33.1-0.1,37.3-0.1
				l0.3-11.9C105.8,38.6,104.3,38.6,102.1,38.6z"/>
			<path class="st13" d="M108.8,38.2c0,0,17.1,1.3,20.6,3.9c0,0,0.4,8.4,3.5,9.2h-24.1V38.2z"/>
			<path class="st8" d="M133,51.8C133,51.8,133,51.8,133,51.8h-24.2c-0.3,0-0.6-0.3-0.6-0.6V38.2c0-0.2,0.1-0.3,0.2-0.4
				c0.1-0.1,0.3-0.2,0.4-0.1c0.7,0.1,17.3,1.4,20.9,4c0.1,0.1,0.2,0.3,0.2,0.4c0.2,3,1.1,8.1,3.1,8.7c0.3,0,0.5,0.3,0.5,0.6
				C133.5,51.5,133.3,51.8,133,51.8z M109.4,50.7h21.9c-1.8-2.2-2.3-7-2.3-8.3c-3.4-2.1-16.5-3.3-19.5-3.6V50.7z"/>
			<g>
				<path class="st14" d="M99.5,53.2c-1.3,0-2.4,0.6-2.4,1.2c0,0.7,1.1,1.2,2.4,1.2c1.3,0,2.4-0.6,2.4-1.2
					C101.9,53.8,100.8,53.2,99.5,53.2z"/>
			</g>
			<g>
				<path class="st14" d="M128.4,53.2c-1.3,0-2.4,0.6-2.4,1.2c0,0.7,1.1,1.2,2.4,1.2c1.3,0,2.4-0.6,2.4-1.2
					C130.8,53.8,129.7,53.2,128.4,53.2z"/>
			</g>
			<path class="st8" d="M132.1,54.4c0,0.3-0.2,0.5-0.5,0.5l-6.6,0c-0.3,0-0.5-0.2-0.5-0.5l0,0c0-0.3,0.2-0.5,0.5-0.5l6.6-0.3
				C131.9,53.6,132.4,53.8,132.1,54.4L132.1,54.4z"/>
			<path class="st15" d="M143.6,54.6c0.4,1.1,0.8,2.2,1.1,3.3c-0.3,3.3-0.8,6.5-1.4,9.7c-0.5-0.4-0.9-0.7-1.4-1.1
				c0-4-0.2-7.9-0.6-11.9c0.6-0.3,1.1-0.7,1.7-1C143.2,53.9,143.4,54.2,143.6,54.6z"/>
			<path class="st16" d="M143,55.2c0.3-0.1,0.6,0.3,0.8,0.8c0.2,0.4,0.3,1,0,1.1c0,0,0,0,0,0c-0.3,0.1-0.6-0.4-0.8-0.8
				C142.8,55.9,142.8,55.4,143,55.2C143,55.3,143,55.3,143,55.2z M143.6,56.2c-0.2-0.4-0.4-0.6-0.4-0.6c0,0.1,0,0.3,0.1,0.8
				c0.2,0.4,0.4,0.6,0.4,0.6C143.7,56.9,143.7,56.6,143.6,56.2z"/>
			<path class="st16" d="M143.8,57.5c0.2-0.1,0.4,0.2,0.5,0.5c0.1,0.3,0.1,0.6,0,0.7c0,0,0,0,0,0c-0.2,0.1-0.4-0.2-0.5-0.5
				C143.7,57.9,143.7,57.6,143.8,57.5C143.8,57.5,143.8,57.5,143.8,57.5z M144.2,58c-0.1-0.3-0.2-0.4-0.2-0.4c0,0,0,0.2,0.1,0.5
				c0.1,0.3,0.2,0.4,0.2,0.4C144.2,58.4,144.3,58.3,144.2,58z"/>
			<path class="st16" d="M143.6,63.3c-0.3,0.2-0.5,0.3-0.8,0.5c0,0.1,0.1,0.1,0.1,0.2c0.3-0.2,0.6-0.3,0.8-0.5
				C143.7,63.4,143.7,63.3,143.6,63.3z"/>
			<path class="st16" d="M143.6,62.2c-0.3,0.2-0.5,0.3-0.8,0.5c0,0.1,0.1,0.1,0.1,0.2c0.3-0.2,0.5-0.3,0.8-0.5
				C143.7,62.3,143.6,62.3,143.6,62.2z"/>
			<path class="st16" d="M143.6,61.2c-0.3,0.2-0.5,0.3-0.8,0.5c0,0.1,0.1,0.1,0.1,0.2c0.3-0.2,0.5-0.3,0.8-0.5
				C143.6,61.3,143.6,61.2,143.6,61.2z"/>
			<path class="st16" d="M143.5,60.2c-0.3,0.2-0.5,0.3-0.8,0.5c0,0.1,0.1,0.1,0.1,0.2c0.3-0.2,0.5-0.3,0.8-0.5
				C143.6,60.3,143.6,60.2,143.5,60.2z"/>
			<path class="st16" d="M143.5,59.1c-0.3,0.2-0.5,0.3-0.8,0.5c0,0,0.1,0.1,0.1,0.1c0.3-0.2,0.5-0.3,0.8-0.5
				C143.6,59.2,143.5,59.2,143.5,59.1z"/>
			<path class="st13" d="M134.3,43c0-0.1,0-0.1-0.1-0.1l-0.3,0.6c0,0,5,8.2,8.4,9.1C139.7,48.9,135.4,45.7,134.3,43z"/>
			<path class="st7" d="M66.5,49.1c4.5-4.8,16.2-10.5,18-11.2c0.8-0.3,0.9-0.6,0.8-0.9c-13,4.2-20.6,12.7-20.6,12.7s0,0,0,0
				C65.1,49.9,65.8,50,66.5,49.1z"/>
			<path class="st11" d="M58.2,60.5c0,0,5-2.6,16.8-2.6c11.9,0,49.4,0,49.4,0s13.7,0.1,13.7,11.3c0,2.3,0,4,0,4H58.2L58.2,60.5z"/>
			<polygon class="st8" points="108.8,51.7 105.4,51.7 105.4,37.5 108.8,37.6 			"/>
			<path d="M33.5,67.9c0.4,3.1,1.1,5.4,1.1,5.4h10.8V71h-5.6v-2.2L33.5,67.9z"/>
			<linearGradient id="SVGID_1_" gradientUnits="userSpaceOnUse" x1="90.229" y1="73.3037" x2="90.229" y2="72.2341">
				<stop  offset="0" style="stop-color:#5F5A5E"/>
				<stop  offset="0.2754" style="stop-color:#262529"/>
				<stop  offset="0.4762" style="stop-color:#29282C"/>
				<stop  offset="0.6286" style="stop-color:#333135"/>
				<stop  offset="0.7647" style="stop-color:#434144"/>
				<stop  offset="0.8093" style="stop-color:#4A484B"/>
			</linearGradient>
			<polygon class="st17" points="70.9,73.3 109.6,73.3 109.6,72.2 71.2,72.2 			"/>
			<path d="M121.8,60.5c-5.2,0-9.7,3.1-11.8,7.5c0,0-1.3,2.3-1.2,5.5c1.5,0,2.5,0,2.5,0h23.5C134.8,66.3,129,60.5,121.8,60.5z"/>
			<path class="st18" d="M133,73.5c0,6.2-5,11.1-11.1,11.1c-6.2,0-11.1-5-11.1-11.1c0-6.2,5-11.1,11.1-11.1
				C128,62.3,133,67.3,133,73.5z"/>
			<path class="st19" d="M121.8,80c-3.6,0-6.5-2.9-6.5-6.5c0-3.6,2.9-6.5,6.5-6.5c3.6,0,6.5,2.9,6.5,6.5
				C128.3,77.1,125.4,80,121.8,80z"/>
			<path class="st20" d="M121.8,75.3c-1,0-1.9-0.8-1.9-1.9c0-1,0.8-1.9,1.9-1.9c1,0,1.9,0.8,1.9,1.9
				C123.7,74.5,122.8,75.3,121.8,75.3z"/>
			<path d="M58.2,60.5c-5.2,0-9.7,3.1-11.8,7.5c0,0-1.3,2.3-1.2,5.5c1.5,0,2.5,0,2.5,0h23.5C71.2,66.3,65.4,60.5,58.2,60.5z"/>
			<path class="st18" d="M69.4,73.5c0,6.2-5,11.1-11.1,11.1c-6.2,0-11.1-5-11.1-11.1c0-6.2,5-11.1,11.1-11.1
				C64.4,62.3,69.4,67.3,69.4,73.5z"/>
			<path class="st19" d="M58.2,80c-3.6,0-6.5-2.9-6.5-6.5c0-3.6,2.9-6.5,6.5-6.5c3.6,0,6.5,2.9,6.5,6.5C64.7,77.1,61.8,80,58.2,80z"
				/>
			<path class="st20" d="M58.2,75.3c-1,0-1.9-0.8-1.9-1.9c0-1,0.8-1.9,1.9-1.9c1,0,1.9,0.8,1.9,1.9C60.1,74.5,59.2,75.3,58.2,75.3z"
				/>
			<path d="M142.8,70.2l-4.7-1l-3.2,4h7.1C142,73.3,142.4,72.1,142.8,70.2z"/>
			<linearGradient id="SVGID_2_" gradientUnits="userSpaceOnUse" x1="69.4175" y1="49.3599" x2="69.4175" y2="51.5691">
				<stop  offset="0" style="stop-color:#5F5A5E"/>
				<stop  offset="0.2754" style="stop-color:#000000"/>
				<stop  offset="0.7541" style="stop-color:#000000"/>
				<stop  offset="0.8093" style="stop-color:#000000"/>
			</linearGradient>
			<polygon class="st21" points="69.4,49.4 68.1,50.8 68.9,51.6 70.7,51 			"/>
			<path class="st22" d="M74.3,50.2l-0.6-4.2c-0.1-0.7-1-1.1-2-0.8c-2.1,0.8-2.9,5.1-2.8,5.3c0.5,1.1,2,1,3.6,1
				C73.6,51.6,74.4,51,74.3,50.2z"/>
			<path class="st8" d="M103.2,54.4c0,0.3-0.2,0.5-0.5,0.5l-6.6,0c-0.3,0-0.5-0.2-0.5-0.5l0,0c0-0.3,0.2-0.5,0.5-0.5l6.6-0.3
				C103,53.6,103.5,53.8,103.2,54.4L103.2,54.4z"/>
		</g>
		<path class="st9" d="M60.7,64.9c-7.3-0.2-14.1-3.2-19.2-8.5c-5.1-5.3-7.8-12.3-7.6-19.6C34.2,22,46.6,10,61.3,10l0.7,0
			c7.3,0.2,14.1,3.2,19.2,8.5c5.1,5.3,7.8,12.3,7.6,19.6c-0.3,14.8-12.7,26.8-27.4,26.8L60.7,64.9z"/>
		<g>
			<g>
				<g>
					<path class="st10" d="M36.4,36.9c0.3-13.8,11.8-24.7,25.5-24.4c13.8,0.3,24.7,11.8,24.4,25.5C86,51.8,74.5,62.7,60.8,62.4
						C47,62.1,36.1,50.7,36.4,36.9z"/>
					<g>
						<path class="st3" d="M61.9,11.9C76,12.2,87.2,24,86.9,38.1C86.6,52.2,74.8,63.3,60.7,63c-14.1-0.3-25.3-12.1-24.9-26.2
							C36.1,22.8,47.9,11.6,61.9,11.9z M60.8,61.8C74.2,62.1,85.4,51.5,85.7,38C86,24.6,75.4,13.4,61.9,13.1
							C48.5,12.8,37.3,23.5,37,36.9C36.7,50.3,47.3,61.5,60.8,61.8z"/>
					</g>
					<path class="st6" d="M38.8,36.9c0.3-12.5,10.6-22.3,23.1-22c12.5,0.3,22.3,10.6,22,23.1c-0.3,12.5-10.6,22.3-23.1,22
						C48.3,59.7,38.5,49.4,38.8,36.9z"/>
				</g>
				<path class="st9" d="M71.7,44c-0.1-5.7-4.7-7.7-8.7-9.1l0.1-7.5c1.8,0.5,3.5,1.6,5,2.6l0.7,0.5l2.3-4.4l-0.5-0.4
					c-2.6-1.8-4.9-2.8-7.4-3.1l0-2.6L61,20l0,2.6c-5,0.2-8.7,3.7-8.7,8c0.1,5.3,4.7,7.2,8.4,8.6l-0.1,8.4c-2.4-0.6-4.9-2.3-6.5-4
					l-0.6-0.6l-2.9,4.3l0.5,0.4c2.8,2.5,6.2,4.1,9.5,4.6l0,2.7l2.3,0l0-2.6C67.1,52.4,71.8,49.2,71.7,44z M57.5,30.6
					c0-2,1.7-3.3,3.4-3.5l-0.1,6.9C59.1,33.3,57.6,32.2,57.5,30.6z M62.9,47.8L63,40c2,0.8,3.5,1.8,3.5,4.2
					C66.5,46.7,64.6,47.6,62.9,47.8z"/>
			</g>
		</g>
	</g>
</g>
<g class="st0">
	<g class="st2">
		<g>
			<g>
				<g>
					<polygon class="st23" points="118,85.9 64,85.9 64,16 110.5,16 118,22 					"/>
				</g>
				<g>
					<g>
						<rect x="103.9" y="26.9" class="st24" width="7.6" height="1.6"/>
					</g>
					<g>
						<rect x="103.9" y="33.2" class="st24" width="7.6" height="1.6"/>
					</g>
					<g>
						<rect x="103.9" y="39.5" class="st24" width="7.6" height="1.6"/>
					</g>
					<g>
						<rect x="70.6" y="26.9" class="st24" width="7.6" height="1.6"/>
					</g>
					<g>
						<rect x="70.6" y="33.2" class="st24" width="7.6" height="1.6"/>
					</g>
					<g>
						<rect x="70.6" y="39.5" class="st24" width="7.6" height="1.6"/>
					</g>
					<g>
						<rect x="70.8" y="45.9" class="st24" width="40.7" height="1.6"/>
					</g>
					<g>
						<rect x="70.8" y="52.2" class="st24" width="40.7" height="1.6"/>
					</g>
					<g>
						<rect x="70.8" y="58.5" class="st24" width="40.7" height="1.6"/>
					</g>
					<g>
						<rect x="70.8" y="64.8" class="st24" width="40.7" height="1.6"/>
					</g>
					<g>
						<rect x="70.8" y="71.1" class="st24" width="40.7" height="1.6"/>
					</g>
					<g>
						<rect x="70.8" y="77.4" class="st24" width="40.7" height="1.6"/>
					</g>
				</g>
			</g>
			<g>
				<path class="st25" d="M109.8,16l2.4,6.6L118,22C118,22,117.3,16.4,109.8,16z"/>
			</g>
			<g>
				<g>
					<polygon class="st26" points="70.5,74.9 65,70.5 59.6,74.9 59.6,47.1 70.5,47.1 					"/>
				</g>
				<g>
					<path class="st6" d="M66.4,51.7c-0.7-0.6-2-0.6-2.7,0c-0.7,0.6-1.6,0.3-2-0.5c-0.4-0.9-1.4-1.5-2.3-1.3
						c-0.9,0.1-1.6-0.5-1.5-1.5c0.1-0.9-0.5-2-1.4-2.3c-0.9-0.4-1.1-1.3-0.5-2c0.6-0.7,0.6-2,0-2.7c-0.6-0.7-0.3-1.6,0.5-2
						c0.9-0.4,1.5-1.4,1.3-2.3c-0.1-0.9,0.5-1.6,1.5-1.5c0.9,0.1,2-0.5,2.3-1.4c0.4-0.9,1.3-1.1,2-0.5c0.7,0.6,2,0.6,2.7,0
						c0.7-0.6,1.6-0.3,2,0.5c0.4,0.9,1.4,1.5,2.3,1.3c0.9-0.1,1.6,0.5,1.5,1.5c-0.1,0.9,0.5,2,1.4,2.3c0.9,0.4,1.1,1.3,0.5,2
						c-0.6,0.7-0.6,2,0,2.7c0.6,0.7,0.3,1.6-0.5,2c-0.9,0.4-1.5,1.4-1.3,2.3c0.1,0.9-0.5,1.6-1.5,1.5c-0.9-0.1-2,0.5-2.3,1.4
						C68.1,52,67.2,52.2,66.4,51.7z"/>
				</g>
				<g>
					<path class="st3" d="M63.7,47.8c-0.7-0.6-1.5-1.1-2.4-1.4c-0.3-0.9-0.8-1.7-1.4-2.4c0.2-0.9,0.2-1.9,0-2.8
						c0.6-0.7,1.1-1.5,1.4-2.4c0.9-0.3,1.7-0.8,2.4-1.4c0.4,0.1,0.9,0.2,1.4,0.2c0.5,0,1-0.1,1.4-0.2c0.7,0.6,1.5,1.1,2.4,1.4
						c0.3,0.9,0.8,1.7,1.4,2.4c-0.2,0.9-0.2,1.9,0,2.8c-0.6,0.7-1.1,1.5-1.4,2.4c-0.9,0.3-1.7,0.8-2.4,1.4c-0.4-0.1-0.9-0.2-1.4-0.2
						C64.6,47.7,64.1,47.7,63.7,47.8z"/>
				</g>
			</g>
		</g>
		<g>
			<polygon class="st9" points="65,39.5 66.3,41.2 68.3,41.9 67.2,43.7 67.1,45.8 65,45.2 63,45.8 62.9,43.7 61.7,41.9 63.7,41.2 
							"/>
		</g>
	</g>
	<g class="st2">
		<path class="st27" d="M82.4,27.9c0,0-2.8,0.2-2.7-1.2c0.1-0.8,1.5-1.1,2-0.8c0.3,0.1,0.8,0.4,0.5,0.9c-0.3,0.5,0.4,0.7,0.4,0.7
			L82.4,27.9z"/>
		<path class="st27" d="M99.9,27.9c0,0,2.8,0.2,2.7-1.2c-0.1-0.8-1.5-1.1-2-0.8c-0.3,0.1-0.8,0.4-0.5,0.9c0.3,0.5-0.4,0.7-0.4,0.7
			L99.9,27.9z"/>
		<path class="st4" d="M82.9,42.8h-1.4c-0.5,0-1-0.4-1-1v-3h3.3v3C83.8,42.4,83.4,42.8,82.9,42.8z"/>
		<path class="st4" d="M100.8,42.8h-1.4c-0.5,0-1-0.4-1-1v-3h3.3v3C101.8,42.4,101.3,42.8,100.8,42.8z"/>
		<path class="st28" d="M80.2,35.2v2.5c0,1.6,1.3,2.1,2.9,2.1h16.2c1.6,0,2.9-0.5,2.9-2.1v-2.5c-3.4,0.4-7.1,0.6-10.9,0.6
			C87.3,35.9,83.6,35.7,80.2,35.2z"/>
		<path class="st29" d="M101.8,31.5c-0.4-0.7-1.1-2-1.5-2.4c-0.6-0.7-0.5-1.8-0.8-2.2c-0.3-0.4-1.4-4.9-2.3-5
			c-6.2-0.8-11.5-0.1-12.4,0c-0.9,0.1-2,4.7-2.3,5c-0.3,0.4-0.2,1.5-0.8,2.2c-0.4,0.5-1.1,1.7-1.5,2.4c-0.1,0.3-0.3,0.8-0.3,1.1v2.7
			c3.4,0.4,7.1,0.6,10.9,0.6c3.9,0,7.6-0.2,10.9-0.6v-2.7C102.1,32.2,102,31.8,101.8,31.5z"/>
		<g>
			<path class="st7" d="M91.2,28c-1.8,0-7.2-0.2-7.3-0.2c-0.2,0-0.4-0.1-0.5-0.2c-0.1-0.1-0.1-0.3-0.1-0.5l1.1-3.5
				c0.7,0,5.2-0.2,6.8-0.2c1.6,0,6.1,0.2,6.8,0.2L99,27c0.1,0.2,0,0.4-0.1,0.5c-0.1,0.1-0.3,0.2-0.5,0.2C98.4,27.8,92.9,28,91.2,28z
				"/>
			<g>
				<path class="st8" d="M91.2,23.5c1.5,0,5.7,0.1,6.7,0.2l1,3.4c0,0.2,0,0.3-0.1,0.4c-0.1,0.1-0.2,0.2-0.4,0.2
					c-0.1,0-5.5,0.2-7.3,0.2c-1.8,0-7.2-0.2-7.3-0.2c-0.2,0-0.3-0.1-0.4-0.2c-0.1-0.1-0.1-0.2-0.1-0.4l1-3.4
					C85.4,23.7,89.7,23.5,91.2,23.5L91.2,23.5z M91.2,23.2c-1.7,0-6.9,0.2-6.9,0.2L83.2,27c-0.1,0.5,0.2,0.9,0.7,0.9
					c0,0,5.5,0.2,7.3,0.2c1.8,0,7.3-0.2,7.3-0.2c0.5,0,0.9-0.4,0.7-0.9l-1.1-3.6C98.1,23.4,92.9,23.2,91.2,23.2L91.2,23.2z"/>
			</g>
		</g>
		<path class="st27" d="M91.2,36.8h-9c0,0,0.1,2.1,2.3,2.1c2.2,0,6.7,0,6.7,0s4.5,0,6.7,0c2.2,0,2.3-2.1,2.3-2.1H91.2z"/>
		<path class="st27" d="M82.2,31c0,0,3.3,0.2,3.6,1.2c0.3,1-0.9,1.2-0.9,1.2s-3.4,1-3.7-1.2C81,30.8,82.2,31,82.2,31z"/>
		<path class="st27" d="M100.1,31c0,0-3.3,0.2-3.6,1.2c-0.3,1,0.9,1.2,0.9,1.2s3.4,1,3.7-1.2C101.3,30.8,100.1,31,100.1,31z"/>
		<g>
			<path class="st9" d="M94.1,37.3h-5.8c-0.3,0-0.6-0.3-0.6-0.6v-0.9c0-0.3,0.3-0.6,0.6-0.6h5.8c0.3,0,0.6,0.3,0.6,0.6v0.9
				C94.7,37,94.4,37.3,94.1,37.3z"/>
			<g>
				<path class="st27" d="M94.1,37.5h-5.8c-0.4,0-0.7-0.3-0.7-0.7v-0.9c0-0.4,0.3-0.7,0.7-0.7h5.8c0.4,0,0.7,0.3,0.7,0.7v0.9
					C94.8,37.1,94.5,37.5,94.1,37.5z M88.2,35.4c-0.2,0-0.4,0.2-0.4,0.4v0.9c0,0.2,0.2,0.4,0.4,0.4h5.8c0.2,0,0.4-0.2,0.4-0.4v-0.9
					c0-0.2-0.2-0.4-0.4-0.4H88.2z"/>
			</g>
		</g>
		<path class="st30" d="M85.3,32.6c0,0.4-0.3,0.8-0.8,0.8c-0.4,0-0.8-0.3-0.8-0.8c0-0.4,0.3-0.8,0.8-0.8
			C84.9,31.9,85.3,32.2,85.3,32.6z"/>
		<path class="st30" d="M83.6,32.3c0,0.6-0.5,1.1-1.1,1.1c-0.6,0-1.1-0.5-1.1-1.1c0-0.6,0.5-1.1,1.1-1.1
			C83.1,31.2,83.6,31.7,83.6,32.3z"/>
		<path class="st30" d="M97.1,32.6c0,0.4,0.3,0.8,0.8,0.8c0.4,0,0.8-0.3,0.8-0.8c0-0.4-0.3-0.8-0.8-0.8
			C97.4,31.9,97.1,32.2,97.1,32.6z"/>
		<path class="st30" d="M98.7,32.3c0,0.6,0.5,1.1,1.1,1.1c0.6,0,1.1-0.5,1.1-1.1c0-0.6-0.5-1.1-1.1-1.1
			C99.2,31.2,98.7,31.7,98.7,32.3z"/>
		<path class="st27" d="M97.1,33.3c-3.9,0.6-7.9,0.6-11.8,0c0.1-0.4,0.1-0.7,0.2-1.1c3.8,0.5,7.7,0.5,11.5,0
			C97,32.6,97,33,97.1,33.3z"/>
	</g>
</g>
<g>
	<path class="st31" d="M167,85.1c0,2.1-33.5,3.7-74.7,3.7c-41.3,0-74.7-1.7-74.7-3.7c0-2.1,33.5-3.7,74.7-3.7
		C133.5,81.4,167,83.1,167,85.1z"/>
	<g>
		<g>
			<path class="st29" d="M38.3,73.9c0,0-6.8-20.4,10.8-21.4c18-1,19-2.1,19-2.1s14.7-16.4,38.4-14.9c24.2,1.6,33.9,6.2,33.4,5.9
				c0,0,0,1.1-0.7,1c-1.3-0.2-2.9-1.1-2,1.3c1.5,3.9,9.8,8.8,10.1,14.7c0.3,5.9-2.3,15.5-2.3,15.5H38.3z"/>
			<path class="st12" d="M37.3,62.4c2.1,0,7,0,7.5-0.5c3.3-3.5,1-4.5,1-4.5h-6.7C38.2,58.9,37.6,60.6,37.3,62.4z"/>
			<path class="st13" d="M71.7,52c0.8-4.2,13.5-11.6,23-12.8c9.9-0.6,15.6-0.2,15.6-0.2L110,51.9C110,51.9,76.1,52,71.7,52z"/>
			<path class="st8" d="M71.7,52.5c-0.2,0-0.3-0.1-0.4-0.2c-0.1-0.1-0.1-0.3-0.1-0.5c0.9-4.7,14.1-12.1,23.5-13.2
				c3.8-0.2,7.4-0.4,10.7-0.4c3.2,0,4.9,0.1,5,0.1c0.3,0,0.5,0.3,0.5,0.6l-0.3,12.9c0,0.3-0.3,0.5-0.6,0.5
				C110,52.4,76.1,52.5,71.7,52.5z M105.4,39.4c-3.3,0-6.9,0.1-10.6,0.4c-9,1.1-20.4,7.7-22.3,11.7c6.1,0,32.9-0.1,37.1-0.1
				l0.3-11.9C109,39.4,107.5,39.4,105.4,39.4z"/>
			<path class="st13" d="M112,39c0,0,17,1.3,20.5,3.8c0,0,0.4,8.3,3.5,9.1h-24V39z"/>
			<path class="st8" d="M136,52.5C136,52.5,136,52.5,136,52.5h-24c-0.3,0-0.6-0.2-0.6-0.6V39c0-0.2,0.1-0.3,0.2-0.4
				c0.1-0.1,0.3-0.2,0.4-0.1c0.7,0.1,17.2,1.4,20.8,3.9c0.1,0.1,0.2,0.3,0.2,0.4c0.2,3,1.1,8,3,8.6c0.3,0,0.5,0.3,0.5,0.6
				C136.6,52.3,136.3,52.5,136,52.5z M112.6,51.4h21.7c-1.8-2.2-2.2-6.9-2.3-8.3c-3.4-2-16.4-3.3-19.4-3.5V51.4z"/>
			<g>
				<path class="st28" d="M102.8,53.9c-1.3,0-2.4,0.6-2.4,1.2s1.1,1.2,2.4,1.2c1.3,0,2.4-0.6,2.4-1.2S104.1,53.9,102.8,53.9z"/>
			</g>
			<g>
				<path class="st28" d="M131.5,53.9c-1.3,0-2.4,0.6-2.4,1.2s1.1,1.2,2.4,1.2c1.3,0,2.4-0.6,2.4-1.2S132.8,53.9,131.5,53.9z"/>
			</g>
			<path class="st8" d="M135.2,55.1c0,0.3-0.2,0.5-0.5,0.5l-6.6,0c-0.3,0-0.5-0.2-0.5-0.5l0,0c0-0.3,0.2-0.5,0.5-0.5l6.6-0.3
				C134.9,54.3,135.4,54.5,135.2,55.1L135.2,55.1z"/>
			<path class="st15" d="M146.6,55.3c0.4,1.1,0.8,2.2,1.1,3.3c-0.3,3.2-0.8,6.4-1.4,9.6c-0.5-0.4-0.9-0.7-1.4-1.1
				c0-4-0.2-7.9-0.6-11.8c0.6-0.3,1.1-0.7,1.7-1C146.2,54.6,146.4,54.9,146.6,55.3z"/>
			<path class="st16" d="M146,55.9c0.3-0.1,0.6,0.3,0.8,0.8c0.2,0.4,0.3,1,0,1.1c0,0,0,0,0,0c-0.3,0.1-0.6-0.4-0.8-0.8
				C145.8,56.6,145.7,56.1,146,55.9C146,56,146,55.9,146,55.9z M146.5,56.8c-0.2-0.4-0.4-0.6-0.4-0.6c0,0.1,0,0.3,0.1,0.8
				c0.2,0.4,0.4,0.6,0.4,0.6C146.7,57.6,146.7,57.3,146.5,56.8z"/>
			<path class="st16" d="M146.8,58.1c0.2-0.1,0.4,0.2,0.5,0.5c0.1,0.3,0.1,0.6,0,0.7c0,0,0,0,0,0c-0.2,0.1-0.3-0.2-0.5-0.5
				C146.7,58.5,146.7,58.2,146.8,58.1C146.8,58.1,146.8,58.1,146.8,58.1z M147.1,58.7c-0.1-0.3-0.2-0.4-0.2-0.4c0,0,0,0.2,0.1,0.5
				c0.1,0.3,0.2,0.4,0.2,0.4C147.2,59.1,147.2,58.9,147.1,58.7z"/>
			<path class="st16" d="M146.6,63.9c-0.3,0.2-0.5,0.3-0.8,0.5c0,0.1,0.1,0.1,0.1,0.2c0.3-0.2,0.5-0.3,0.8-0.5
				C146.7,64,146.7,64,146.6,63.9z"/>
			<path class="st16" d="M146.6,62.9c-0.3,0.2-0.5,0.3-0.8,0.5c0,0,0.1,0.1,0.1,0.2c0.3-0.2,0.5-0.3,0.8-0.5
				C146.7,63,146.6,62.9,146.6,62.9z"/>
			<path class="st16" d="M146.6,61.9c-0.3,0.2-0.5,0.3-0.8,0.5c0,0.1,0.1,0.1,0.1,0.2c0.3-0.2,0.5-0.3,0.8-0.5
				C146.6,62,146.6,61.9,146.6,61.9z"/>
			<path class="st16" d="M146.5,60.8c-0.3,0.2-0.5,0.3-0.8,0.5c0,0,0.1,0.1,0.1,0.1c0.3-0.2,0.5-0.3,0.8-0.5
				C146.6,60.9,146.6,60.9,146.5,60.8z"/>
			<path class="st16" d="M146.5,59.8c-0.3,0.2-0.5,0.3-0.8,0.5c0,0,0.1,0.1,0.1,0.1c0.3-0.2,0.5-0.3,0.8-0.5
				C146.5,59.9,146.5,59.9,146.5,59.8z"/>
			<path class="st13" d="M137.3,43.7c0,0,0-0.1,0-0.1l-0.3,0.6c0,0,5,8.2,8.3,9.1C142.7,49.6,138.4,46.4,137.3,43.7z"/>
			<path class="st7" d="M70,49.8c4.5-4.7,16.1-10.5,17.9-11.2c0.8-0.3,0.9-0.6,0.8-0.9c-13,4.2-20.5,12.6-20.5,12.6s0,0,0,0
				C68.6,50.6,69.2,50.7,70,49.8z"/>
			<path class="st28" d="M61.7,61.1c0,0,4.9-2.6,16.7-2.6c11.8,0,49.1,0,49.1,0s13.6,0.1,13.6,11.3c0,2.3,0,4,0,4H61.7V61.1z"/>
			<polygon class="st8" points="112,52.4 108.7,52.4 108.7,38.3 112,38.4 			"/>
			<path d="M37.2,68.5c0.4,3.1,1.1,5.3,1.1,5.3H49v-2.3h-5.6v-2.2L37.2,68.5z"/>
			<linearGradient id="SVGID_3_" gradientUnits="userSpaceOnUse" x1="93.5511" y1="73.8842" x2="93.5511" y2="72.8219">
				<stop  offset="0" style="stop-color:#5F5A5E"/>
				<stop  offset="0.2754" style="stop-color:#262529"/>
				<stop  offset="0.4762" style="stop-color:#29282C"/>
				<stop  offset="0.6286" style="stop-color:#333135"/>
				<stop  offset="0.7647" style="stop-color:#434144"/>
				<stop  offset="0.8093" style="stop-color:#4A484B"/>
			</linearGradient>
			<polygon class="st32" points="74.3,73.9 112.8,73.9 112.8,72.8 74.6,72.8 			"/>
			<path d="M124.9,61.1c-5.2,0-9.6,3.1-11.7,7.4c0,0-1.2,2.3-1.2,5.5c1.5,0,2.5,0,2.5,0h23.4C137.9,66.9,132.1,61.1,124.9,61.1z"/>
			<path class="st18" d="M136,74.1c0,6.1-5,11.1-11.1,11.1c-6.1,0-11.1-5-11.1-11.1c0-6.1,5-11.1,11.1-11.1
				C131.1,63,136,67.9,136,74.1z"/>
			<path class="st19" d="M124.9,80.5c-3.6,0-6.5-2.9-6.5-6.5c0-3.6,2.9-6.5,6.5-6.5c3.6,0,6.5,2.9,6.5,6.5
				C131.4,77.6,128.5,80.5,124.9,80.5z"/>
			<path class="st20" d="M124.9,75.9c-1,0-1.8-0.8-1.8-1.8c0-1,0.8-1.8,1.8-1.8c1,0,1.8,0.8,1.8,1.8C126.8,75.1,126,75.9,124.9,75.9
				z"/>
			<path d="M61.7,61.1c-5.2,0-9.6,3.1-11.7,7.4c0,0-1.2,2.3-1.2,5.5c1.5,0,2.5,0,2.5,0h23.4C74.7,66.9,68.9,61.1,61.7,61.1z"/>
			<path class="st18" d="M72.8,74.1c0,6.1-5,11.1-11.1,11.1c-6.1,0-11.1-5-11.1-11.1c0-6.1,5-11.1,11.1-11.1
				C67.9,63,72.8,67.9,72.8,74.1z"/>
			<path class="st19" d="M61.7,80.5c-3.6,0-6.5-2.9-6.5-6.5c0-3.6,2.9-6.5,6.5-6.5c3.6,0,6.5,2.9,6.5,6.5
				C68.2,77.6,65.3,80.5,61.7,80.5z"/>
			<path class="st20" d="M61.7,75.9c-1,0-1.8-0.8-1.8-1.8c0-1,0.8-1.8,1.8-1.8c1,0,1.8,0.8,1.8,1.8C63.6,75.1,62.8,75.9,61.7,75.9z"
				/>
			<path d="M145.8,70.8l-4.6-0.9l-3.2,4h7.1C145,73.9,145.4,72.6,145.8,70.8z"/>
			<linearGradient id="SVGID_4_" gradientUnits="userSpaceOnUse" x1="72.8715" y1="50.0918" x2="72.8715" y2="52.2871">
				<stop  offset="0" style="stop-color:#5F5A5E"/>
				<stop  offset="0.2754" style="stop-color:#000000"/>
				<stop  offset="0.7541" style="stop-color:#000000"/>
				<stop  offset="0.8093" style="stop-color:#000000"/>
			</linearGradient>
			<polygon class="st33" points="72.9,50.1 71.6,51.5 72.4,52.3 74.2,51.7 			"/>
			<path class="st22" d="M77.7,51l-0.6-4.1c-0.1-0.7-1-1.1-2-0.8c-2.1,0.8-2.9,5.1-2.8,5.3c0.5,1.1,2,1,3.6,1
				C77.1,52.3,77.8,51.7,77.7,51z"/>
			<path class="st8" d="M106.5,55.1c0,0.3-0.2,0.5-0.5,0.5l-6.6,0c-0.3,0-0.5-0.2-0.5-0.5l0,0c0-0.3,0.2-0.5,0.5-0.5l6.6-0.3
				C106.3,54.3,106.7,54.5,106.5,55.1L106.5,55.1z"/>
		</g>
		<g>
			<path class="st9" d="M75.8,86.7c-0.2,0-0.5,0-0.8-0.1c-0.2,0-0.4,0-0.7,0c-0.2,0-0.5,0-0.7,0c-0.3,0-0.5,0.1-0.8,0.1
				c-1.4,0-2.3-0.9-2.3-2.3l0-0.2c0,0,0-0.3,0-0.3l0.2-1.2c0-0.3,0.1-0.6,0.1-0.9c0-0.2-0.1-0.4-0.1-0.6c-0.1-0.6-0.1-1.3-0.1-1.9
				c0-0.6,0-1.1-0.1-1.6c-0.1-0.8-0.6-4-0.6-4c-0.1-0.3-0.1-1.2-0.2-2c0-0.7-0.1-1.4-0.2-1.7l-0.3-2c-0.1-0.5-0.2-1-0.2-1.5
				c-0.1,0.5-0.1,1-0.2,1.5l-0.3,2c-0.1,0.3-0.1,1-0.2,1.7c-0.1,0.8-0.1,1.7-0.2,2c0,0-0.5,3.2-0.6,4c-0.1,0.5-0.1,1-0.1,1.6
				c0,0.6,0,1.3-0.1,2c-0.1,0.3-0.1,0.5-0.2,0.7c0.1,0.3,0.1,0.5,0.1,0.8l0.2,1.2v0.4c0,1.4-0.9,2.3-2.3,2.3c-0.2,0-0.5,0-0.8-0.1
				c-0.2,0-0.4,0-0.7,0s-0.5,0-0.7,0c-0.3,0-0.5,0.1-0.8,0.1c-1.4,0-2.3-0.9-2.3-2.3l0-0.2c0,0,0-0.3,0-0.3l0.2-1.2
				c0-0.6,0.2-1.1,0.4-1.6c0-0.1,0-0.3,0-0.4c0-0.6,0.1-1.2,0.2-1.8c0.1-0.6,0.2-1.2,0.2-1.7c0-0.8,0-1.7,0-2.6c0,0-0.1-4.9-0.1-5.2
				l0-2c0-1.3-0.1-2.5-0.1-3.5c0-1.1-0.1-2-0.1-2.6c0-0.1,0-0.1,0-0.2c0,0-0.1,0.1-0.1,0.1L60,61.3c-0.1,0.2-0.2,0.5-0.4,0.7
				c-0.3,0.4-0.8,0.6-1.3,0.7l-0.2,0l-0.9-0.1c0,0-0.2,0-0.2,0l-0.4-0.1l-0.1,0c-0.3-0.1-0.5-0.2-0.7-0.4l0,0
				c-0.3-0.1-0.5-0.2-0.7-0.4l-0.1,0l-0.1,0c-0.4-0.2-0.8-0.5-0.9-0.9c-0.2-0.5-0.2-1-0.1-1.4l0-0.1c0-0.4,0-0.9,0.1-1.1
				c0.1-0.7,0.5-2.5,0.5-2.8c0-0.1,0-0.2,0-0.2l1.1-7.1l0.6-4.1c0.2-1.4,0.4-2.7,0.5-4l0-0.5c0-0.4,0.1-0.8,0.1-1.1l0-0.7
				c0-0.6,0.1-1.2,0.2-1.8c0.2-0.8,0.5-1.5,1-2.1c0.5-0.7,1.3-1.3,2.1-1.7c0.6-0.3,1.3-0.4,2-0.5c0.1,0,0.2,0,0.3,0
				C62.7,31,63,31,63.3,31h1.2c0.1-0.2,0.1-0.3,0.1-0.5c0,0-0.1-0.3-0.1-0.3c-0.5-0.8-0.9-1.7-1.1-2.5l-0.1-0.6l0,0l-0.5-2.2
				c-0.1-0.5-0.1-0.9-0.2-1.4c0-0.2,0-0.4,0-0.6l0-0.1c0.1-3,2.1-4.7,3.3-5.3l0.2-0.1l1.5-0.3v-0.6l1.5,0.3l1.5-0.3v0.6l1.6,0.3
				l0.2,0.1c1.2,0.5,3.2,2.3,3.3,5.4l-1,0l1,0c0,0.2,0,0.4,0,0.6c0,0.1,0,0.2,0,0.3l0,0l0,0.2c0,0.3-0.1,0.7-0.1,1l-0.5,2.3
				l-0.1-0.1l-0.1,0.5c-0.2,0.9-0.6,1.8-1.1,2.6c0.1,0.2,0.1,0.4,0.2,0.7h1c0.3,0,0.6,0,0.9,0.1c0.1,0,0.1,0,0.2,0
				c0.1,0,0.3,0,0.5,0c0.7,0.1,1.4,0.2,2,0.5c0.8,0.4,1.6,1,2.1,1.7c0.5,0.6,0.8,1.3,1,2.1c0.1,0.6,0.2,1.2,0.2,1.8l0,0.7
				c0,0.3,0,0.7,0.1,1.1l0,0.5c0.1,1.3,0.3,2.6,0.5,4l0.6,4.1l1,6.9c0.2-0.1,0.3-0.2,0.5-0.2c0.4-0.2,0.9-0.2,1.3-0.2
				c0.7,0,1.4,0.2,2,0.6c0,0,0.8,0.4,1.4,1.7c0.5,1.3,0.3,2.3,0.3,2.3l-0.1,0.2c-0.3,1.1-1.2,2.1-2.3,2.5c-0.4,0.2-0.9,0.2-1.3,0.2
				c-0.6,0-1.2-0.1-1.7-0.4c-0.1,0.1-0.3,0.2-0.4,0.3l-0.1,0.1l-0.1,0c-0.2,0.2-0.5,0.3-0.7,0.4l0,0c-0.2,0.2-0.5,0.4-0.8,0.5
				l-0.3,0.1l-0.2,0l-0.8,0.1l-0.2,0c-0.4,0.9-1.1,1.7-2.1,2.1c-0.2,0.1-0.3,0.1-0.5,0.2c0,0.8-0.1,1.6-0.1,2.5l0,2
				c0,0.3-0.1,7-0.1,7.8c0,0.6,0.1,1.2,0.2,1.7c0.1,0.6,0.2,1.2,0.2,1.8c0,0.1,0,0.2,0,0.3c0.3,0.5,0.5,1.1,0.5,1.7l0.2,1.2v0.4
				C78.2,85.8,77.3,86.7,75.8,86.7z"/>
			<g>
				<g>
					<g>
						<path class="st34" d="M83.5,59c-0.2,0.1-0.4,0-0.5-0.2l-5.1,2l0.3,0.8l1.3-0.7l4.4-1.5c0.3-0.1,0.4-0.4,0.3-0.7l-0.1-0.3
							l-0.4,0.2C83.8,58.7,83.7,58.9,83.5,59z"/>
						<path class="st35" d="M77.7,59.9l0.3,0.8l5.1-2c-0.1-0.2,0-0.4,0.2-0.5c0.2-0.1,0.4,0,0.5,0.2l0.4-0.2l-0.1-0.3
							c-0.1-0.3-0.4-0.4-0.7-0.3L79,59.6L77.7,59.9z"/>
						<path class="st35" d="M83.5,59c-0.2,0.1-0.4,0-0.5-0.2l-0.1,0c0.1,0.2,0.4,0.4,0.6,0.3c0.3-0.1,0.4-0.4,0.3-0.6l-0.1,0
							C83.8,58.7,83.7,58.9,83.5,59z"/>
						<path class="st36" d="M83.3,58.3c0.2-0.1,0.4,0,0.5,0.2l0.1,0c-0.1-0.2-0.4-0.4-0.6-0.3c-0.3,0.1-0.4,0.4-0.3,0.6l0.1,0
							C83,58.6,83.1,58.3,83.3,58.3z"/>
						<path class="st36" d="M79.1,59.8L78,60.1l0.4,1.1l1.1-0.6l4-1.4c0,0,0.1-0.2,0.1-0.3c0,0,0,0,0,0c-0.2,0.1-0.4,0-0.5-0.2
							c-0.1-0.2,0-0.4,0.2-0.5c0,0,0,0,0.1,0c0-0.1-0.3-0.1-0.3-0.2L79.1,59.8z"/>
						<path class="st34" d="M83.2,58.2c-0.2,0.1-0.4,0.4-0.3,0.6c0.1,0.2,0.3,0.4,0.6,0.3c0,0,0-0.1,0-0.1c0,0,0,0,0,0
							c-0.2,0.1-0.4,0-0.5-0.2c-0.1-0.2,0-0.4,0.2-0.5c0,0,0,0,0.1,0C83.3,58.2,83.3,58.2,83.2,58.2z"/>
						<path class="st34" d="M78.4,61.2l0.6-0.3c0-0.2-0.1-0.4-0.1-0.5c-0.1-0.2-0.1-0.3-0.2-0.4L78,60.1L78.4,61.2z"/>
						<path class="st37" d="M74.5,60.6l2.3-0.6l0.8,0.8l0,1.1L75.4,63c0.6,0.4,1.3,0.5,2,0.2c1.1-0.4,1.7-1.7,1.3-2.8
							c-0.4-1.1-1.7-1.7-2.8-1.3C75.2,59.4,74.7,60,74.5,60.6z"/>
						<path class="st36" d="M78.3,60.5C78.3,60.5,78.3,60.5,78.3,60.5c0,0.1,0,0.1,0,0.1c0,0,0,0,0,0.1c0,0.1,0,0.2,0,0.3
							c0,0,0,0,0,0.1c0.1,0.4,0,0.7-0.1,1c0,0,0,0,0-0.1c-0.1-0.4-0.2-0.7-0.3-1.1c0,0,0-0.1,0-0.1c-0.2,0.1-0.3,0.1-0.3,0.1l0,1.1
							L75.4,63c0,0,0,0,0,0l0,0c0.6,0.4,1.3,0.5,2,0.2c1.1-0.4,1.7-1.7,1.3-2.8c0,0,0,0,0,0C78.6,60.4,78.5,60.5,78.3,60.5z"/>
						<path class="st35" d="M78.6,60.4c0.4,1.1-0.2,2.2-1.2,2.7c-0.5,0.2-1,0.2-1.5,0l1.9-1l0-1.4l-1-1l-2.1,0.6
							c0.2-0.4,0.6-0.9,1.1-1C77,58.9,78.2,59.4,78.6,60.4z"/>
					</g>
					<g>
						<path class="st34" d="M81.2,60.2l1.8-0.8l1.4-0.4l-0.3-0.8l-3,1.1C81.2,59.7,81.2,60,81.2,60.2z"/>
						<path class="st35" d="M80.8,58.8c0.1,0.2,0.3,0.3,0.3,0.6c0,0,0,0.1,0,0.1l3-1.1l-0.3-0.8l-1.3,0.7L80.8,58.8z"/>
						<path class="st36" d="M80.9,59c0.1,0.1,0.1,0.3,0.1,0.4c0.1,0.2,0.2,0.4,0.2,0.6l1.7-0.7l1.2-0.3l-0.4-1.1l-1.1,0.5L80.9,59z"
							/>
						<path class="st34" d="M84.1,59l-0.6,0.2c-0.1-0.1-0.2-0.3-0.3-0.5c-0.1-0.2-0.1-0.3-0.1-0.5l0.6-0.3L84.1,59z"/>
						<path class="st37" d="M86.7,56L84.6,57l0,1.1l0.8,0.8l2.3-0.6c-0.2,0.7-0.7,1.2-1.3,1.5c-1.1,0.4-2.4-0.1-2.8-1.3
							c-0.4-1.1,0.1-2.4,1.3-2.8C85.4,55.5,86.1,55.6,86.7,56z"/>
						<path class="st36" d="M83.4,58.6C83.4,58.6,83.4,58.6,83.4,58.6c0.4,1.2,1.7,1.7,2.8,1.3c0.7-0.3,1.2-0.8,1.3-1.5l0,0
							c0,0,0,0,0,0L85.3,59l-0.8-0.8c0,0-0.1,0.1-0.3,0.1c0,0,0.1,0.1,0.1,0.1c0.2,0.3,0.4,0.7,0.6,1c0,0,0,0,0,0.1
							c-0.3-0.1-0.6-0.3-0.7-0.6c0,0,0,0,0,0c-0.1-0.1-0.1-0.1-0.2-0.2c0,0,0,0,0,0c0,0-0.1-0.1-0.1-0.1c0,0,0,0,0,0
							C83.6,58.5,83.5,58.5,83.4,58.6z"/>
						<path class="st35" d="M83.5,58.5c0.4,1,1.6,1.6,2.7,1.2c0.5-0.2,0.9-0.5,1.1-1l-2.1,0.6l-1-1l0-1.4l2-0.9
							c-0.5-0.2-1-0.2-1.5,0C83.7,56.3,83.1,57.5,83.5,58.5z"/>
					</g>
				</g>
				<path class="st38" d="M73.5,24.3c-0.9-0.8-1.8-1.2-3-1.2c0,0-0.1,0-0.1,0c-0.5-0.2-1-0.4-1.3-0.3c-0.5,0.1-0.8,0.3-1,0.6
					c0,0,0,0,0-0.1c-0.3-0.6-1-0.4-1.3,0.1c-0.1,0.1-0.2,0.2-0.2,0.3c-0.5,0-1,0-1.5,0.1c-0.3,0.1-0.6,0.4-0.5,0.7
					c0.1,1.2,0.4,2.4,0.8,3.6c0.2,0.7,0.2,1.4,0.8,1.9c0,0.2,0,1.8-0.9,2.9c-0.3,0.4,0.4,1.3,0.6,1.4c0.2,0.2,0.5,0.3,0.7,0.3
					c0.3,0.9,1.4,1.2,2.5,0.8c0.3-0.1,0.5-0.2,0.7-0.3c0,0,0,0,0.1,0.1c0.3,0.3,0.8,0.3,1,0c0.3-0.4,0.5-0.8,1.1-0.8
					c0.4,0,1.1-1,0.9-1.5c-0.5-1.2-0.9-1.8-1-3.1c0.3-0.3,0.5-0.7,0.5-1.1c0,0,0-0.1,0-0.1c0.1-0.1,0.1-0.2,0.2-0.3
					c0.4-0.7,0.7-1.9,0.4-2.7c0.2-0.1,0.4-0.2,0.6-0.3C73.7,25,73.8,24.5,73.5,24.3z"/>
				<g>
					<g>
						<path class="st38" d="M82.2,55.3c0,0,0.5,2,0.5,2.7c0,0.3,0.1,1.4,0.1,1.4s-0.6,0.3-1.3,0.7c0-0.1-0.1-0.1-0.1-0.1
							c0,0-0.1,0-0.1,0.2c-0.2,0.1-0.4,0.2-0.6,0.3c0,0-0.1-0.2-0.1-0.2c-0.1-0.1-0.3,0.2-0.2,0.2c-0.1,0.4-0.6-0.1-0.6-0.2
							c-0.1-0.5-0.1-1.1-0.6-1.6c-0.4-0.6-0.1-1.9,0.3-2.4c0,0,0,0,0,0c0.1-0.1,0.2-0.4,0.3-0.5C80.6,55.4,82.2,55.3,82.2,55.3z"/>
						<g>
							<path class="st38" d="M82.7,60C82.7,60,82.7,60,82.7,60c0.2-0.1,0.3-0.3,0.2-0.4l-0.2-0.4c-0.1-0.2-0.3-0.3-0.4-0.2
								c-0.2,0.1-0.3,0.3-0.2,0.4l0.2,0.4C82.3,60,82.5,60.1,82.7,60z"/>
						</g>
						<g>
							<path class="st38" d="M82,60.5c0.2-0.1,0.3-0.2,0.2-0.4L82,59.3c0-0.2-0.2-0.3-0.4-0.3c-0.2,0-0.3,0.2-0.3,0.4l0.2,0.8
								C81.6,60.4,81.8,60.5,82,60.5C82,60.5,82,60.5,82,60.5z"/>
						</g>
						<g>
							<path class="st38" d="M81.2,60.9c0.2-0.1,0.3-0.2,0.2-0.4l-0.2-0.8c0-0.2-0.2-0.3-0.4-0.3c-0.2,0-0.3,0.2-0.3,0.4l0.2,0.8
								C80.8,60.9,81,61,81.2,60.9C81.2,60.9,81.2,60.9,81.2,60.9z"/>
						</g>
						<g>
							<path class="st38" d="M80.1,61c0.1,0,0.2-0.2,0.2-0.3l0.1-0.6c0-0.2-0.1-0.3-0.3-0.4c-0.2,0-0.4,0.1-0.4,0.3l-0.1,0.6
								c0,0.2,0.1,0.4,0.3,0.4C80,61.1,80.1,61.1,80.1,61z"/>
						</g>
						<g>
							<path class="st38" d="M79.7,57c-0.2-0.1-0.5,0-0.6,0.2l-0.7,1.5c0,0.1-0.1,0.2,0,0.3l0.1,0.3l0.1,0.2l0,0.1l0,0.1l0,0v0
								c0.1,0,0.1-0.1,0.2-0.1c0,0,0.1,0,0.1,0c0,0,0,0,0,0c0,0,0,0,0,0c0.1,0,0.1-0.1,0.2-0.1c0,0,0,0,0,0c0,0,0,0,0,0l0,0l0,0
								l0-0.1l0-0.2l0-0.2l0.7-1.4C80,57.4,79.9,57.1,79.7,57z M78.6,59.6L78.6,59.6C78.7,59.6,78.6,59.6,78.6,59.6L78.6,59.6
								C78.6,59.5,78.6,59.5,78.6,59.6L78.6,59.6z"/>
						</g>
					</g>
					<g>
						<path d="M75.4,37.8C75.4,37.8,75.3,37.8,75.4,37.8L75.4,37.8C75.3,37.8,75.4,37.8,75.4,37.8c0.1,0,0.1,0,0.2,0
							C75.5,37.7,75.4,37.7,75.4,37.8c-0.2-0.2-0.4-0.3-0.5-0.4c0-0.1-0.1-0.1-0.1-0.2c0,0,0,0.1,0,0.2l0,0.1l0,0v0v0.1l0,0.1
							c0,0.1,0,0.1,0,0.2c0,0.1,0,0.1,0,0.2C75,37.9,75.2,37.8,75.4,37.8C75.4,37.8,75.4,37.7,75.4,37.8z"/>
						<path class="st14" d="M79.9,38c0-0.1,0-0.2,0-0.3c0-0.2,0-0.3,0-0.5c0-0.4,0-0.9-0.2-1.4c-0.1-0.5-0.4-1.1-0.8-1.6
							c-0.4-0.5-0.9-1-1.5-1.2c-0.5-0.3-1-0.3-1.5-0.4c-0.4,0-0.8,0-1,0c-0.6,0.1-0.9,0.2-1.2,0.3c-0.1,0-0.2,0.1-0.3,0.1
							c-0.1,0-0.1,0.1-0.1,0.1c-1.3,0.6-1.9,2.1-1.3,3.3c0.5,1.1,1.7,1.7,2.8,1.5c0,0,0-0.1,0-0.2c0-0.1,0-0.1,0-0.2l0-0.1v-0.1v0
							l0,0l0-0.1c0-0.1,0-0.1,0-0.2c0,0,0-0.1,0,0c0,0,0,0,0,0c0,0,0,0.1,0.1,0.2c0.1,0.1,0.3,0.3,0.4,0.3c0.1,0,0.2,0.1,0.2,0.1
							c0,0,0,0,0.1,0c0,0,0,0-0.1,0c-0.1,0-0.1,0-0.1,0c0,0,0,0,0,0v0c0,0,0,0,0,0c0,0,0,0,0,0c-0.2,0.1-0.4,0.1-0.5,0.2
							c0,0.1,0,0.3,0,0.4c0.1,0.7,0.2,1.4,0.3,2.1c0.1,0.3,0.1,0.7,0.2,1l4.6-2.2C80,38.7,79.9,38.3,79.9,38z"/>
						<path class="st38" d="M82.2,55L82.2,55c0,0-0.2-1.4-0.5-3.5c-0.2-1.1-0.3-2.3-0.5-3.6c-0.2-1.3-0.4-2.7-0.6-4.1
							c-0.2-1.4-0.4-2.8-0.5-4.1c0-0.2,0-0.4,0-0.5l-4.6,2.2c0.2,1.1,0.4,2.1,0.7,3.2c0.3,1.4,1.3,1.7,1.6,3
							c0.3,1.3,0.6,2.5,0.9,3.6c0.3,1,0.5,1.9,0.7,2.5c0.2,0.6,0.3,1,0.3,1c0.2,0.8,0.4,2.5,1.3,2.3C81.7,56.8,82.3,55.9,82.2,55z"
							/>
					</g>
				</g>
				<g>
					<g>
						<path class="st38" d="M56,55.3c0,0-0.5,2-0.5,2.7c0,0.3-0.1,1.4-0.1,1.4s0.6,0.3,1.3,0.7c0-0.1,0.1-0.1,0.1-0.1
							c0,0,0.1,0,0.1,0.2c0.2,0.1,0.4,0.2,0.6,0.3c0,0,0.1-0.2,0.1-0.2c0.1-0.1,0.3,0.2,0.2,0.2c0.1,0.4,0.6-0.1,0.6-0.2
							c0.1-0.5,0.1-1.1,0.6-1.6c0.4-0.6,0.1-1.9-0.3-2.4c0,0,0,0,0,0c-0.1-0.1-0.2-0.4-0.3-0.5C57.7,55.4,56,55.3,56,55.3z"/>
						<g>
							<path class="st38" d="M55.5,60C55.5,60,55.5,60,55.5,60c-0.2-0.1-0.3-0.3-0.2-0.4l0.2-0.4c0.1-0.2,0.3-0.3,0.4-0.2
								c0.2,0.1,0.3,0.3,0.2,0.4L56,59.8C55.9,60,55.7,60.1,55.5,60z"/>
						</g>
						<g>
							<path class="st38" d="M56.3,60.5c-0.2-0.1-0.3-0.2-0.2-0.4l0.2-0.8c0-0.2,0.2-0.3,0.4-0.3c0.2,0,0.3,0.2,0.3,0.4l-0.2,0.8
								C56.6,60.4,56.5,60.5,56.3,60.5C56.3,60.5,56.3,60.5,56.3,60.5z"/>
						</g>
						<g>
							<path class="st38" d="M57,60.9c-0.2-0.1-0.3-0.2-0.2-0.4l0.2-0.8c0-0.2,0.2-0.3,0.4-0.3c0.2,0,0.3,0.2,0.3,0.4l-0.2,0.8
								C57.4,60.9,57.3,61,57,60.9C57.1,60.9,57.1,60.9,57,60.9z"/>
						</g>
						<g>
							<path class="st38" d="M58.1,61c-0.1,0-0.2-0.2-0.2-0.3l-0.1-0.6c0-0.2,0.1-0.3,0.3-0.4c0.2,0,0.4,0.1,0.4,0.3l0.1,0.6
								c0,0.2-0.1,0.4-0.3,0.4C58.2,61.1,58.1,61.1,58.1,61z"/>
						</g>
						<g>
							<path class="st38" d="M59.1,57.2l0.7,1.5c0,0.1,0,0.2,0,0.3l0,0l-0.1,0.3l-0.1,0.2l0,0.1l0,0.1l0,0l0,0c0,0,0,0,0,0.1
								c0,0-0.1,0.1-0.1,0.1c0,0,0,0-0.1,0c0,0,0,0-0.1,0c0,0-0.1,0-0.2-0.1C59,59.8,59,59.7,59,59.6c0-0.1,0-0.1,0-0.1v0l0,0
								c0-0.2,0.2-0.3,0.4-0.3c0.2,0,0.3,0.2,0.3,0.4l0,0v0c0,0,0,0,0-0.1c0-0.1,0-0.1-0.1-0.2c-0.1-0.1-0.2-0.1-0.2-0.1
								c-0.1,0-0.1,0-0.1,0c0,0,0,0-0.1,0L59,59.4l0,0l0-0.1l0-0.2l0-0.3l0,0l0,0.3l-0.7-1.5c-0.1-0.2,0-0.5,0.2-0.6
								C58.8,56.9,59,57,59.1,57.2z"/>
						</g>
					</g>
					<g>
						<path d="M62.9,37.8C62.9,37.8,62.9,37.8,62.9,37.8L62.9,37.8C62.9,37.8,62.9,37.8,62.9,37.8c-0.1,0-0.1,0-0.2,0
							C62.8,37.7,62.8,37.7,62.9,37.8c0.2-0.2,0.4-0.3,0.5-0.4c0-0.1,0.1-0.1,0.1-0.2c0,0,0,0.1,0,0.2l0,0.1l0,0v0l0,0.1l0,0.1
							c0,0.1,0,0.1,0,0.2c0,0.1,0,0.1,0,0.2C63.2,37.9,63.1,37.8,62.9,37.8C62.9,37.8,62.9,37.7,62.9,37.8z"/>
						<path class="st14" d="M58.3,38c0-0.1,0-0.2,0-0.3c0-0.2,0-0.3,0-0.5c0-0.4,0.1-0.9,0.2-1.4c0.1-0.5,0.4-1.1,0.8-1.6
							c0.4-0.5,1-1,1.5-1.2c0.5-0.3,1-0.3,1.5-0.4c0.4,0,0.7,0,1,0c0.6,0.1,0.9,0.2,1.2,0.3c0.1,0,0.2,0.1,0.3,0.1
							c0.1,0,0.1,0.1,0.1,0.1c1.3,0.6,1.9,2.1,1.3,3.3c-0.5,1.1-1.7,1.7-2.8,1.5c0,0,0-0.1,0-0.2c0-0.1,0-0.1,0-0.2l0-0.1l0-0.1v0
							l0,0l0-0.1c0-0.1,0-0.1,0-0.2c0,0,0-0.1,0,0c0,0,0,0,0,0c0,0,0,0.1-0.1,0.2c-0.1,0.1-0.3,0.3-0.4,0.3c-0.1,0-0.2,0.1-0.2,0.1
							c0,0,0,0-0.1,0c0,0,0,0,0.1,0c0,0,0.1,0,0.1,0c0,0,0,0,0,0v0c0,0,0,0,0,0c0,0,0,0,0,0c0.2,0.1,0.4,0.1,0.5,0.2
							c0,0.1,0,0.3,0,0.4c-0.1,0.7-0.2,1.4-0.3,2.1c-0.1,0.3-0.1,0.7-0.2,1l-4.6-2.2C58.3,38.7,58.3,38.3,58.3,38z"/>
						<path class="st38" d="M56.1,55L56.1,55c0,0,0.2-1.4,0.5-3.5c0.2-1.1,0.3-2.3,0.5-3.6c0.2-1.3,0.4-2.7,0.6-4.1
							c0.2-1.4,0.4-2.8,0.5-4.1c0-0.2,0-0.4,0-0.5l4.6,2.2c-0.2,1.1-0.4,2.1-0.7,3.2c-0.3,1.4-1.3,1.7-1.6,3
							c-0.3,1.3-0.6,2.5-0.9,3.6c-0.3,1-0.5,1.9-0.7,2.5c-0.2,0.6-0.3,1-0.3,1c-0.2,0.8-0.4,2.5-1.3,2.3
							C56.6,56.8,55.9,55.9,56.1,55z"/>
					</g>
				</g>
				<g>
					<path class="st28" d="M75.9,83.2c-0.1-0.6,0.1-1.5,0.1-2.5c0-1-0.3-2.2-0.3-3.5c0-1.3,0-2.7,0-4.1c0-0.7,0-3.1,0-3.8
						c0-0.7,0-1.3,0-2c0-1.3,0.1-2.5,0.1-3.5c0.1-2.1,0.2-3.5,0.2-3.5c0-0.3,0-1.3,0-1.4c0,0,0-1.6,0-2l-0.2-2.7H62l-0.1,5.3
						c0,0.2,0,0.5,0,0.7c0,0,0,0.1,0,0.2v0c0,0.4,0,0.5,0,0.5c0,0.6,0.1,1.6,0.1,2.8c0,1,0.1,2.2,0.1,3.5c0,0.6,0,1.3,0,2
						c0,0.7,0,3.1,0,3.8c0,1.4,0,2.8,0,4.1c0,1.3-0.4,2.5-0.4,3.5c0,1,0.3,1.9,0.2,2.5c-0.1,0.6-0.3,0.9-0.3,0.9
						c-0.1,0.1-0.1,0.3-0.1,0.4c0.3-0.3,0.8-0.5,1.3-0.5c0.6,0,1.2,0,1.9-0.1c0.1,0,0.3,0,0.4,0c0-0.1,0-0.3,0-0.5
						c0-0.6,0.3-1.5,0.5-2.5c0.2-1,0-2.2,0.2-3.5c0.2-1.3,0.4-2.6,0.6-4c0.1-0.7,0.2-3.1,0.3-3.8c0.1-0.7,0.2-1.3,0.3-2
						c0.2-1.3,0.3-2.5,0.5-3.5c0.4-2,0.8-3.4,0.8-3.4c0.3-0.5,0.3-1,0.3-1.4l0,0c0.1,0.4,0.3,0.9,0.5,1.4c0,0,0.4,1.4,0.8,3.4
						c0.2,1,0.3,2.2,0.5,3.5c0.1,0.6,0.2,1.3,0.3,2c0.1,0.7,0.2,3.1,0.3,3.8c0.2,1.4,0.4,2.7,0.6,4c0.2,1.3,0,2.5,0.2,3.5
						c0.2,1,0.5,1.9,0.5,2.5c0,0.4-0.1,0.7-0.1,0.9c0.2-0.1,0.4-0.1,0.6-0.1c1-0.1,1.9-0.1,2.9-0.1C76.1,84,76,83.7,75.9,83.2z"/>
					<path class="st11" d="M77.4,35.1c0-1.4-1.2-2.6-2.7-2.6h-1.8c-0.8,1.4-2.3,2.4-4,2.4c-1.7,0-3.2-1-4-2.4h-1.6
						c-1.5,0-2.7,1.2-2.7,2.6c0,0,1.7,3.6,1.7,15.5c0,1.2-0.1,1.3-0.1,1.3h13.5c0,0,0,0-0.1-1.5C75.1,38.4,77.4,35.1,77.4,35.1z"/>
					<polygon class="st39" points="62,54.3 75.9,54.3 75.7,51.9 62.2,51.9 					"/>
				</g>
				<g>
					<path d="M73.2,24.6c-0.3,0.8-0.5,1.7-0.5,2.6c-0.1,0.9-0.4,1.7-0.9,2.5c-0.3,0.1-0.6,0.2-0.9,0.3c-0.1-0.6-0.2-1.1-0.3-1.7
						c-0.4-0.3-0.8-0.6-1.4-0.7v0.6c0.4,0.1,0.7,0.2,1,0.4c0.3,0.5,0.4,1,0.5,1.5c-0.5,0.4-1.3,0.5-1.8,0.6c-0.5,0-1.1-0.2-1.6-0.6
						c0.1-0.5,0.2-1,0.5-1.5c0.3-0.2,0.6-0.3,1-0.4v-0.6c-0.5,0.1-1,0.4-1.4,0.7c-0.2,0.6-0.3,1.2-0.3,1.7c-0.3,0-0.6-0.1-0.9-0.3
						c-0.5-0.8-0.8-1.6-0.9-2.5c0-0.9-0.2-1.7-0.5-2.6l-0.5,0.2l0.6,2.6c0.2,0.9,0.6,1.7,1.2,2.5c0.3,0.2,0.6,0.4,0.8,0.7
						c0.5,0.6,1.3,1,2,1.1c0,0,0.1,0,0.1,0c0,0,0.1,0,0.1,0c0.8-0.2,1.7-0.5,2.2-1.1c0.2-0.3,0.5-0.5,0.8-0.7c0.6-0.8,1-1.6,1.2-2.5
						l0.6-2.6L73.2,24.6z"/>
					<path d="M64.2,24.8l0.7,0.3c0,0-0.3-1-0.2-1.4c0.1-0.4,0.4-2.7,1.9-2.3c1.5,0.4,2.6,0.1,2.6,0.1l0.1-2.2
						C69.3,19.3,62.9,18,64.2,24.8z"/>
					<path d="M73.7,24.8L73,25.2c0,0,0.3-1,0.2-1.4c-0.1-0.4-0.4-2.7-1.9-2.3c-1.5,0.4-2.6,0.1-2.6,0.1l-0.1-2.2
						C68.6,19.3,75.1,18.1,73.7,24.8z"/>
				</g>
				<path class="st40" d="M65.7,83.2c0-1.2-0.9-2.1-2.1-2.1l0,0c-1.2,0-2.1,0.9-2.1,2.1l-0.2,1.2c0,1.2,1.1,0.7,2.3,0.7l0,0
					c1.2,0,2.3,0.5,2.3-0.7L65.7,83.2z"/>
				<path class="st40" d="M76.5,83.2c0-1.2-0.9-2.1-2.1-2.1l0,0c-1.2,0-2.1,0.9-2.1,2.1l-0.2,1.2c0,1.2,1.1,0.7,2.3,0.7l0,0
					c1.2,0,2.3,0.5,2.3-0.7L76.5,83.2z"/>
				<path d="M65.7,82.9c0-1.2-0.9-2.1-2.1-2.1l0,0c-1.2,0-2.1,0.9-2.1,2.1L61.3,84c0,1.2,1.1,0.7,2.3,0.7l0,0c1.2,0,2.3,0.5,2.3-0.7
					L65.7,82.9z"/>
				<path d="M76.5,82.9c0-1.2-0.9-2.1-2.1-2.1l0,0c-1.2,0-2.1,0.9-2.1,2.1L72.1,84c0,1.2,1.1,0.7,2.3,0.7l0,0c1.2,0,2.3,0.5,2.3-0.7
					L76.5,82.9z"/>
				<g>
					<path class="st41" d="M66.4,18.9c0,0-3.1,1.4-2.2,5.7c0,0,1.5-1.7,4.8-1.7l0-4.4L66.4,18.9z"/>
					<path class="st39" d="M71.6,18.9L69,18.4l0,4.4c3.4,0,4.8,1.7,4.8,1.7C74.7,20.3,71.6,18.9,71.6,18.9z"/>
				</g>
				<g>
					<path class="st42" d="M64.1,24.6c-0.1-0.4-0.1-1.3-0.1-1.7C64,23.4,64,24,64.1,24.6c0,0.1,1.5-1.1,4.8-1.1v-0.6
						C65.6,22.8,64.1,24.6,64.1,24.6z"/>
					<path class="st42" d="M73.8,24.6c0,0-1.5-1.7-4.8-1.7l0,0.6C72.3,23.5,73.8,24.6,73.8,24.6c0.1-0.6,0.2-1.2,0.1-1.7
						C73.9,23.2,73.9,24.2,73.8,24.6z"/>
				</g>
				<polygon class="st41" points="74.3,51.9 63.7,51.9 65.2,41.7 72.7,41.7 				"/>
				<g>
					<polygon class="st41" points="72.7,42.3 71.3,42.1 72.7,32.5 74.2,32.5 					"/>
				</g>
				<g>
					<polygon class="st41" points="65.2,42.3 66.7,42.1 65.2,32.5 63.7,32.5 					"/>
				</g>
				<path class="st9" d="M66.1,42.3c0,0.1-0.1,0.3-0.3,0.3c-0.1,0-0.3-0.1-0.3-0.3c0-0.1,0.1-0.3,0.3-0.3C66,42,66.1,42.2,66.1,42.3
					z"/>
				<path class="st9" d="M72.2,42.3c0,0.1-0.1,0.3-0.3,0.3c-0.1,0-0.3-0.1-0.3-0.3c0-0.1,0.1-0.3,0.3-0.3
					C72.1,42,72.2,42.2,72.2,42.3z"/>
			</g>
		</g>
	</g>
</g>
</svg>
